<?xml version="1.0" encoding="UTF-8" standalone="no"?>
<svg
   xmlns:dc="http://purl.org/dc/elements/1.1/"
   xmlns:cc="http://creativecommons.org/ns#"
   xmlns:rdf="http://www.w3.org/1999/02/22-rdf-syntax-ns#"
   xmlns:svg="http://www.w3.org/2000/svg"
   xmlns="http://www.w3.org/2000/svg"
   xmlns:sodipodi="http://sodipodi.sourceforge.net/DTD/sodipodi-0.dtd"
   xmlns:inkscape="http://www.inkscape.org/namespaces/inkscape"
   version="1.1"
   width="512"
   height="512"
   x="0"
   y="0"
   viewBox="0 0 64 64"
   style="enable-background:new 0 0 512 512"
   xml:space="preserve"
   id="svg7096"
   sodipodi:docname="automation_01_v2.svg"
   inkscape:version="1.0.2 (e86c8708, 2021-01-15)"><metadata
     id="metadata7102"><rdf:RDF><cc:Work
         rdf:about=""><dc:format>image/svg+xml</dc:format><dc:type
           rdf:resource="http://purl.org/dc/dcmitype/StillImage" /><dc:title></dc:title></cc:Work></rdf:RDF></metadata><defs
     id="defs7100" /><sodipodi:namedview
     pagecolor="#ffffff"
     bordercolor="#666666"
     borderopacity="1"
     objecttolerance="10"
     gridtolerance="10"
     guidetolerance="10"
     inkscape:pageopacity="0"
     inkscape:pageshadow="2"
     inkscape:window-width="1786"
     inkscape:window-height="1285"
     id="namedview7098"
     showgrid="false"
     inkscape:snap-global="false"
     inkscape:zoom="0.70710678"
     inkscape:cx="304.94873"
     inkscape:cy="402.38032"
     inkscape:window-x="3732"
     inkscape:window-y="457"
     inkscape:window-maximized="0"
     inkscape:current-layer="svg7096" /><path
     d="m 48,27 v 6 h -7 c -1.103,0 -2,0.897 -2,2 v 2 H 16 v -6 h 7 c 1.103,0 2,-0.897 2,-2 v -2 h 23 v 0"
     fill="#000000"
     data-original="#000000"
     id="path7080"
     sodipodi:nodetypes="ccsscccssccc" /><path
     d="m 3,52 c 0,0.552 0.449,1 1,1 h 56 c 0.551,0 1,-0.448 1,-1 V 19 H 3 Z M 50,33 h 7 c 1.103,0 2,0.897 2,2 v 6 c 0,1.103 -0.897,2 -2,2 h -7 v 4 H 25 v 2 c 0,1.103 -0.897,2 -2,2 H 7 C 5.897,51 5,50.103 5,49 v -6 c 0,-1.103 0.897,-2 2,-2 h 16 c 1.103,0 2,0.897 2,2 v 2 h 23 v -2 h -7 c -1.103,0 -2,-0.897 -2,-2 V 39 H 14 V 31 H 7 C 5.897,31 5,30.103 5,29 v -6 c 0,-1.103 0.897,-2 2,-2 h 16 c 1.103,0 2,0.897 2,2 v 2 h 25 z"
     fill="#000000"
     data-original="#000000"
     id="path7090"
     sodipodi:nodetypes="ssssccscsssscccsssssssscccsscccssssssccc" /><path
     style="color:#000000;font-style:normal;font-variant:normal;font-weight:normal;font-stretch:normal;font-size:medium;line-height:normal;font-family:sans-serif;font-variant-ligatures:normal;font-variant-position:normal;font-variant-caps:normal;font-variant-numeric:normal;font-variant-alternates:normal;font-variant-east-asian:normal;font-feature-settings:normal;font-variation-settings:normal;text-indent:0;text-align:start;text-decoration:none;text-decoration-line:none;text-decoration-style:solid;text-decoration-color:#000000;letter-spacing:normal;word-spacing:normal;text-transform:none;writing-mode:lr-tb;direction:ltr;text-orientation:mixed;dominant-baseline:auto;baseline-shift:baseline;text-anchor:start;white-space:normal;shape-padding:0;shape-margin:0;inline-size:0;clip-rule:nonzero;display:inline;overflow:visible;visibility:visible;isolation:auto;mix-blend-mode:normal;color-interpolation:sRGB;color-interpolation-filters:linearRGB;solid-color:#000000;solid-opacity:1;vector-effect:none;fill:#ffffff;fill-opacity:1;fill-rule:nonzero;stroke:none;stroke-linecap:butt;stroke-linejoin:miter;stroke-miterlimit:4;stroke-dasharray:none;stroke-dashoffset:0;stroke-opacity:1;color-rendering:auto;image-rendering:auto;shape-rendering:auto;text-rendering:auto;enable-background:accumulate;stop-color:#000000"
     d="m 48.611632,20.867193 c -0.687699,0 -1.306684,0.438667 -1.533203,1.08789 l -0.05469,0.158203 c -0.138224,0.07043 -0.272294,0.145853 -0.402344,0.230469 l -0.16406,-0.03125 c -0.675226,-0.128156 -1.364999,0.187647 -1.708984,0.783203 l -0.388672,0.675781 c -0.342806,0.59522 -0.272304,1.348974 0.175781,1.869141 l 0.109375,0.126953 c -0.0085,0.154164 -0.0079,0.307899 0,0.464844 L 44.53546,26.35938 c -0.448508,0.520672 -0.519709,1.275606 -0.175781,1.871094 l 0.388672,0.673828 c 0.343718,0.595101 1.034042,0.911185 1.708984,0.783203 l 0.164063,-0.03125 c 0.13005,0.08462 0.26412,0.160043 0.402344,0.230469 l 0.05469,0.158203 c 0.226521,0.649211 0.845506,1.087891 1.533203,1.08789 h 0.777344 c 0.687697,0 1.306685,-0.438661 1.533203,-1.08789 l 0.05469,-0.158203 c 0.138224,-0.07043 0.272294,-0.145853 0.402344,-0.230469 l 0.164063,0.03125 c 0.675226,0.128156 1.364999,-0.187647 1.708984,-0.783203 l 0.388672,-0.673828 v -0.002 c 0.342806,-0.59522 0.272304,-1.348974 -0.175781,-1.869141 L 53.355779,26.23238 c 0.0084,-0.154253 0.0079,-0.307993 0,-0.464844 l 0.109375,-0.126953 c 0.448073,-0.520169 0.518572,-1.273922 0.175781,-1.869141 v -0.002 l -0.388678,-0.673734 c -0.343983,-0.595562 -1.033756,-0.911367 -1.708984,-0.783203 l -0.164063,0.03125 c -0.13005,-0.08462 -0.26412,-0.160043 -0.402344,-0.230469 l -0.05469,-0.158203 c -0.226515,-0.649245 -0.845504,-1.08789 -1.533203,-1.08789 z"
     id="path7786"
     sodipodi:nodetypes="sccccccccccccccccsscccccccsccccccccccss" /><g
     id="g7798"
     style="fill:#000000"><circle
       cx="49"
       cy="25.999979"
       r="1.1910079"
       fill="#000000"
       data-original="#000000"
       id="circle7792"
       style="stroke-width:0.021268;fill:#000000" /><path
       d="m 51.585825,26.449794 c 0.04989,-0.288461 0.05275,-0.594625 0,-0.899585 L 51.829113,25.2682 c 0.143047,-0.166063 0.165633,-0.405264 0.05593,-0.595205 l -0.293194,-0.508087 c -0.109706,-0.189941 -0.328256,-0.289967 -0.543581,-0.249096 l -0.366329,0.06969 C 50.448764,23.790617 50.187621,23.63961 49.903248,23.535497 l -0.122399,-0.351269 c -0.07227,-0.20715 -0.268241,-0.346325 -0.487437,-0.346325 h -0.586816 c -0.219196,0 -0.415161,0.139175 -0.487437,0.346325 l -0.122396,0.351273 c -0.284375,0.104113 -0.545517,0.255119 -0.778695,0.450008 l -0.36633,-0.06969 c -0.215325,-0.04087 -0.433875,0.05916 -0.543581,0.249097 l -0.293193,0.508086 c -0.109705,0.189941 -0.08712,0.429142 0.05593,0.595206 l 0.243288,0.282008 c -0.0498,0.287881 -0.05285,0.594002 0,0.899585 l -0.243288,0.282009 c -0.143047,0.166063 -0.165634,0.405265 -0.05593,0.595206 l 0.293193,0.508086 c 0.109706,0.189941 0.328042,0.289968 0.543581,0.249097 l 0.36633,-0.06969 c 0.233178,0.194888 0.49432,0.345895 0.778695,0.450008 l 0.122396,0.351272 c 0.07228,0.20715 0.268241,0.346325 0.487437,0.346325 h 0.586816 c 0.219196,0 0.415161,-0.139175 0.487437,-0.346325 l 0.122397,-0.351272 c 0.284374,-0.104113 0.545516,-0.25512 0.778694,-0.450008 l 0.36633,0.06969 c 0.215325,0.04087 0.433875,-0.05916 0.543581,-0.249097 l 0.293193,-0.508086 c 0.109705,-0.189941 0.08712,-0.429143 -0.05593,-0.595206 z m -2.585824,1.098969 c -0.854004,0 -1.548784,-0.69478 -1.548784,-1.548783 0,-0.854004 0.69478,-1.548784 1.548784,-1.548784 0.854004,0 1.548784,0.69478 1.548784,1.548784 0,0.854003 -0.69478,1.548783 -1.548784,1.548783 z"
       fill="#000000"
       data-original="#000000"
       id="path7794"
       style="fill:#000000;stroke:none;stroke-width:1.79367;stroke-miterlimit:4;stroke-dasharray:none;stroke-opacity:1" /></g><circle
     cx="49"
     cy="58.5"
     r="3"
     fill="#000000"
     data-original="#000000"
     id="circle7082" /><path
     d="M 23,23 H 7 v 6 H 23.001 Z M 11,27 H 9 v -2 h 2 z m 10,0 h -8 v -2 h 8 z"
     fill="#000000"
     data-original="#000000"
     id="path7084" /><path
     d="M 57,35 H 41 v 6 h 16.001 z m -6,4 h -8 v -2 h 8 z m 4,0 h -2 v -2 h 2 z"
     fill="#000000"
     data-original="#000000"
     id="path7086" /><path
     d="M 23,43 H 7 v 6 h 16.001 z m -2,4 H 9 v -2 h 12 z"
     fill="#000000"
     data-original="#000000"
     id="path7088" /><path
     d="M 60,11 H 4 c -0.551,0 -1,0.448 -1,1 v 5 h 58 v -5 c 0,-0.552 -0.449,-1 -1,-1 z M 7,15 H 5 v -2 h 2 z m 4,0 H 9 v -2 h 2 z m 4,0 h -2 v -2 h 2 z"
     fill="#000000"
     data-original="#000000"
     id="path7092" /><circle
     style="fill:#aa00ff;stroke-width:0.210129;stroke-linecap:round;stroke-linejoin:round;paint-order:stroke markers fill"
     id="path7704"
     cx="49"
     cy="4.7145939"
     r="5" /><circle
     cx="67.366264"
     cy="26"
     r="3"
     fill="#000000"
     data-original="#000000"
     id="circle7706" /><g
     id="g7802"
     transform="translate(32.5)"><path
       d="m 51.585825,26.449794 c 0.04989,-0.288461 0.05275,-0.594625 0,-0.899585 L 51.829113,25.2682 c 0.143047,-0.166063 0.165633,-0.405264 0.05593,-0.595205 l -0.293194,-0.508087 c -0.109706,-0.189941 -0.328256,-0.289967 -0.543581,-0.249096 l -0.366329,0.06969 C 50.448764,23.790617 50.187621,23.63961 49.903248,23.535497 l -0.122399,-0.351269 c -0.07227,-0.20715 -0.268241,-0.346325 -0.487437,-0.346325 h -0.586816 c -0.219196,0 -0.415161,0.139175 -0.487437,0.346325 l -0.122396,0.351273 c -0.284375,0.104113 -0.545517,0.255119 -0.778695,0.450008 l -0.36633,-0.06969 c -0.215325,-0.04087 -0.433875,0.05916 -0.543581,0.249097 l -0.293193,0.508086 c -0.109705,0.189941 -0.08712,0.429142 0.05593,0.595206 l 0.243288,0.282008 c -0.0498,0.287881 -0.05285,0.594002 0,0.899585 l -0.243288,0.282009 c -0.143047,0.166063 -0.165634,0.405265 -0.05593,0.595206 l 0.293193,0.508086 c 0.109706,0.189941 0.328042,0.289968 0.543581,0.249097 l 0.36633,-0.06969 c 0.233178,0.194888 0.49432,0.345895 0.778695,0.450008 l 0.122396,0.351272 c 0.07228,0.20715 0.268241,0.346325 0.487437,0.346325 h 0.586816 c 0.219196,0 0.415161,-0.139175 0.487437,-0.346325 l 0.122397,-0.351272 c 0.284374,-0.104113 0.545516,-0.25512 0.778694,-0.450008 l 0.36633,0.06969 c 0.215325,0.04087 0.433875,-0.05916 0.543581,-0.249097 l 0.293193,-0.508086 c 0.109705,-0.189941 0.08712,-0.429143 -0.05593,-0.595206 z m -2.585824,1.098969 c -0.854004,0 -1.548784,-0.69478 -1.548784,-1.548783 0,-0.854004 0.69478,-1.548784 1.548784,-1.548784 0.854004,0 1.548784,0.69478 1.548784,1.548784 0,0.854003 -0.69478,1.548783 -1.548784,1.548783 z"
       fill="#000000"
       data-original="#000000"
       id="path7754"
       style="fill:#3f51b5;stroke:none;stroke-width:1.79367;stroke-miterlimit:4;stroke-dasharray:none;stroke-opacity:1" /><circle
       cx="49"
       cy="25.999979"
       r="1.1910079"
       fill="#000000"
       data-original="#000000"
       id="circle4136"
       style="stroke-width:0.021268" /></g><path
     d="m 3,123.03244 c 0,0.552 0.449,1 1,1 h 56 c 0.551,0 1,-0.448 1,-1 v -33 H 3 Z m 2,-9 c 0,-1.103 0.897,-2 2,-2 h 16 c 1.103,0 2,0.897 2,2 v 2 h 23 v -2 h -7 c -1.103,0 -2,-0.897 -2,-2 v -2 H 14 v -8 H 7 c -1.103,0 -2,-0.897 -2,-2 v -6 c 0,-1.103 0.897,-2 2,-2 h 16 c 1.103,0 2,0.897 2,2 v 2 h 19.101 c 0.465,-2.279 2.484,-4 4.899,-4 2.757,0 5,2.243 5,5 0,2.414 -1.721,4.434 -4,4.899 v 2.101 h 7 c 1.103,0 2,0.897 2,2 v 6 c 0,1.103 -0.897,2 -2,2 h -7 v 4 H 25 v 2 c 0,1.103 -0.897,2 -2,2 H 7 c -1.103,0 -2,-0.897 -2,-2 z"
     fill="#000000"
     data-original="#000000"
     id="path7778" /><path
     d="m 52.43127,76.596854 c 0.0662,-0.382774 0.06999,-0.78904 0,-1.193708 l 0.322832,-0.374212 c 0.189817,-0.220359 0.219788,-0.537768 0.07422,-0.789811 l -0.389054,-0.674207 c -0.145575,-0.252044 -0.435581,-0.384773 -0.721307,-0.33054 l -0.486103,0.09248 c -0.309416,-0.258608 -0.65594,-0.458987 -1.033291,-0.59714 L 50.036149,72.263598 C 49.940247,71.98872 49.680206,71.80404 49.389343,71.80404 h -0.778678 c -0.290863,0 -0.550899,0.18468 -0.646806,0.459558 l -0.162415,0.466123 c -0.377352,0.138153 -0.723876,0.338532 -1.033292,0.59714 l -0.486103,-0.09248 c -0.285726,-0.05423 -0.575732,0.0785 -0.721307,0.33054 l -0.389054,0.674207 c -0.145574,0.252043 -0.115603,0.569452 0.07422,0.789811 l 0.322832,0.374212 c -0.06608,0.382004 -0.07013,0.788213 0,1.193708 l -0.322832,0.374212 c -0.189818,0.220359 -0.219789,0.537768 -0.07422,0.789811 l 0.389054,0.674208 c 0.145575,0.252043 0.435296,0.384773 0.721307,0.33054 l 0.486103,-0.09248 c 0.309416,0.258608 0.65594,0.458987 1.033292,0.59714 l 0.162415,0.466122 c 0.09591,0.274879 0.355943,0.459558 0.646806,0.459558 h 0.778678 c 0.290863,0 0.5509,-0.184679 0.646806,-0.459558 l 0.162416,-0.466122 c 0.377351,-0.138153 0.723875,-0.338532 1.033291,-0.59714 l 0.486103,0.09248 c 0.285726,0.05423 0.575732,-0.0785 0.721307,-0.33054 L 52.82832,77.760882 C 52.973894,77.508839 52.943923,77.19143 52.7541,76.971071 Z M 49,78.055136 c -1.133224,0 -2.055165,-0.921941 -2.055165,-2.055164 0,-1.133224 0.921941,-2.055165 2.055165,-2.055165 1.133224,0 2.055165,0.921941 2.055165,2.055165 0,1.133223 -0.921941,2.055164 -2.055165,2.055164 z"
     fill="#000000"
     data-original="#000000"
     id="path4138"
     style="fill:#3f51b5;stroke:#ffffff;stroke-width:1.875;stroke-miterlimit:4;stroke-dasharray:none;stroke-opacity:1" /><path
     style="color:#000000;font-style:normal;font-variant:normal;font-weight:normal;font-stretch:normal;font-size:medium;line-height:normal;font-family:sans-serif;font-variant-ligatures:normal;font-variant-position:normal;font-variant-caps:normal;font-variant-numeric:normal;font-variant-alternates:normal;font-variant-east-asian:normal;font-feature-settings:normal;font-variation-settings:normal;text-indent:0;text-align:start;text-decoration:none;text-decoration-line:none;text-decoration-style:solid;text-decoration-color:#000000;letter-spacing:normal;word-spacing:normal;text-transform:none;writing-mode:lr-tb;direction:ltr;text-orientation:mixed;dominant-baseline:auto;baseline-shift:baseline;text-anchor:start;white-space:normal;shape-padding:0;shape-margin:0;inline-size:0;clip-rule:nonzero;display:inline;overflow:visible;visibility:visible;isolation:auto;mix-blend-mode:normal;color-interpolation:sRGB;color-interpolation-filters:linearRGB;solid-color:#000000;solid-opacity:1;vector-effect:none;fill:#3f51b5;fill-opacity:1;fill-rule:nonzero;stroke:none;stroke-width:1.875;stroke-linecap:butt;stroke-linejoin:miter;stroke-miterlimit:4;stroke-dasharray:none;stroke-dashoffset:0;stroke-opacity:1;color-rendering:auto;image-rendering:auto;shape-rendering:auto;text-rendering:auto;enable-background:accumulate;stop-color:#000000"
     d="m 77.43127,26.596854 c 0.0662,-0.382774 0.06999,-0.78904 0,-1.193708 l 0.322832,-0.374212 c 0.189817,-0.220359 0.219788,-0.537768 0.07422,-0.789811 l -0.389054,-0.674207 c -0.145575,-0.252044 -0.435581,-0.384773 -0.721307,-0.33054 l -0.486103,0.09248 c -0.309416,-0.258608 -0.65594,-0.458987 -1.033291,-0.59714 L 75.036149,22.263598 C 74.940247,21.98872 74.680206,21.80404 74.389343,21.80404 h -0.778678 c -0.290863,0 -0.550899,0.18468 -0.646806,0.459558 l -0.162415,0.466123 c -0.377352,0.138153 -0.723876,0.338532 -1.033292,0.59714 l -0.486103,-0.09248 c -0.285726,-0.05423 -0.575732,0.0785 -0.721307,0.33054 l -0.389054,0.674207 c -0.145574,0.252043 -0.115603,0.569452 0.07422,0.789811 l 0.322832,0.374212 c -0.06608,0.382004 -0.07013,0.788213 0,1.193708 l -0.322832,0.374212 c -0.189818,0.220359 -0.219789,0.537768 -0.07422,0.789811 l 0.389054,0.674208 c 0.145575,0.252043 0.435296,0.384773 0.721307,0.33054 l 0.486103,-0.09248 c 0.309416,0.258608 0.65594,0.458987 1.033292,0.59714 l 0.162415,0.466122 c 0.09591,0.274879 0.355943,0.459558 0.646806,0.459558 h 0.778678 c 0.290863,0 0.5509,-0.184679 0.646806,-0.459558 l 0.162416,-0.466122 c 0.377351,-0.138153 0.723875,-0.338532 1.033291,-0.59714 l 0.486103,0.09248 c 0.285726,0.05423 0.575732,-0.0785 0.721307,-0.33054 L 77.82832,27.760882 C 77.973894,27.508839 77.943923,27.19143 77.7541,26.971071 Z M 74,28.055136 c -1.133224,0 -2.055165,-0.921941 -2.055165,-2.055164 0,-1.133224 0.921941,-2.055165 2.055165,-2.055165 1.133224,0 2.055165,0.921941 2.055165,2.055165 0,1.133223 -0.921941,2.055164 -2.055165,2.055164 z"
     id="path7784" /></svg>
