<svg xmlns="http://www.w3.org/2000/svg" version="1.1" xmlns:xlink="http://www.w3.org/1999/xlink" xmlns:svgjs="http://svgjs.com/svgjs" width="512" height="512" x="0" y="0" viewBox="0 0 64 64" style="enable-background:new 0 0 512 512" xml:space="preserve"><g><path xmlns="http://www.w3.org/2000/svg" d="m49 30v4h-8c-.55 0-1 .45-1 1v3h-25v-8h8c.55 0 1-.45 1-1v-3h21c0 2.21 1.79 4 4 4z" fill="#e6e9ed" data-original="#e6e9ed" style=""></path><path xmlns="http://www.w3.org/2000/svg" d="m62 18v34c0 1.1-.9 2-2 2h-56c-1.1 0-2-.9-2-2v-34z" fill="#e6e9ed" data-original="#e6e9ed" style=""></path><path xmlns="http://www.w3.org/2000/svg" d="m24 46v3c0 .55-.45 1-1 1h-16c-.55 0-1-.45-1-1v-6c0-.55.45-1 1-1h16c.55 0 1 .45 1 1z" fill="#4fc1e9" data-original="#4fc1e9" style=""></path><circle xmlns="http://www.w3.org/2000/svg" cx="49" cy="26" fill="#fcd770" r="4" data-original="#fcd770" style=""></circle><path xmlns="http://www.w3.org/2000/svg" d="m40 38v-3c0-.55.45-1 1-1h8 8c.55 0 1 .45 1 1v6c0 .55-.45 1-1 1h-8-8c-.55 0-1-.45-1-1z" fill="#ff826e" data-original="#ff826e" style=""></path><path xmlns="http://www.w3.org/2000/svg" d="m24 26v3c0 .55-.45 1-1 1h-8-8c-.55 0-1-.45-1-1v-6c0-.55.45-1 1-1h16c.55 0 1 .45 1 1z" fill="#ff826e" data-original="#ff826e" style=""></path><path xmlns="http://www.w3.org/2000/svg" d="m2 18v-6c0-1.1.9-2 2-2h56c1.1 0 2 .9 2 2v6z" fill="#b4dd7f" data-original="#b4dd7f" style=""></path><path xmlns="http://www.w3.org/2000/svg" d="m60 9h-56c-1.654 0-3 1.346-3 3v40c0 1.654 1.346 3 3 3h56c1.654 0 3-1.346 3-3v-40c0-1.654-1.346-3-3-3zm-56 2h56c.551 0 1 .448 1 1v5h-58v-5c0-.552.449-1 1-1zm56 42h-56c-.551 0-1-.448-1-1v-33h58v33c0 .552-.449 1-1 1z" fill="#000000" data-original="#000000" style=""></path><path xmlns="http://www.w3.org/2000/svg" d="m5 13h2v2h-2z" fill="#000000" data-original="#000000" style=""></path><path xmlns="http://www.w3.org/2000/svg" d="m9 13h2v2h-2z" fill="#000000" data-original="#000000" style=""></path><path xmlns="http://www.w3.org/2000/svg" d="m13 13h2v2h-2z" fill="#000000" data-original="#000000" style=""></path><path xmlns="http://www.w3.org/2000/svg" d="m57 33h-7v-2.101c2.279-.465 4-2.484 4-4.899 0-2.757-2.243-5-5-5-2.414 0-4.434 1.721-4.899 4h-19.101v-2c0-1.103-.897-2-2-2h-16c-1.103 0-2 .897-2 2v6c0 1.103.897 2 2 2h7v8h25v2c0 1.103.897 2 2 2h7v2h-23v-2c0-1.103-.897-2-2-2h-16c-1.103 0-2 .897-2 2v6c0 1.103.897 2 2 2h16c1.103 0 2-.897 2-2v-2h25v-4h7c1.103 0 2-.897 2-2v-6c0-1.103-.897-2-2-2zm-50 16v-6h16l.001 6zm42-26c1.654 0 3 1.346 3 3s-1.346 3-3 3-3-1.346-3-3 1.346-3 3-3zm-42 0h16l.001 6h-16.001zm32 12v2h-23v-6h7c1.103 0 2-.897 2-2v-2h19.101c.399 1.956 1.943 3.5 3.899 3.899v2.101h-7c-1.103 0-2 .897-2 2zm2 6v-6h16l.001 6z" fill="#000000" data-original="#000000" style=""></path><path xmlns="http://www.w3.org/2000/svg" d="m9 25h2v2h-2z" fill="#000000" data-original="#000000" style=""></path><path xmlns="http://www.w3.org/2000/svg" d="m13 25h8v2h-8z" fill="#000000" data-original="#000000" style=""></path><path xmlns="http://www.w3.org/2000/svg" d="m9 45h12v2h-12z" fill="#000000" data-original="#000000" style=""></path><path xmlns="http://www.w3.org/2000/svg" d="m53 37h2v2h-2z" fill="#000000" data-original="#000000" style=""></path><path xmlns="http://www.w3.org/2000/svg" d="m43 37h8v2h-8z" fill="#000000" data-original="#000000" style=""></path></g></svg>