<svg xmlns="http://www.w3.org/2000/svg" version="1.1" xmlns:xlink="http://www.w3.org/1999/xlink" xmlns:svgjs="http://svgjs.com/svgjs" width="512" height="512" x="0" y="0" viewBox="0 0 64 64" style="enable-background:new 0 0 512 512" xml:space="preserve" class=""><g><path xmlns="http://www.w3.org/2000/svg" d="m54 26c0-2.757-2.243-5-5-5-2.414 0-4.434 1.721-4.899 4h-20.101v2h20.101c.399 1.956 1.943 3.5 3.899 3.899v3.101h2v-3.101c2.279-.465 4-2.485 4-4.899zm-5 3c-1.654 0-3-1.346-3-3s1.346-3 3-3 3 1.346 3 3-1.346 3-3 3z" fill="#000000" data-original="#000000" style=""></path><path xmlns="http://www.w3.org/2000/svg" d="m50 47h-26v-2h24v-3h2z" fill="#000000" data-original="#000000" style=""></path><path xmlns="http://www.w3.org/2000/svg" d="m40 39h-26v-9h2v7h24z" fill="#000000" data-original="#000000" style=""></path><path xmlns="http://www.w3.org/2000/svg" d="m15 15h-2v-2h2zm-4 0h-2v-2h2zm-4 0h-2v-2h2z" fill="#000000" data-original="#000000" style=""></path><path xmlns="http://www.w3.org/2000/svg" d="m60 9h-56c-1.654 0-3 1.346-3 3v40c0 1.654 1.346 3 3 3h56c1.654 0 3-1.346 3-3v-40c0-1.654-1.346-3-3-3zm-56 2h56c.551 0 1 .448 1 1v5h-58v-5c0-.552.449-1 1-1zm56 42h-56c-.551 0-1-.448-1-1v-33h58v33c0 .552-.449 1-1 1z" fill="#000000" data-original="#000000" style=""></path><g xmlns="http://www.w3.org/2000/svg" fill="#f0bc5e"><path d="m23 21h-16c-1.103 0-2 .897-2 2v6c0 1.103.897 2 2 2h16c1.103 0 2-.897 2-2v-6c0-1.103-.897-2-2-2z" fill="#f0bc5e" data-original="#f0bc5e" style=""></path><path d="m23 41h-16c-1.103 0-2 .897-2 2v6c0 1.103.897 2 2 2h16c1.103 0 2-.897 2-2v-6c0-1.103-.897-2-2-2z" fill="#f0bc5e" data-original="#f0bc5e" style=""></path><path d="m57 33h-16c-1.103 0-2 .897-2 2v6c0 1.103.897 2 2 2h16c1.103 0 2-.897 2-2v-6c0-1.103-.897-2-2-2z" fill="#f0bc5e" data-original="#f0bc5e" style=""></path></g><path xmlns="http://www.w3.org/2000/svg" d="m9 25h2v2h-2z" fill="#000000" data-original="#000000" style=""></path><path xmlns="http://www.w3.org/2000/svg" d="m13 25h8v2h-8z" fill="#000000" data-original="#000000" style=""></path><path xmlns="http://www.w3.org/2000/svg" d="m9 45h12v2h-12z" fill="#000000" data-original="#000000" style=""></path><path xmlns="http://www.w3.org/2000/svg" d="m53 37h2v2h-2z" fill="#000000" data-original="#000000" style=""></path><path xmlns="http://www.w3.org/2000/svg" d="m43 37h8v2h-8z" fill="#000000" data-original="#000000" style=""></path></g></svg>