<svg xmlns="http://www.w3.org/2000/svg" version="1.1" xmlns:xlink="http://www.w3.org/1999/xlink" xmlns:svgjs="http://svgjs.com/svgjs" width="512" height="512" x="0" y="0" viewBox="0 0 64 64" style="enable-background:new 0 0 512 512" xml:space="preserve"><g><path xmlns="http://www.w3.org/2000/svg" d="m48 33v-2.101c-1.956-.399-3.5-1.943-3.899-3.899h-19.101v2c0 1.103-.897 2-2 2h-7v6h23v-2c0-1.103.897-2 2-2z" fill="#000000" data-original="#000000" style=""></path><circle xmlns="http://www.w3.org/2000/svg" cx="49" cy="26" r="3" fill="#000000" data-original="#000000" style=""></circle><path xmlns="http://www.w3.org/2000/svg" d="m23 23h-16v6h16.001zm-12 4h-2v-2h2zm10 0h-8v-2h8z" fill="#000000" data-original="#000000" style=""></path><path xmlns="http://www.w3.org/2000/svg" d="m57 35h-16v6h16.001zm-6 4h-8v-2h8zm4 0h-2v-2h2z" fill="#000000" data-original="#000000" style=""></path><path xmlns="http://www.w3.org/2000/svg" d="m23 43h-16v6h16.001zm-2 4h-12v-2h12z" fill="#000000" data-original="#000000" style=""></path><path xmlns="http://www.w3.org/2000/svg" d="m3 52c0 .552.449 1 1 1h56c.551 0 1-.448 1-1v-33h-58zm2-9c0-1.103.897-2 2-2h16c1.103 0 2 .897 2 2v2h23v-2h-7c-1.103 0-2-.897-2-2v-2h-25v-8h-7c-1.103 0-2-.897-2-2v-6c0-1.103.897-2 2-2h16c1.103 0 2 .897 2 2v2h19.101c.465-2.279 2.484-4 4.899-4 2.757 0 5 2.243 5 5 0 2.414-1.721 4.434-4 4.899v2.101h7c1.103 0 2 .897 2 2v6c0 1.103-.897 2-2 2h-7v4h-25v2c0 1.103-.897 2-2 2h-16c-1.103 0-2-.897-2-2z" fill="#000000" data-original="#000000" style=""></path><path xmlns="http://www.w3.org/2000/svg" d="m60 11h-56c-.551 0-1 .448-1 1v5h58v-5c0-.552-.449-1-1-1zm-53 4h-2v-2h2zm4 0h-2v-2h2zm4 0h-2v-2h2z" fill="#000000" data-original="#000000" style=""></path></g></svg>