<?xml version="1.0" encoding="UTF-8" standalone="no"?>
<svg
   xmlns:dc="http://purl.org/dc/elements/1.1/"
   xmlns:cc="http://creativecommons.org/ns#"
   xmlns:rdf="http://www.w3.org/1999/02/22-rdf-syntax-ns#"
   xmlns:svg="http://www.w3.org/2000/svg"
   xmlns="http://www.w3.org/2000/svg"
   xmlns:sodipodi="http://sodipodi.sourceforge.net/DTD/sodipodi-0.dtd"
   xmlns:inkscape="http://www.inkscape.org/namespaces/inkscape"
   aria-hidden="true"
   focusable="false"
   data-prefix="fad"
   data-icon="comments-alt"
   role="img"
   viewBox="0 0 576 512"
   class="svg-inline--fa fa-comments-alt fa-w-18 fa-9x"
   version="1.1"
   id="svg856"
   sodipodi:docname="fa_comments_alt_v2.svg"
   inkscape:version="1.0.2 (e86c8708, 2021-01-15)">
  <metadata
     id="metadata862">
    <rdf:RDF>
      <cc:Work
         rdf:about="">
        <dc:format>image/svg+xml</dc:format>
        <dc:type
           rdf:resource="http://purl.org/dc/dcmitype/StillImage" />
        <dc:title></dc:title>
      </cc:Work>
    </rdf:RDF>
  </metadata>
  <defs
     id="defs860" />
  <sodipodi:namedview
     pagecolor="#ffffff"
     bordercolor="#666666"
     borderopacity="1"
     objecttolerance="10"
     gridtolerance="10"
     guidetolerance="10"
     inkscape:pageopacity="0"
     inkscape:pageshadow="2"
     inkscape:window-width="2359"
     inkscape:window-height="1501"
     id="namedview858"
     showgrid="false"
     inkscape:zoom="0.27452098"
     inkscape:cx="74.052071"
     inkscape:cy="597.09496"
     inkscape:window-x="2684"
     inkscape:window-y="278"
     inkscape:window-maximized="0"
     inkscape:current-layer="svg856" />
  <g
     id="g885"
     transform="translate(0,-597.41676)">
    <path
       id="path870"
       style="fill:#000000;fill-opacity:1"
       d="m 512,757.38666 c -35.33251,0.0331 -63.96692,28.66749 -64,64 -0.0826,52.98509 -43.01491,95.9174 -96,96 h -96 c -35.33251,0.0331 -63.96692,28.66749 -64,64 0.0331,35.33254 28.66749,63.96694 64,64.00004 H 381.69921 L 464.5,1107.4863 c 6.40695,4.7795 15.5207,0.1944 15.5,-7.7989 v -54.3007 h 32 c 35.33251,-0.033 63.9669,-28.6675 64,-64.00004 v -160 c -0.0331,-35.33251 -28.66749,-63.9669 -64,-64 z" />
    <path
       fill="currentColor"
       d="M 352,885.30424 H 162.3 l -82.8,62.1 a 9.7,9.7 0 0 1 -15.5,-7.8 v -54.2 a 64.06,64.06 0 0 1 -64,-64 v -160 a 64.06,64.06 0 0 1 64,-64 h 288 a 64.06,64.06 0 0 1 64,64 v 160 a 63.91,63.91 0 0 1 -64,63.9 z"
       class="fa-secondary"
       id="path881"
       style="fill:#000000;fill-opacity:1" />
  </g>
</svg>
