<svg xmlns="http://www.w3.org/2000/svg" version="1.1" xmlns:xlink="http://www.w3.org/1999/xlink" xmlns:svgjs="http://svgjs.com/svgjs" width="512" height="512" x="0" y="0" viewBox="0 0 64 64" style="enable-background:new 0 0 512 512" xml:space="preserve"><g><g xmlns="http://www.w3.org/2000/svg" id="Layer_25" data-name="Layer 25"><path d="m47 35v-6l-2.468-.411a12.89 12.89 0 0 0 -1.256-3.041l1.452-2.033-4.243-4.243-2.033 1.452a12.89 12.89 0 0 0 -3.041-1.256l-.411-2.468h-6l-.411 2.468a12.89 12.89 0 0 0 -3.041 1.256l-2.033-1.452-4.243 4.243 1.452 2.033a12.89 12.89 0 0 0 -1.256 3.041l-2.468.411v6l2.468.411a12.89 12.89 0 0 0 1.256 3.041l-1.452 2.033 4.243 4.243 2.033-1.452a12.89 12.89 0 0 0 3.041 1.256l.411 2.468h6l.411-2.468a12.89 12.89 0 0 0 3.041-1.256l2.033 1.452 4.243-4.243-1.452-2.033a12.89 12.89 0 0 0 1.256-3.041z" fill="#78a0d4" data-original="#78a0d4" style=""></path><circle cx="32" cy="32" fill="#ffffff" r="8" data-original="#ffffff" style=""></circle><path d="m36 38.93a8.012 8.012 0 0 1 -8 0v-.93a4 4 0 0 1 4-4 4 4 0 0 1 4 4z" fill="#3b5892" data-original="#3b5892" style=""></path><path d="m58.814 35.186a27 27 0 0 1 -26.814 23.814v3l-6-6 6-6v3a21 21 0 0 0 20.813-18.187l3.187 3.187z" fill="#4d8c28" data-original="#4d8c28" style=""></path><path d="m28.814 58.814a27 27 0 0 1 -23.814-26.814h-3l6-6 6 6h-3a21 21 0 0 0 18.187 20.813l-3.187 3.187z" fill="#559b2d" data-original="#559b2d" style=""></path><path d="m11.187 29.187a21 21 0 0 1 20.813-18.187v3l6-6-6-6v3a27 27 0 0 0 -26.814 23.814l2.814-2.814z" fill="#6bc13b" data-original="#6bc13b" style=""></path><path d="m34.813 11.187 3.187-3.187-2.814-2.814a27 27 0 0 1 23.814 26.814h3l-6 6-6-6h3a21 21 0 0 0 -18.187-20.813z" fill="#7bdf45" data-original="#7bdf45" style=""></path><circle cx="32" cy="31" fill="#fbe1ca" r="3" data-original="#fbe1ca" style=""></circle></g></g></svg>