<?xml version="1.0" encoding="UTF-8" standalone="no"?>
<svg
   version="1.1"
   width="512"
   height="512"
   x="0"
   y="0"
   viewBox="0 0 64 64"
   style="enable-background:new 0 0 512 512"
   xml:space="preserve"
   id="svg875"
   sodipodi:docname="process_loop_01_v2.2.svg"
   inkscape:version="1.1 (c4e8f9e, 2021-05-24)"
   xmlns:inkscape="http://www.inkscape.org/namespaces/inkscape"
   xmlns:sodipodi="http://sodipodi.sourceforge.net/DTD/sodipodi-0.dtd"
   xmlns="http://www.w3.org/2000/svg"
   xmlns:svg="http://www.w3.org/2000/svg"
   xmlns:rdf="http://www.w3.org/1999/02/22-rdf-syntax-ns#"
   xmlns:cc="http://creativecommons.org/ns#"
   xmlns:dc="http://purl.org/dc/elements/1.1/"><metadata
     id="metadata881"><rdf:RDF><cc:Work
         rdf:about=""><dc:format>image/svg+xml</dc:format><dc:type
           rdf:resource="http://purl.org/dc/dcmitype/StillImage" /></cc:Work></rdf:RDF></metadata><defs
     id="defs879"><marker
       style="overflow:visible"
       id="marker3263"
       refX="0.0"
       refY="0.0"
       orient="auto"
       inkscape:stockid="TriangleOutS"
       inkscape:isstock="true"><path
         transform="scale(0.2)"
         style="fill-rule:evenodd;stroke:#000000;stroke-width:1pt;stroke-opacity:1;fill:#000000;fill-opacity:1"
         d="M 5.77,0.0 L -2.88,5.0 L -2.88,-5.0 L 5.77,0.0 z "
         id="path3261" /></marker><marker
       style="overflow:visible"
       id="marker3175"
       refX="0.0"
       refY="0.0"
       orient="auto"
       inkscape:stockid="TriangleOutS"
       inkscape:isstock="true"><path
         transform="scale(0.2)"
         style="fill-rule:evenodd;stroke:#000000;stroke-width:1pt;stroke-opacity:1;fill:#000000;fill-opacity:1"
         d="M 5.77,0.0 L -2.88,5.0 L -2.88,-5.0 L 5.77,0.0 z "
         id="path3173" /></marker><marker
       style="overflow:visible"
       id="TriangleOutM"
       refX="0.0"
       refY="0.0"
       orient="auto"
       inkscape:stockid="TriangleOutM"
       inkscape:isstock="true"><path
         transform="scale(0.4)"
         style="fill-rule:evenodd;stroke:#000000;stroke-width:1pt;stroke-opacity:1;fill:#000000;fill-opacity:1"
         d="M 5.77,0.0 L -2.88,5.0 L -2.88,-5.0 L 5.77,0.0 z "
         id="path2353" /></marker><marker
       style="overflow:visible"
       id="TriangleOutL"
       refX="0.0"
       refY="0.0"
       orient="auto"
       inkscape:stockid="TriangleOutL"
       inkscape:isstock="true"><path
         transform="scale(0.8)"
         style="fill-rule:evenodd;stroke:#000000;stroke-width:1pt;stroke-opacity:1;fill:#2196f3;fill-opacity:1"
         d="M 5.77,0.0 L -2.88,5.0 L -2.88,-5.0 L 5.77,0.0 z "
         id="path2350" /></marker><marker
       style="overflow:visible"
       id="TriangleOutS-5"
       refX="0"
       refY="0"
       orient="auto"
       inkscape:stockid="TriangleOutS"
       inkscape:isstock="true"><path
         transform="scale(0.2)"
         style="fill:#000000;fill-opacity:1;fill-rule:evenodd;stroke:#000000;stroke-width:1pt;stroke-opacity:1"
         d="M 5.77,0 -2.88,5 V -5 Z"
         id="path2356-5" /></marker><marker
       style="overflow:visible"
       id="marker2994-3"
       refX="0"
       refY="0"
       orient="auto"
       inkscape:stockid="TriangleOutS"
       inkscape:isstock="true"><path
         transform="scale(0.2)"
         style="fill:#000000;fill-opacity:1;fill-rule:evenodd;stroke:#000000;stroke-width:1pt;stroke-opacity:1"
         d="M 5.77,0 -2.88,5 V -5 Z"
         id="path2992-3" /></marker><marker
       style="overflow:visible"
       id="marker2994-5"
       refX="0"
       refY="0"
       orient="auto"
       inkscape:stockid="TriangleOutS"
       inkscape:isstock="true"><path
         transform="scale(0.2)"
         style="fill:#000000;fill-opacity:1;fill-rule:evenodd;stroke:#000000;stroke-width:1pt;stroke-opacity:1"
         d="M 5.77,0 -2.88,5 V -5 Z"
         id="path2992-4" /></marker><marker
       style="overflow:visible"
       id="marker3263-1"
       refX="0"
       refY="0"
       orient="auto"
       inkscape:stockid="TriangleOutS"
       inkscape:isstock="true"><path
         transform="scale(0.2)"
         style="fill:#000000;fill-opacity:1;fill-rule:evenodd;stroke:#000000;stroke-width:1pt;stroke-opacity:1"
         d="M 5.77,0 -2.88,5 V -5 Z"
         id="path3261-3" /></marker><marker
       style="overflow:visible"
       id="marker3263-6"
       refX="0"
       refY="0"
       orient="auto"
       inkscape:stockid="TriangleOutS"
       inkscape:isstock="true"><path
         transform="scale(0.2)"
         style="fill:#000000;fill-opacity:1;fill-rule:evenodd;stroke:#000000;stroke-width:1pt;stroke-opacity:1"
         d="M 5.77,0 -2.88,5 V -5 Z"
         id="path3261-4" /></marker><marker
       style="overflow:visible"
       id="marker3263-63"
       refX="0"
       refY="0"
       orient="auto"
       inkscape:stockid="TriangleOutS"
       inkscape:isstock="true"><path
         transform="scale(0.2)"
         style="fill:#000000;fill-opacity:1;fill-rule:evenodd;stroke:#000000;stroke-width:1pt;stroke-opacity:1"
         d="M 5.77,0 -2.88,5 V -5 Z"
         id="path3261-45" /></marker></defs><sodipodi:namedview
     pagecolor="#ffffff"
     bordercolor="#666666"
     borderopacity="1"
     objecttolerance="10"
     gridtolerance="10"
     guidetolerance="10"
     inkscape:pageopacity="0"
     inkscape:pageshadow="2"
     inkscape:window-width="1967"
     inkscape:window-height="1543"
     id="namedview877"
     showgrid="false"
     inkscape:zoom="1"
     inkscape:cx="-48"
     inkscape:cy="297.5"
     inkscape:window-x="3062"
     inkscape:window-y="172"
     inkscape:window-maximized="0"
     inkscape:current-layer="svg875"
     inkscape:pagecheckerboard="0"
     inkscape:snap-global="false" /><g
     id="g21204"><path
       id="path2974"
       style="color:#000000;fill:#000000;fill-opacity:1;stroke-width:0.139061;stroke-linecap:round;stroke-linejoin:round;-inkscape-stroke:none;stroke:none"
       d="m 5.3283179,26.017393 c -0.1205921,-5.57e-4 -0.2429266,0.01975 -0.3617748,0.06301 -0.2302831,0.08371 -0.4237444,0.245833 -0.5464655,0.457923 l -4.28046246,7.404982 c -0.40187155,0.695366 0.0999513,1.56496 0.90307976,1.564977 H 2.7806826 C 4.4321119,49.324842 15.662,60.239185 29.624288,61.360812 l -3.084051,-1.782801 c -0.694767,-0.401685 -0.694618,-1.40469 2.78e-4,-1.806161 l 3.401827,-1.965318 C 18.853,54.865551 9.983759,46.390034 8.3862949,35.508286 H 9.6036198 C 10.406765,35.50828 10.908572,34.63868 10.5067,33.943309 L 6.2262371,26.538327 C 6.0362732,26.209879 5.6900954,26.019209 5.3283179,26.017393 Z" /><path
       id="path2982"
       style="color:#000000;fill:#000000;fill-opacity:1;stroke-width:0.139061;stroke-linecap:round;stroke-linejoin:round;-inkscape-stroke:none;stroke:none"
       d="M 55.808171,34.059827 C 54.866315,45.147998 46.391337,54.01472 35.510196,55.611792 v -1.215151 c -1.3e-4,-0.802934 -0.869398,-1.304636 -1.564705,-0.90308 l -7.404983,4.278289 c -0.694889,0.401471 -0.695038,1.404476 -2.78e-4,1.806161 l 7.404983,4.280462 c 0.695368,0.401869 1.564968,-0.09994 1.564976,-0.903079 V 61.217406 C 49.326657,59.566249 60.241056,48.338056 61.362716,34.375973 l -1.782802,3.084051 c -0.401574,0.694829 -1.404587,0.694829 -1.806161,0 z" /><path
       id="path2958"
       style="color:#000000;fill:#000000;fill-opacity:1;stroke-width:0.139061;stroke-linecap:round;stroke-linejoin:round;-inkscape-stroke:none;stroke:none"
       d="m 34.375982,2.6375385 3.08378,1.7830734 c 0.694451,0.4017452 0.694308,1.4043563 -2.78e-4,1.805888 l -3.40074,1.9653188 C 45.148259,9.1324485 54.016485,17.60798 55.613697,28.490064 h -1.217324 c -0.803136,10e-6 -1.304943,0.869611 -0.903079,1.564977 l 4.280461,7.404983 c 0.401574,0.694829 1.404587,0.694829 1.806161,0 l 4.280462,-7.404983 c 0.401863,-0.695366 -0.0999,-1.564967 -0.90308,-1.564977 H 61.219316 C 59.568081,14.672973 48.338944,3.7583643 34.375982,2.6375385 Z" /><path
       id="path8923"
       style="color:#000000;fill:#000000;fill-opacity:1;stroke:none;stroke-width:0.139061;stroke-linecap:round;stroke-linejoin:round;-inkscape-stroke:none"
       d="M 29.536229,2.2317582e-6 C 29.475621,-7.8645952e-5 29.414641,0.00514192 29.354256,0.01575503 28.855595,0.10347898 28.491961,0.53664319 28.491917,1.0429574 V 2.7809449 C 14.675206,4.4320961 3.7590581,15.660225 2.637213,29.622378 l 1.7828006,-3.084051 c 0.1227206,-0.212089 0.3161829,-0.374209 0.5464664,-0.457923 0.4754074,-0.173044 1.0064102,0.01999 1.2596964,0.457923 l 1.9655954,3.400197 C 9.1337969,18.850343 17.610349,9.9835367 28.491917,8.3865579 v 1.2151525 c 1.33e-4,0.8029306 0.86939,1.3046316 1.564704,0.9030796 L 37.459432,6.2265 c 0.69458,-0.4015317 0.694729,-1.4041426 2.78e-4,-1.805888 L 30.056898,0.1401494 C 29.897669,0.04806484 29.718061,2.4508739e-4 29.536236,2.2317582e-6 Z" /><path
       id="path9259"
       style="fill:#000000;fill-opacity:1;stroke:none;stroke-width:0.144334"
       d="m 30.451552,15.312715 c -1.156757,0 -2.190953,0.734403 -2.572378,1.82759 l -0.645862,1.853817 c -1.500722,0.549434 -2.878893,1.346305 -4.109438,2.374786 l -1.933261,-0.367809 c -1.136326,-0.215685 -2.289563,0.312271 -2.86851,1.314643 l -1.547373,2.681231 c -0.578945,1.002373 -0.45966,2.26472 0.295242,3.141088 l 1.283833,1.488299 c -0.262797,1.519223 -0.278915,3.134631 0,4.74728 l -1.283833,1.488299 c -0.754902,0.876366 -0.874187,2.138716 -0.295242,3.141089 l 1.547373,2.68123 c 0.578947,1.002372 1.73105,1.530328 2.86851,1.314644 l 1.933261,-0.36781 c 1.230545,1.02848 2.608716,1.825354 4.109438,2.374785 l 0.645862,1.85369 c 0.381425,1.093188 1.415621,1.827719 2.572378,1.827719 h 3.096784 c 1.156757,0 2.190951,-0.734531 2.572376,-1.827719 l 0.645864,-1.85369 c 1.500718,-0.549431 2.878892,-1.346305 4.109439,-2.374785 l 1.933258,0.36781 c 1.136326,0.215684 2.289563,-0.312272 2.868509,-1.314644 l 1.547375,-2.68123 c 0.57895,-1.002373 0.459661,-2.264723 -0.29524,-3.141089 L 45.64608,34.37364 c 0.263253,-1.522288 0.27835,-3.137922 0,-4.74728 l 1.283837,-1.488299 c 0.754901,-0.876368 0.87419,-2.138715 0.29524,-3.141088 L 45.677782,22.315742 C 45.098836,21.31337 43.945599,20.785414 42.809273,21.001099 l -1.933258,0.367809 c -1.230547,-1.028481 -2.608721,-1.825352 -4.109439,-2.374786 l -0.645864,-1.853817 c -0.381425,-1.093187 -1.415619,-1.82759 -2.572376,-1.82759 z m 1.548392,7.066938 A 9.6203505,9.6203505 0 0 1 41.620288,32 9.6203505,9.6203505 0 0 1 31.999944,41.620346 9.6203505,9.6203505 0 0 1 22.379597,32 9.6203505,9.6203505 0 0 1 31.999944,22.379653 Z" /><circle
       style="fill:#000000;fill-opacity:1;stroke:none;stroke-width:1.30149;stroke-linecap:round;stroke-linejoin:round;paint-order:stroke markers fill"
       id="circle9261"
       cx="31.993963"
       cy="28.662554"
       r="3.3374691" /><path
       id="path9263"
       style="fill:#000000;fill-opacity:1;stroke:none;stroke-width:0.0296348"
       d="m 36.293944,38.674914 c 0.789953,-1e-6 1.43034,-0.640388 1.43034,-1.430341 v -0.858194 c -8.3e-4,-1.896712 -1.53907,-3.433596 -3.435782,-3.432772 h -0.24738 c -0.622792,0.297987 -1.308162,0.476761 -2.041211,0.476761 -0.733049,0 -1.418418,-0.178774 -2.041211,-0.476761 h -0.247323 c -1.896712,-8.24e-4 -3.434958,1.53606 -3.435782,3.432772 v 0.858194 c 0,0.789953 0.640387,1.43034 1.43034,1.430341 z"
       sodipodi:nodetypes="cscccscccscc" /></g></svg>
