<svg xmlns="http://www.w3.org/2000/svg" version="1.1" xmlns:xlink="http://www.w3.org/1999/xlink" xmlns:svgjs="http://svgjs.com/svgjs" width="512" height="512" x="0" y="0" viewBox="0 0 64 64" style="enable-background:new 0 0 512 512" xml:space="preserve"><g><g xmlns="http://www.w3.org/2000/svg" id="Layer_25" data-name="Layer 25"><circle cx="32" cy="31" r="2" fill="#000000" data-original="#000000" style=""></circle><path d="M32,25a6.994,6.994,0,0,0-4.9,11.992,5.014,5.014,0,0,1,2.1-3.137,4,4,0,1,1,5.588,0,5.014,5.014,0,0,1,2.1,3.137A6.994,6.994,0,0,0,32,25Z" fill="#000000" data-original="#000000" style=""></path><path d="M36.869,10.545A22.071,22.071,0,0,1,54,32a1,1,0,0,1-1,1h-.586L56,36.586,59.586,33H59a1,1,0,0,1-1-1A25.992,25.992,0,0,0,38.151,6.737l.556.556a1,1,0,0,1,0,1.414Z" fill="#000000" data-original="#000000" style=""></path><path d="M32,35a3,3,0,0,0-3,3v.315a6.912,6.912,0,0,0,6,0V38A3,3,0,0,0,32,35Z" fill="#000000" data-original="#000000" style=""></path><path d="M43.567,28.851a11.847,11.847,0,0,0-1.159-2.8,1,1,0,0,1,.054-1.079l.96-1.344-3.045-3.045-1.344.96a1,1,0,0,1-1.079.054,11.847,11.847,0,0,0-2.8-1.159,1,1,0,0,1-.724-.8L34.152,18h-4.3l-.273,1.632a1,1,0,0,1-.724.8,11.847,11.847,0,0,0-2.8,1.159,1,1,0,0,1-1.079-.054l-1.344-.96-3.045,3.045.96,1.344a1,1,0,0,1,.054,1.079,11.847,11.847,0,0,0-1.159,2.805,1,1,0,0,1-.8.724L18,29.848v4.3l1.632.273a1,1,0,0,1,.8.724,11.847,11.847,0,0,0,1.159,2.805,1,1,0,0,1-.054,1.079l-.96,1.344,3.045,3.045,1.344-.96a1,1,0,0,1,1.079-.054,11.847,11.847,0,0,0,2.805,1.159,1,1,0,0,1,.724.8L29.848,46h4.3l.273-1.632a1,1,0,0,1,.724-.8,11.847,11.847,0,0,0,2.805-1.159,1,1,0,0,1,1.079.054l1.344.96,3.045-3.045-.96-1.344a1,1,0,0,1-.054-1.079,11.847,11.847,0,0,0,1.159-2.8,1,1,0,0,1,.8-.724L46,34.152v-4.3l-1.632-.273A1,1,0,0,1,43.567,28.851ZM32,41a9,9,0,1,1,9-9A9.01,9.01,0,0,1,32,41Z" fill="#000000" data-original="#000000" style=""></path><path d="M27.131,53.455A22.071,22.071,0,0,1,10,32a1,1,0,0,1,1-1h.586L8,27.414,4.414,31H5a1,1,0,0,1,1,1A26,26,0,0,0,25.849,57.263l-.556-.556a1,1,0,0,1,0-1.414Z" fill="#000000" data-original="#000000" style=""></path><path d="M8.707,25.293l1.838,1.838A22.071,22.071,0,0,1,32,10a1,1,0,0,1,1,1v.586L36.586,8,33,4.414V5a1,1,0,0,1-1,1A26,26,0,0,0,6.737,25.849l.556-.556A1,1,0,0,1,8.707,25.293Z" fill="#000000" data-original="#000000" style=""></path><path d="M56,39a1,1,0,0,1-.707-.293l-1.838-1.838A22.071,22.071,0,0,1,32,54a1,1,0,0,1-1-1v-.586L27.414,56,31,59.586V59a1,1,0,0,1,1-1A26,26,0,0,0,57.263,38.151l-.556.556A1,1,0,0,1,56,39Z" fill="#000000" data-original="#000000" style=""></path><path d="M50,31h1.975A20.047,20.047,0,0,0,35.152,12.263l-2.445,2.444A1,1,0,0,1,31,14V12.025A20.047,20.047,0,0,0,12.263,28.848l2.444,2.445A1,1,0,0,1,14,33H12.025A20.047,20.047,0,0,0,28.848,51.737l2.445-2.444A1,1,0,0,1,33,50v1.975A20.047,20.047,0,0,0,51.737,35.152l-2.444-2.445A1,1,0,0,1,50,31Zm-2,4a1,1,0,0,1-.836.986l-1.851.309a13.79,13.79,0,0,1-.861,2.085L45.541,39.9a1,1,0,0,1-.106,1.288l-4.243,4.243a1,1,0,0,1-1.288.106L38.38,44.452a13.79,13.79,0,0,1-2.085.861l-.309,1.851A1,1,0,0,1,35,48H29a1,1,0,0,1-.986-.836l-.309-1.851a13.79,13.79,0,0,1-2.085-.861L24.1,45.541a1,1,0,0,1-1.288-.106l-4.243-4.243a1,1,0,0,1-.106-1.288l1.089-1.524a13.79,13.79,0,0,1-.861-2.085l-1.851-.309A1,1,0,0,1,16,35V29a1,1,0,0,1,.836-.986l1.851-.309a13.79,13.79,0,0,1,.861-2.085L18.459,24.1a1,1,0,0,1,.106-1.288l4.243-4.243a1,1,0,0,1,1.288-.106l1.524,1.089a13.79,13.79,0,0,1,2.085-.861l.309-1.851A1,1,0,0,1,29,16h6a1,1,0,0,1,.986.836l.309,1.851a13.79,13.79,0,0,1,2.085.861L39.9,18.459a1,1,0,0,1,1.288.106l4.243,4.243a1,1,0,0,1,.106,1.288L44.452,25.62a13.79,13.79,0,0,1,.861,2.085l1.851.309A1,1,0,0,1,48,29Z" fill="#000000" data-original="#000000" style=""></path></g></g></svg>