<svg xmlns="http://www.w3.org/2000/svg" version="1.1" xmlns:xlink="http://www.w3.org/1999/xlink" xmlns:svgjs="http://svgjs.com/svgjs" width="512" height="512" x="0" y="0" viewBox="0 0 480 480" style="enable-background:new 0 0 512 512" xml:space="preserve"><g><path xmlns="http://www.w3.org/2000/svg" d="m367.2 182.31c3.4 5.89 2.7 13.29-1.74 18.45l-13.83 16.03c3.16 15.27 3.161 31.145 0 46.42l13.83 16.03c4.44 5.16 5.14 12.56 1.74 18.45l-13.64 23.62c-3.4 5.89-10.16 8.99-16.85 7.72l-20.83-3.96c-11.52 10.29-25.15 18.27-40.17 23.22l-6.97 19.98c-2.24 6.43-8.3 10.73-15.1 10.73h-27.28c-6.8 0-12.86-4.3-15.1-10.73l-6.97-19.98c-15.02-4.95-28.65-12.93-40.17-23.22l-20.83 3.96c-6.69 1.27-13.45-1.83-16.85-7.72l-13.64-23.62c-3.4-5.89-2.7-13.29 1.74-18.45l13.83-16.03c-3.16-15.27-3.161-31.145 0-46.42l-13.83-16.03c-4.44-5.16-5.14-12.56-1.74-18.45l13.64-23.62c3.4-5.89 10.16-8.99 16.85-7.72l20.83 3.96c11.52-10.29 25.15-18.27 40.17-23.22l6.97-19.98c2.24-6.43 8.3-10.73 15.1-10.73h27.28c6.8 0 12.86 4.299 15.1 10.729l6.97 19.981c15.02 4.95 28.65 12.93 40.17 23.22l20.83-3.96c6.69-1.27 13.45 1.83 16.85 7.72zm-63.2 57.69c0-35.35-28.65-64-64-64s-64 28.65-64 64 28.65 64 64 64 64-28.65 64-64z" fill="#cbe3fa" data-original="#cbe3fa" style=""></path><path xmlns="http://www.w3.org/2000/svg" d="m268.74 111.729c1.58 4.534-1.786 9.271-6.588 9.271h-5.792c-6.8 0-12.86 4.3-15.1 10.73l-3.023 8.665c-2.337 6.698-7.496 12.067-14.143 14.547-47.469 17.715-76.238 63.966-67.885 117.856 1.077 6.951-.95 14.018-5.545 19.344l-6.124 7.098c-4.44 5.16-5.141 12.56-1.74 18.45 3.43 5.94-2.581 12.94-8.933 10.353-2.732-1.113-5.365-3.162-7.427-6.733l-13.64-23.62c-3.4-5.89-2.7-13.29 1.74-18.45l13.83-16.03c-3.16-15.27-3.161-31.145 0-46.42l-13.83-16.03c-4.44-5.16-5.14-12.56-1.74-18.45l13.64-23.62c3.4-5.89 10.16-8.99 16.85-7.72l20.83 3.96c11.52-10.29 25.15-18.27 40.17-23.22l6.97-19.98c2.24-6.43 8.3-10.73 15.1-10.73h27.28c6.775 0 12.854 4.284 15.1 10.729z" fill="#eef7ff" data-original="#eef7ff" style=""></path><path xmlns="http://www.w3.org/2000/svg" d="m350.329 174.085-.692.131c-2.328.442-4.735-.178-6.542-1.711-3.01-2.553-6.153-5.002-9.417-7.306-5.714-4.033-3.838-12.925 3.033-14.23 6.69-1.27 13.45 1.83 16.85 7.72l2.132 3.693c2.716 4.708-.025 10.689-5.364 11.703z" fill="#eef7ff" data-original="#eef7ff" style=""></path><path xmlns="http://www.w3.org/2000/svg" d="m364.78 408.13c6.63 11.48 2.7 26.16-8.78 32.79s-26.16 2.69-32.78-8.79c-6.63-11.48-2.7-26.15 8.78-32.78s26.16-2.7 32.78 8.78z" fill="#ff6d7a" data-original="#ff6d7a" style=""></path><path xmlns="http://www.w3.org/2000/svg" d="m348.196 411.972c-4.675 4.147-7.643 10.044-8.151 16.292-.707 8.707-12.238 11.532-16.688 4.014-8.913-15.057.772-34.073 17.826-36.081 8.837-1.04 13.669 9.871 7.013 15.775z" fill="#ff8c95" data-original="#ff8c95" style=""></path><circle xmlns="http://www.w3.org/2000/svg" cx="448" cy="240" fill="#80aaff" r="24" data-original="#80aaff" style=""></circle><path xmlns="http://www.w3.org/2000/svg" d="m451.946 231.844c-4.675 4.147-7.643 10.044-8.151 16.292-.707 8.707-12.238 11.532-16.688 4.014-8.913-15.057.772-34.073 17.826-36.081 8.837-1.04 13.669 9.871 7.013 15.775z" fill="#9cbcff" data-original="#9cbcff" style=""></path><path xmlns="http://www.w3.org/2000/svg" d="m356 39.08c11.48 6.63 15.41 21.31 8.78 32.79-6.62 11.48-21.3 15.41-32.78 8.78s-15.41-21.3-8.78-32.78c6.62-11.48 21.3-15.42 32.78-8.79z" fill="#befa91" data-original="#befa91" style=""></path><path xmlns="http://www.w3.org/2000/svg" d="m348.196 51.799c-4.675 4.147-7.643 10.044-8.151 16.292-.707 8.707-12.238 11.532-16.688 4.014-8.913-15.057.772-34.073 17.826-36.081 8.837-1.041 13.669 9.87 7.013 15.775z" fill="#daffbf" data-original="#daffbf" style=""></path><path xmlns="http://www.w3.org/2000/svg" d="m156.78 47.87c6.63 11.48 2.7 26.15-8.78 32.78s-26.16 2.7-32.78-8.78c-6.63-11.48-2.7-26.16 8.78-32.79s26.16-2.69 32.78 8.79z" fill="#ff6d7a" data-original="#ff6d7a" style=""></path><path xmlns="http://www.w3.org/2000/svg" d="m140.196 51.799c-4.675 4.147-7.643 10.044-8.151 16.292-.707 8.707-12.238 11.532-16.688 4.014-8.904-15.041.756-34.071 17.826-36.081 8.837-1.041 13.669 9.87 7.013 15.775z" fill="#ff8c95" data-original="#ff8c95" style=""></path><circle xmlns="http://www.w3.org/2000/svg" cx="32" cy="240" fill="#80aaff" r="24" data-original="#80aaff" style=""></circle><path xmlns="http://www.w3.org/2000/svg" d="m36.198 231.844c-4.675 4.147-7.643 10.044-8.151 16.292-.707 8.707-12.238 11.532-16.688 4.014-8.913-15.057.772-34.073 17.826-36.081 8.837-1.04 13.669 9.871 7.013 15.775z" fill="#9cbcff" data-original="#9cbcff" style=""></path><path xmlns="http://www.w3.org/2000/svg" d="m148 399.35c11.48 6.63 15.41 21.3 8.78 32.78-6.62 11.48-21.3 15.42-32.78 8.79s-15.41-21.31-8.78-32.79c6.62-11.48 21.3-15.41 32.78-8.78z" fill="#ffe773" data-original="#ffe773" style=""></path><path xmlns="http://www.w3.org/2000/svg" d="m140.196 411.972c-4.675 4.147-7.643 10.044-8.151 16.292-.707 8.707-12.238 11.532-16.688 4.014-8.913-15.057.772-34.073 17.826-36.081 8.837-1.04 13.669 9.871 7.013 15.775z" fill="#fff0a6" data-original="#fff0a6" style=""></path><g xmlns="http://www.w3.org/2000/svg"><path d="m360.21 260.907c2.369-13.756 2.369-28.059 0-41.814l11.305-13.111c6.659-7.722 7.707-18.843 2.608-27.673l-13.636-23.617c-5.098-8.83-15.256-13.481-25.269-11.578l-17.031 3.239c-10.835-9.066-22.979-16.087-36.194-20.923l-5.698-16.334c-3.357-9.628-12.463-16.096-22.659-16.096h-27.271c-10.196 0-19.302 6.468-22.661 16.096l-5.698 16.334c-13.215 4.836-25.359 11.856-36.194 20.923l-17.031-3.239c-10.016-1.902-20.17 2.748-25.269 11.578l-13.636 23.617c-5.098 8.83-4.05 19.951 2.608 27.672l11.305 13.112c-2.369 13.756-2.369 28.059 0 41.814l-11.305 13.111c-6.659 7.722-7.707 18.843-2.608 27.673l13.636 23.617c5.098 8.83 15.252 13.482 25.269 11.578l17.031-3.239c10.835 9.066 22.979 16.087 36.194 20.923l5.698 16.334c3.359 9.628 12.465 16.096 22.661 16.096h27.271c10.196 0 19.302-6.468 22.661-16.096l6.971-19.984c1.455-4.172-.747-8.733-4.919-10.188-4.172-1.454-8.733.746-10.188 4.919l-6.971 19.984c-1.12 3.209-4.155 5.365-7.554 5.365h-27.271c-3.398 0-6.434-2.156-7.554-5.365l-6.971-19.984c-.82-2.35-2.686-4.185-5.049-4.963-13.846-4.564-26.412-11.828-37.347-21.59-1.856-1.658-4.378-2.355-6.822-1.892l-20.83 3.962c-3.335.634-6.723-.916-8.423-3.859l-13.636-23.617c-1.7-2.943-1.35-6.65.87-9.225l13.824-16.033c1.623-1.882 2.278-4.411 1.775-6.844-2.921-14.124-2.921-29.056 0-43.18.503-2.433-.152-4.962-1.775-6.844l-13.824-16.034c-2.219-2.573-2.569-6.28-.869-9.224l13.636-23.617c1.699-2.943 5.083-4.493 8.423-3.859l20.83 3.962c2.444.467 4.966-.233 6.822-1.892 10.935-9.762 23.5-17.025 37.347-21.59 2.363-.779 4.229-2.613 5.049-4.963l6.971-19.984c1.12-3.209 4.155-5.365 7.554-5.365h27.271c3.398 0 6.434 2.156 7.554 5.365l6.971 19.984c.82 2.35 2.686 4.184 5.049 4.963 13.847 4.564 26.412 11.828 37.347 21.59 1.856 1.657 4.378 2.358 6.822 1.892l20.83-3.962c3.342-.631 6.724.917 8.423 3.859l13.636 23.617c1.7 2.943 1.35 6.65-.87 9.225l-13.824 16.033c-1.623 1.882-2.278 4.411-1.775 6.844 2.921 14.124 2.921 29.056 0 43.18-.503 2.433.152 4.962 1.775 6.844l13.824 16.034c2.219 2.573 2.569 6.28.869 9.224l-13.636 23.617c-1.699 2.944-5.082 4.496-8.423 3.859l-20.83-3.962c-4.338-.825-8.528 2.025-9.354 6.364-.826 4.341 2.023 8.528 6.364 9.354l20.83 3.962c10.013 1.898 20.171-2.748 25.269-11.578l13.636-23.617c5.098-8.83 4.05-19.951-2.608-27.672z" fill="#000000" data-original="#000000" style=""></path><path d="m183.654 208.584c-4.097-1.659-8.759.319-10.417 4.413-19.081 47.137 15.705 99.003 66.763 99.003 39.701 0 72-32.299 72-72 0-53.542-56.319-87.984-103.756-64.635-3.964 1.951-5.596 6.746-3.645 10.71 1.951 3.965 6.747 5.6 10.71 3.646 36.815-18.119 80.691 8.597 80.691 50.279 0 30.879-25.122 56-56 56-40.584 0-66.452-41.13-51.932-76.999 1.658-4.095-.318-8.76-4.414-10.417z" fill="#000000" data-original="#000000" style=""></path><path d="m191.728 45.631c3.564 0 42.807-12.546 94.688-.219 4.301 1.018 8.612-1.635 9.633-5.934s-1.635-8.611-5.934-9.633c-32.786-7.791-67.444-7.791-100.229 0-4.298 1.021-6.955 5.334-5.934 9.633.873 3.678 4.155 6.153 7.776 6.153z" fill="#000000" data-original="#000000" style=""></path><path d="m431.73 182.893c1.262 4.244 5.724 6.646 9.948 5.388 4.235-1.259 6.647-5.713 5.388-9.948-9.583-32.223-26.927-62.229-50.159-86.778-3.037-3.208-8.1-3.349-11.31-.312-3.209 3.037-3.349 8.101-.312 11.31 21.515 22.731 37.575 50.514 46.445 80.34z" fill="#000000" data-original="#000000" style=""></path><path d="m441.679 291.72c-4.234-1.261-8.689 1.152-9.948 5.388-8.87 29.826-24.93 57.608-46.444 80.341-4.84 5.114-1.146 13.499 5.809 13.499 2.122 0 4.239-.839 5.812-2.501 23.232-24.549 40.576-54.556 50.159-86.778 1.259-4.236-1.153-8.69-5.388-9.949z" fill="#000000" data-original="#000000" style=""></path><path d="m286.416 434.588c-30.364 7.216-62.465 7.216-92.831 0-4.301-1.021-8.612 1.635-9.633 5.934s1.635 8.611 5.934 9.633c32.781 7.79 67.444 7.791 100.229 0 4.298-1.021 6.955-5.334 5.934-9.633-1.022-4.298-5.334-6.951-9.633-5.934z" fill="#000000" data-original="#000000" style=""></path><path d="m48.27 297.108c-1.26-4.235-5.714-6.647-9.948-5.388-4.235 1.259-6.647 5.713-5.388 9.948 9.583 32.223 26.927 62.229 50.159 86.778 1.573 1.662 3.69 2.501 5.812 2.501 6.957 0 10.647-8.387 5.809-13.499-21.514-22.732-37.574-50.514-46.444-80.34z" fill="#000000" data-original="#000000" style=""></path><path d="m83.092 91.554c-23.232 24.549-40.576 54.556-50.159 86.778-1.26 4.235 1.153 8.689 5.388 9.948 4.226 1.259 8.687-1.146 9.948-5.388 8.87-29.826 24.93-57.608 46.444-80.341 3.037-3.209 2.897-8.272-.312-11.31-3.209-3.036-8.272-2.895-11.309.313z" fill="#000000" data-original="#000000" style=""></path><path d="m152 87.58c3.826-2.209 5.137-7.103 2.928-10.929-2.208-3.826-7.102-5.135-10.928-2.929-7.64 4.411-17.445 1.784-21.856-5.855-4.411-7.641-1.784-17.445 5.856-21.856 7.639-4.413 17.445-1.785 21.856 5.856 2.209 3.827 7.104 5.137 10.928 2.929 3.826-2.21 5.137-7.103 2.928-10.929-8.822-15.281-28.431-20.537-43.712-11.712-15.281 8.822-20.535 28.432-11.713 43.713 8.78 15.205 28.361 20.574 43.713 11.712z" fill="#000000" data-original="#000000" style=""></path><path d="m328 392.42c-3.826 2.209-5.137 7.103-2.928 10.929s7.104 5.136 10.928 2.929c7.639-4.412 17.445-1.785 21.856 5.855s1.784 17.445-5.856 21.856c-7.64 4.409-17.446 1.784-21.856-5.856-2.209-3.826-7.102-5.134-10.928-2.929-3.826 2.21-5.137 7.103-2.928 10.929 5.92 10.255 16.698 15.994 27.767 15.994 24.476 0 39.961-26.686 27.659-47.994-8.823-15.279-28.433-20.534-43.714-11.713z" fill="#000000" data-original="#000000" style=""></path><path d="m328 87.58c15.409 8.893 34.965 3.438 43.713-11.713 8.822-15.281 3.568-34.891-11.713-43.713-3.826-2.21-8.719-.899-10.928 2.928-2.209 3.826-.898 8.719 2.928 10.928 7.64 4.412 10.268 14.217 5.856 21.857-4.41 7.64-14.215 10.266-21.856 5.856-7.64-4.412-10.268-14.217-5.856-21.856 2.209-3.826.898-8.719-2.928-10.928-3.827-2.211-8.718-.898-10.928 2.928-8.823 15.281-3.569 34.89 11.712 43.713z" fill="#000000" data-original="#000000" style=""></path><path d="m160.785 425.204c-3.828-2.207-8.72-.898-10.928 2.929-4.411 7.641-14.216 10.266-21.856 5.857-7.64-4.412-10.268-14.217-5.856-21.857 4.411-7.64 14.216-10.266 21.856-5.855 3.826 2.205 8.719.896 10.928-2.929 2.209-3.826.898-8.72-2.928-10.929-15.281-8.818-34.89-3.566-43.713 11.713-8.822 15.281-3.568 34.891 11.713 43.714 15.376 8.877 34.947 3.469 43.713-11.714 2.208-3.826.897-8.719-2.929-10.929z" fill="#000000" data-original="#000000" style=""></path><path d="m448 208c-17.645 0-32 14.355-32 32s14.355 32 32 32c4.418 0 8-3.582 8-8s-3.582-8-8-8c-8.822 0-16-7.178-16-16s7.178-16 16-16 16 7.178 16 16c0 4.418 3.582 8 8 8s8-3.582 8-8c0-17.644-14.355-32-32-32z" fill="#000000" data-original="#000000" style=""></path><path d="m64 240c0-17.645-14.355-32-32-32s-32 14.356-32 32c0 4.418 3.582 8 8 8s8-3.582 8-8c0-8.822 7.178-16 16-16s16 7.178 16 16-7.178 16-16 16c-4.418 0-8 3.582-8 8s3.582 8 8 8c17.645 0 32-14.355 32-32z" fill="#000000" data-original="#000000" style=""></path></g></g></svg>