<svg xmlns="http://www.w3.org/2000/svg" version="1.1" xmlns:xlink="http://www.w3.org/1999/xlink" xmlns:svgjs="http://svgjs.com/svgjs" width="512" height="512" x="0" y="0" viewBox="0 0 64 64" style="enable-background:new 0 0 512 512" xml:space="preserve"><g><g xmlns="http://www.w3.org/2000/svg" id="Layer_25" data-name="Layer 25"><path d="M47,35V29l-2.468-.411a12.89,12.89,0,0,0-1.256-3.041l1.452-2.033-4.243-4.243-2.033,1.452a12.89,12.89,0,0,0-3.041-1.256L35,17H29l-.411,2.468a12.89,12.89,0,0,0-3.041,1.256l-2.033-1.452-4.243,4.243,1.452,2.033a12.89,12.89,0,0,0-1.256,3.041L17,29v6l2.468.411a12.89,12.89,0,0,0,1.256,3.041l-1.452,2.033,4.243,4.243,2.033-1.452a12.89,12.89,0,0,0,3.041,1.256L29,47h6l.411-2.468a12.89,12.89,0,0,0,3.041-1.256l2.033,1.452,4.243-4.243-1.452-2.033a12.89,12.89,0,0,0,1.256-3.041ZM32,40a8,8,0,1,1,8-8A8,8,0,0,1,32,40Z" style="" fill="#f4b2b0" data-original="#f4b2b0"></path><path d="M62,31H59.982A27.984,27.984,0,0,0,35.656,4.242L32.707,1.293A1,1,0,0,0,31,2V4.018A27.985,27.985,0,0,0,4.242,28.344L1.293,31.293A1,1,0,0,0,2,33H4.018A27.985,27.985,0,0,0,28.344,59.758l2.949,2.949A1,1,0,0,0,32,63a.987.987,0,0,0,.383-.076A1,1,0,0,0,33,62V59.982A27.985,27.985,0,0,0,59.758,35.656l2.949-2.949A1,1,0,0,0,62,31Zm-4,1a1,1,0,0,0,1,1h.586L56,36.586,52.414,33H53a1,1,0,0,0,1-1A22.071,22.071,0,0,0,36.869,10.545l1.838-1.838a1,1,0,0,0,0-1.414l-.556-.556A25.992,25.992,0,0,1,58,32ZM32.383,49.076a1,1,0,0,0-1.09.217l-2.445,2.444A20.047,20.047,0,0,1,12.025,33H14a1,1,0,0,0,.707-1.707l-2.444-2.445A20.047,20.047,0,0,1,31,12.025V14a1,1,0,0,0,1.707.707l2.445-2.444A20.047,20.047,0,0,1,51.975,31H50a1,1,0,0,0-.707,1.707l2.444,2.445A20.047,20.047,0,0,1,33,51.975V50A1,1,0,0,0,32.383,49.076ZM32,6a1,1,0,0,0,1-1V4.414L36.586,8,33,11.586V11a1,1,0,0,0-1-1A22.071,22.071,0,0,0,10.545,27.131L8.707,25.293a1,1,0,0,0-1.414,0l-.556.556A26,26,0,0,1,32,6ZM6,32a1,1,0,0,0-1-1H4.414L8,27.414,11.586,31H11a1,1,0,0,0-1,1A22.071,22.071,0,0,0,27.131,53.455l-1.838,1.838a1,1,0,0,0,0,1.414l.556.556A26,26,0,0,1,6,32ZM32,58a1,1,0,0,0-1,1v.586L27.414,56,31,52.414V53a1,1,0,0,0,1,1A22.071,22.071,0,0,0,53.455,36.869l1.838,1.838a1,1,0,0,0,1.414,0l.556-.556A26,26,0,0,1,32,58Z" style="" fill="#b3404a" data-original="#b3404a"></path><path d="M35.986,47.164l.309-1.851a13.79,13.79,0,0,0,2.085-.861L39.9,45.541a1,1,0,0,0,1.288-.106l4.243-4.243a1,1,0,0,0,.106-1.288L44.452,38.38a13.79,13.79,0,0,0,.861-2.085l1.851-.309A1,1,0,0,0,48,35V29a1,1,0,0,0-.836-.986l-1.851-.309a13.79,13.79,0,0,0-.861-2.085L45.541,24.1a1,1,0,0,0-.106-1.288l-4.243-4.243a1,1,0,0,0-1.288-.106L38.38,19.548a13.79,13.79,0,0,0-2.085-.861l-.309-1.851A1,1,0,0,0,35,16H29a1,1,0,0,0-.986.836l-.309,1.851a13.79,13.79,0,0,0-2.085.861L24.1,18.459a1,1,0,0,0-1.288.106l-4.243,4.243a1,1,0,0,0-.106,1.288l1.089,1.524a13.79,13.79,0,0,0-.861,2.085l-1.851.309A1,1,0,0,0,16,29v6a1,1,0,0,0,.836.986l1.851.309a13.79,13.79,0,0,0,.861,2.085L18.459,39.9a1,1,0,0,0,.106,1.288l4.243,4.243a1,1,0,0,0,1.288.106l1.524-1.089a13.79,13.79,0,0,0,2.085.861l.309,1.851A1,1,0,0,0,29,48h6A1,1,0,0,0,35.986,47.164Zm-1.561-2.8L34.152,46h-4.3l-.273-1.632a1,1,0,0,0-.724-.8,11.847,11.847,0,0,1-2.8-1.159,1,1,0,0,0-1.079.054l-1.344.96-3.045-3.045.96-1.344a1,1,0,0,0,.054-1.079,11.847,11.847,0,0,1-1.159-2.8,1,1,0,0,0-.8-.724L18,34.152v-4.3l1.632-.273a1,1,0,0,0,.8-.724,11.847,11.847,0,0,1,1.159-2.8,1,1,0,0,0-.054-1.079l-.96-1.344,3.045-3.045,1.344.96a1,1,0,0,0,1.079.054,11.847,11.847,0,0,1,2.805-1.159,1,1,0,0,0,.724-.8L29.848,18h4.3l.273,1.632a1,1,0,0,0,.724.8,11.847,11.847,0,0,1,2.805,1.159,1,1,0,0,0,1.079-.054l1.344-.96,3.045,3.045-.96,1.344a1,1,0,0,0-.054,1.079,11.847,11.847,0,0,1,1.159,2.805,1,1,0,0,0,.8.724L46,29.848v4.3l-1.632.273a1,1,0,0,0-.8.724,11.847,11.847,0,0,1-1.159,2.805,1,1,0,0,0,.054,1.079l.96,1.344-3.045,3.045-1.344-.96a1,1,0,0,0-1.079-.054,11.847,11.847,0,0,1-2.8,1.159A1,1,0,0,0,34.425,44.368Z" style="" fill="#b3404a" data-original="#b3404a"></path><path d="M41,32a9,9,0,1,0-9,9A9.01,9.01,0,0,0,41,32ZM25,32a7,7,0,1,1,11.9,4.992,5.014,5.014,0,0,0-2.1-3.137,4,4,0,1,0-5.588,0,5.014,5.014,0,0,0-2.1,3.137A6.976,6.976,0,0,1,25,32Zm5-1a2,2,0,1,1,2,2A2,2,0,0,1,30,31Zm-1,7.315V38a3,3,0,0,1,6,0v.315a6.912,6.912,0,0,1-6,0Z" style="" fill="#b3404a" data-original="#b3404a"></path></g></g></svg>