<svg xmlns="http://www.w3.org/2000/svg" version="1.1" xmlns:xlink="http://www.w3.org/1999/xlink" xmlns:svgjs="http://svgjs.com/svgjs" width="512" height="512" x="0" y="0" viewBox="0 0 480 480" style="enable-background:new 0 0 512 512" xml:space="preserve"><g><g xmlns="http://www.w3.org/2000/svg"><circle cx="240" cy="239.986" r="56" fill="#000000" data-original="#000000" style=""></circle><path d="m360.21 260.897c2.319-13.41 2.452-27.643 0-41.82l11.31-13.11c6.65-7.72 7.7-18.84 2.6-27.67l-13.63-23.62c-5.1-8.83-15.26-13.48-25.27-11.58l-17.03 3.24c-10.84-9.06-22.98-16.08-36.2-20.92l-5.69-16.33c-3.36-9.63-12.47-16.1-22.66-16.1h-27.28c-10.19 0-19.3 6.47-22.66 16.1l-5.69 16.33c-13.22 4.84-25.36 11.86-36.2 20.92l-17.03-3.24c-10.01-1.9-20.17 2.75-25.27 11.58l-13.63 23.62c-5.1 8.83-4.05 19.95 2.6 27.67l11.31 13.11c-2.315 13.383-2.457 27.614 0 41.82l-11.31 13.11c-6.65 7.72-7.7 18.84-2.6 27.67l13.63 23.62c5.1 8.83 15.25 13.48 25.27 11.58l17.03-3.24c10.84 9.06 22.98 16.08 36.2 20.92l5.69 16.33c3.36 9.63 12.47 16.1 22.66 16.1h27.28c10.19 0 19.3-6.47 22.66-16.1l5.69-16.33c13.22-4.84 25.36-11.86 36.2-20.92l17.03 3.24c10.01 1.9 20.17-2.75 25.27-11.58l13.63-23.62c5.1-8.83 4.05-19.95-2.6-27.67zm-120.21 51.089c-39.701 0-72-32.299-72-72s32.299-72 72-72 72 32.299 72 72-32.299 72-72 72z" fill="#000000" data-original="#000000" style=""></path><path d="m290.115 29.832c-32.647-7.758-67.582-7.758-100.229 0-4.298 1.021-6.955 5.334-5.934 9.633 1.021 4.298 5.334 6.951 9.633 5.934 30.226-7.182 62.605-7.182 92.831 0 4.315 1.023 8.615-1.648 9.633-5.934 1.021-4.299-1.636-8.611-5.934-9.633z" fill="#000000" data-original="#000000" style=""></path><path d="m431.73 182.879c1.262 4.244 5.724 6.646 9.948 5.388 4.235-1.259 6.647-5.713 5.388-9.948-9.583-32.223-26.927-62.229-50.159-86.778-3.037-3.208-8.1-3.349-11.31-.312-3.209 3.037-3.349 8.101-.312 11.31 21.515 22.732 37.575 50.514 46.445 80.34z" fill="#000000" data-original="#000000" style=""></path><path d="m441.679 291.706c-4.234-1.261-8.689 1.152-9.948 5.388-8.87 29.826-24.93 57.608-46.444 80.341-4.84 5.114-1.146 13.499 5.809 13.499 2.122 0 4.239-.839 5.812-2.501 23.232-24.549 40.576-54.556 50.159-86.778 1.259-4.236-1.153-8.69-5.388-9.949z" fill="#000000" data-original="#000000" style=""></path><path d="m286.416 434.574c-30.226 7.182-62.605 7.182-92.831 0-4.301-1.021-8.612 1.635-9.633 5.934s1.635 8.611 5.934 9.633c32.798 7.794 67.428 7.794 100.229 0 4.298-1.021 6.955-5.334 5.934-9.633-1.022-4.299-5.336-6.951-9.633-5.934z" fill="#000000" data-original="#000000" style=""></path><path d="m48.27 297.094c-1.26-4.235-5.714-6.647-9.948-5.388-4.235 1.259-6.647 5.713-5.388 9.948 9.583 32.223 26.927 62.229 50.159 86.778 1.573 1.662 3.69 2.501 5.812 2.501 6.957 0 10.647-8.387 5.809-13.499-21.514-22.732-37.574-50.514-46.444-80.34z" fill="#000000" data-original="#000000" style=""></path><path d="m83.092 91.54c-23.232 24.549-40.576 54.556-50.159 86.778-1.26 4.235 1.153 8.689 5.388 9.948 4.226 1.259 8.687-1.146 9.948-5.388 8.87-29.826 24.93-57.608 46.444-80.341 3.037-3.209 2.897-8.272-.312-11.31-3.209-3.036-8.272-2.895-11.309.313z" fill="#000000" data-original="#000000" style=""></path><path d="m120 32.141c-15.281 8.822-20.535 28.432-11.713 43.713 5.92 10.254 16.698 15.993 27.767 15.993 24.482 0 39.959-26.69 27.659-47.993-8.823-15.282-28.432-20.538-43.713-11.713z" fill="#000000" data-original="#000000" style=""></path><path d="m328 392.407c-15.281 8.822-20.535 28.432-11.713 43.712 5.92 10.255 16.698 15.994 27.767 15.994 24.476 0 39.961-26.686 27.659-47.994-8.822-15.278-28.432-20.535-43.713-11.712z" fill="#000000" data-original="#000000" style=""></path><path d="m360 32.14c-15.282-8.823-34.891-3.567-43.713 11.714-8.822 15.28-3.568 34.89 11.713 43.713 15.409 8.893 34.965 3.438 43.713-11.713 8.822-15.282 3.568-34.891-11.713-43.714z" fill="#000000" data-original="#000000" style=""></path><path d="m152 392.406c-15.281-8.818-34.89-3.566-43.713 11.713-8.822 15.281-3.568 34.891 11.713 43.714 15.375 8.876 34.947 3.47 43.713-11.714 8.822-15.28 3.568-34.889-11.713-43.713z" fill="#000000" data-original="#000000" style=""></path><circle cx="448" cy="239.986" r="32" fill="#000000" data-original="#000000" style=""></circle><circle cx="32" cy="239.986" r="32" fill="#000000" data-original="#000000" style=""></circle></g></g></svg>