<?xml version="1.0" encoding="UTF-8" standalone="no"?>
<svg
   xmlns:dc="http://purl.org/dc/elements/1.1/"
   xmlns:cc="http://creativecommons.org/ns#"
   xmlns:rdf="http://www.w3.org/1999/02/22-rdf-syntax-ns#"
   xmlns:svg="http://www.w3.org/2000/svg"
   xmlns="http://www.w3.org/2000/svg"
   xmlns:sodipodi="http://sodipodi.sourceforge.net/DTD/sodipodi-0.dtd"
   xmlns:inkscape="http://www.inkscape.org/namespaces/inkscape"
   version="1.1"
   width="512"
   height="512"
   x="0"
   y="0"
   viewBox="0 0 64 64"
   style="enable-background:new 0 0 512 512"
   xml:space="preserve"
   id="svg875"
   sodipodi:docname="process_loop_01_v2.svg"
   inkscape:version="1.0.2 (e86c8708, 2021-01-15)"><metadata
     id="metadata881"><rdf:RDF><cc:Work
         rdf:about=""><dc:format>image/svg+xml</dc:format><dc:type
           rdf:resource="http://purl.org/dc/dcmitype/StillImage" /><dc:title></dc:title></cc:Work></rdf:RDF></metadata><defs
     id="defs879"><marker
       style="overflow:visible"
       id="marker3263"
       refX="0.0"
       refY="0.0"
       orient="auto"
       inkscape:stockid="TriangleOutS"
       inkscape:isstock="true"><path
         transform="scale(0.2)"
         style="fill-rule:evenodd;stroke:#000000;stroke-width:1pt;stroke-opacity:1;fill:#000000;fill-opacity:1"
         d="M 5.77,0.0 L -2.88,5.0 L -2.88,-5.0 L 5.77,0.0 z "
         id="path3261" /></marker><marker
       style="overflow:visible"
       id="marker3175"
       refX="0.0"
       refY="0.0"
       orient="auto"
       inkscape:stockid="TriangleOutS"
       inkscape:isstock="true"><path
         transform="scale(0.2)"
         style="fill-rule:evenodd;stroke:#000000;stroke-width:1pt;stroke-opacity:1;fill:#000000;fill-opacity:1"
         d="M 5.77,0.0 L -2.88,5.0 L -2.88,-5.0 L 5.77,0.0 z "
         id="path3173" /></marker><marker
       style="overflow:visible"
       id="marker2994"
       refX="0.0"
       refY="0.0"
       orient="auto"
       inkscape:stockid="TriangleOutS"
       inkscape:isstock="true"
       inkscape:collect="always"><path
         transform="scale(0.2)"
         style="fill-rule:evenodd;stroke:#000000;stroke-width:1pt;stroke-opacity:1;fill:#000000;fill-opacity:1"
         d="M 5.77,0.0 L -2.88,5.0 L -2.88,-5.0 L 5.77,0.0 z "
         id="path2992" /></marker><marker
       style="overflow:visible"
       id="TriangleOutM"
       refX="0.0"
       refY="0.0"
       orient="auto"
       inkscape:stockid="TriangleOutM"
       inkscape:isstock="true"><path
         transform="scale(0.4)"
         style="fill-rule:evenodd;stroke:#000000;stroke-width:1pt;stroke-opacity:1;fill:#000000;fill-opacity:1"
         d="M 5.77,0.0 L -2.88,5.0 L -2.88,-5.0 L 5.77,0.0 z "
         id="path2353" /></marker><marker
       style="overflow:visible"
       id="TriangleOutS"
       refX="0.0"
       refY="0.0"
       orient="auto"
       inkscape:stockid="TriangleOutS"
       inkscape:isstock="true"
       inkscape:collect="always"><path
         transform="scale(0.2)"
         style="fill-rule:evenodd;stroke:#000000;stroke-width:1pt;stroke-opacity:1;fill:#000000;fill-opacity:1"
         d="M 5.77,0.0 L -2.88,5.0 L -2.88,-5.0 L 5.77,0.0 z "
         id="path2356" /></marker><marker
       style="overflow:visible"
       id="TriangleOutL"
       refX="0.0"
       refY="0.0"
       orient="auto"
       inkscape:stockid="TriangleOutL"
       inkscape:isstock="true"><path
         transform="scale(0.8)"
         style="fill-rule:evenodd;stroke:#000000;stroke-width:1pt;stroke-opacity:1;fill:#2196f3;fill-opacity:1"
         d="M 5.77,0.0 L -2.88,5.0 L -2.88,-5.0 L 5.77,0.0 z "
         id="path2350" /></marker><marker
       style="overflow:visible"
       id="TriangleOutS-5"
       refX="0"
       refY="0"
       orient="auto"
       inkscape:stockid="TriangleOutS"
       inkscape:isstock="true"><path
         transform="scale(0.2)"
         style="fill:#000000;fill-opacity:1;fill-rule:evenodd;stroke:#000000;stroke-width:1pt;stroke-opacity:1"
         d="M 5.77,0 -2.88,5 V -5 Z"
         id="path2356-5" /></marker><marker
       style="overflow:visible"
       id="marker2994-3"
       refX="0"
       refY="0"
       orient="auto"
       inkscape:stockid="TriangleOutS"
       inkscape:isstock="true"><path
         transform="scale(0.2)"
         style="fill:#000000;fill-opacity:1;fill-rule:evenodd;stroke:#000000;stroke-width:1pt;stroke-opacity:1"
         d="M 5.77,0 -2.88,5 V -5 Z"
         id="path2992-3" /></marker><marker
       style="overflow:visible"
       id="marker2994-5"
       refX="0"
       refY="0"
       orient="auto"
       inkscape:stockid="TriangleOutS"
       inkscape:isstock="true"><path
         transform="scale(0.2)"
         style="fill:#000000;fill-opacity:1;fill-rule:evenodd;stroke:#000000;stroke-width:1pt;stroke-opacity:1"
         d="M 5.77,0 -2.88,5 V -5 Z"
         id="path2992-4" /></marker></defs><sodipodi:namedview
     pagecolor="#ffffff"
     bordercolor="#666666"
     borderopacity="1"
     objecttolerance="10"
     gridtolerance="10"
     guidetolerance="10"
     inkscape:pageopacity="0"
     inkscape:pageshadow="2"
     inkscape:window-width="1701"
     inkscape:window-height="916"
     id="namedview877"
     showgrid="false"
     inkscape:zoom="0.97878388"
     inkscape:cx="-221.52307"
     inkscape:cy="169.3725"
     inkscape:window-x="3003"
     inkscape:window-y="352"
     inkscape:window-maximized="0"
     inkscape:current-layer="svg875" /><g
     id="g2194"
     transform="translate(-82.244919)"><path
       d="M 58.814,35.186 A 27,27 0 0 1 32,59 v 3 l -6,-6 6,-6 v 3 A 21,21 0 0 0 52.813,34.813 L 56,38 Z"
       fill="#4d8c28"
       data-original="#4d8c28"
       id="path2182" /><path
       d="M 28.814,58.814 A 27,27 0 0 1 5,32 H 2 l 6,-6 6,6 H 11 A 21,21 0 0 0 29.187,52.813 L 26,56 Z"
       fill="#559b2d"
       data-original="#559b2d"
       id="path2184" /><path
       d="M 11.187,29.187 A 21,21 0 0 1 32,11 v 3 L 38,8 32,2 V 5 A 27,27 0 0 0 5.186,28.814 L 8,26 Z"
       fill="#6bc13b"
       data-original="#6bc13b"
       id="path2186" /><path
       d="M 34.813,11.187 38,8 35.186,5.186 A 27,27 0 0 1 59,32 h 3 l -6,6 -6,-6 h 3 A 21,21 0 0 0 34.813,11.187 Z"
       fill="#7bdf45"
       data-original="#7bdf45"
       id="path2188" /></g><path
     d="m 47,35 v -6 l -2.468,-0.411 a 12.89,12.89 0 0 0 -1.256,-3.041 l 1.452,-2.033 -4.243,-4.243 -2.033,1.452 A 12.89,12.89 0 0 0 35.411,19.468 L 35,17 h -6 l -0.411,2.468 a 12.89,12.89 0 0 0 -3.041,1.256 l -2.033,-1.452 -4.243,4.243 1.452,2.033 a 12.89,12.89 0 0 0 -1.256,3.041 L 17,29 v 6 l 2.468,0.411 a 12.89,12.89 0 0 0 1.256,3.041 l -1.452,2.033 4.243,4.243 2.033,-1.452 a 12.89,12.89 0 0 0 3.041,1.256 L 29,47 h 6 l 0.411,-2.468 a 12.89,12.89 0 0 0 3.041,-1.256 l 2.033,1.452 4.243,-4.243 -1.452,-2.033 a 12.89,12.89 0 0 0 1.256,-3.041 z"
     fill="#78a0d4"
     data-original="#78a0d4"
     id="path856" /><circle
     cx="32"
     cy="32"
     fill="#ffffff"
     r="8"
     data-original="#ffffff"
     id="circle858" /><path
     d="m 36,38.93 a 8.012,8.012 0 0 1 -8,0 V 38 a 4,4 0 0 1 4,-4 4,4 0 0 1 4,4 z"
     fill="#3b5892"
     data-original="#3b5892"
     id="path860" /><path
     d="M 58.814,35.186 A 27,27 0 0 1 32,59 v 3 l -6,-6 6,-6 v 3 A 21,21 0 0 0 52.813,34.813 L 56,38 Z"
     fill="#4d8c28"
     data-original="#4d8c28"
     id="path862" /><path
     d="M 28.814,58.814 A 27,27 0 0 1 5,32 H 2 l 6,-6 6,6 H 11 A 21,21 0 0 0 29.187,52.813 L 26,56 Z"
     fill="#559b2d"
     data-original="#559b2d"
     id="path864" /><path
     d="M 11.187,29.187 A 21,21 0 0 1 32,11 v 3 L 38,8 32,2 V 5 A 27,27 0 0 0 5.186,28.814 L 8,26 Z"
     fill="#6bc13b"
     data-original="#6bc13b"
     id="path866" /><path
     d="M 34.813,11.187 38,8 35.186,5.186 A 27,27 0 0 1 59,32 h 3 l -6,6 -6,-6 h 3 A 21,21 0 0 0 34.813,11.187 Z"
     fill="#7bdf45"
     data-original="#7bdf45"
     id="path868" /><circle
     cx="32"
     cy="31"
     fill="#fbe1ca"
     r="3"
     data-original="#fbe1ca"
     id="circle870" /><g
     id="g1477"
     transform="matrix(0.125,0,0,0.125,-31.156334,-4.9988253)"><circle
       style="fill:#304ffe;stroke-width:25.0958;stroke-linecap:round;stroke-linejoin:round;paint-order:stroke markers fill"
       id="path1452"
       cx="942.90387"
       cy="159.4686"
       r="64.3545" /><path
       id="path1448"
       style="fill:#311b92"
       d="m 910.72656,256 c -35.52799,0.0332 -64.32025,28.82553 -64.35351,64.35352 v 32.17773 c 0,17.77091 14.40487,32.17773 32.17578,32.17773 h 128.70897 c 17.7709,0 32.1777,-14.40682 32.1777,-32.17773 V 320.35352 C 1039.4022,284.82553 1010.6081,256.0332 975.08008,256 Z"
       sodipodi:nodetypes="ccsccsccc" /></g><g
     id="g1481"
     transform="matrix(0.125,0,0,0.125,-53.830279,-4.9989143)"><circle
       style="fill:#304ffe;stroke-width:43.9175;stroke-linecap:round;stroke-linejoin:round;paint-order:stroke markers fill"
       id="circle1457"
       cx="1349.4341"
       cy="143.3799"
       r="112.62" /><path
       id="path1450"
       style="fill:#304ffe"
       d="m 1494.5332,481.23828 c 26.6563,-10e-6 48.2656,-21.60932 48.2656,-48.26562 v -28.95899 c -0.028,-64.00291 -51.9346,-115.86374 -115.9375,-115.83594 h -8.3476 c -21.0156,10.05532 -44.1428,16.08789 -68.8789,16.08789 -24.7361,0 -47.8633,-6.03257 -68.8789,-16.08789 h -8.3457 c -64.0029,-0.0278 -115.9097,51.83303 -115.9375,115.83594 v 28.95899 c 0,26.6563 21.6093,48.26561 48.2656,48.26562 z"
       sodipodi:nodetypes="cscccscccscc" /></g><g
     id="g2152"
     transform="matrix(0.46875,0,0,0.46875,-7.7056527,-26.882672)"><path
       id="primary"
       style="stroke-width:0.276778"
       d="m 81.736151,-50.602676 c -2.218229,0 -4.201432,1.408312 -4.932861,3.504639 l -1.238525,3.554931 c -2.877826,1.053608 -5.520644,2.581711 -7.880371,4.553955 l -3.707275,-0.705322 c -2.17905,-0.413604 -4.39053,0.598821 -5.500733,2.520996 l -2.967285,5.141602 c -1.110203,1.922178 -0.881457,4.342891 0.566162,6.023438 l 2.461914,2.854003 c -0.503947,2.913305 -0.534855,6.011054 0,9.103515 l -2.461914,2.854004 c -1.447619,1.680544 -1.676365,4.1012602 -0.566162,6.0234377 l 2.967285,5.14160255 C 59.586589,1.8903027 61.795894,2.9027252 63.977119,2.4891215 L 67.684394,1.783799 c 2.359727,1.9722437 5.002545,3.50035 7.880371,4.553955 l 1.238525,3.5546875 c 0.731429,2.0963265 2.714632,3.5048825 4.932861,3.5048825 h 5.938478 c 2.21823,0 4.20143,-1.408556 4.932861,-3.5048825 L 93.846015,6.337754 c 2.87782,-1.053605 5.520644,-2.5817113 7.880375,-4.553955 l 3.70727,0.7053225 c 2.17905,0.4136037 4.39053,-0.5988188 5.50073,-2.52099625 l 2.96729,-5.14160255 c 1.11021,-1.9221775 0.88146,-4.3428937 -0.56616,-6.0234377 l -2.46192,-2.854004 c 0.50482,-2.919181 0.53377,-6.017364 0,-9.103515 l 2.46192,-2.854003 c 1.44762,-1.680547 1.67637,-4.10126 0.56616,-6.023438 l -2.96729,-5.141602 c -1.1102,-1.922175 -3.32168,-2.9346 -5.50073,-2.520996 l -3.70727,0.705322 c -2.359731,-1.972244 -5.002555,-3.500347 -7.880375,-4.553955 l -1.238525,-3.554931 c -0.731431,-2.096327 -2.714631,-3.504639 -4.932861,-3.504639 z m 2.969239,13.551757 A 18.44825,18.44825 0 0 1 103.15363,-18.602676 18.44825,18.44825 0 0 1 84.70539,-0.1544335 18.44825,18.44825 0 0 1 66.257148,-18.602676 18.44825,18.44825 0 0 1 84.70539,-37.050919 Z" /><path
       id="secondary"
       d="m 74.11139,-8.0091934 c -0.756224,-0.7564014 -1.444847,-1.5773776 -2.058827,-2.4531226 -0.0089,-0.01193 -0.01748,-0.02402 -0.0259,-0.03626 -0.335327,-0.491833 -0.273342,-1.152655 0.147603,-1.573553 l 4.960104,-4.960105 c -0.584835,-1.378904 -0.893492,-2.873558 -0.893206,-4.416308 -4e-6,-3.021023 1.176577,-5.861 3.31301,-7.996903 2.13589,-2.135891 4.975748,-3.312316 7.996211,-3.312319 1.00803,5e-6 2.011239,0.133942 2.981897,0.398266 0.212564,0.05799 0.405719,0.174533 0.55985,0.329902 0.154132,0.155369 0.269341,0.349457 0.325933,0.56244 0.115701,0.435648 -0.0147,0.88201 -0.355108,1.222763 0,0 -3.987912,4.018995 -5.32229,5.353019 -0.139776,0.139775 -0.131403,0.472192 -0.119635,0.593342 0.142427,1.466172 0.407704,3.314046 0.621653,3.990769 l 0.08356,0.08355 m 0,0 0.08355,0.08356 c 0.676722,0.213948 2.524597,0.479225 3.990768,0.621652 0.121148,0.01176 0.453566,0.02015 0.593341,-0.119634 1.334027,-1.334381 5.353019,-5.322292 5.353019,-5.322292 0.340754,-0.3404 0.787115,-0.470808 1.222762,-0.355107 0.212983,0.05659 0.407098,0.171774 0.562442,0.325932 0.155369,0.154131 0.271917,0.347289 0.329901,0.55985 0.264323,0.97066 0.398261,1.973868 0.398266,2.981899 -3e-6,3.020463 -1.176427,5.860323 -3.312319,7.996212 -2.135894,2.13644 -4.975876,3.313011 -7.996901,3.313008 -1.54275,2.77e-4 -3.037405,-0.308371 -4.416308,-0.893207 l -4.960107,4.9601062 c -0.420897,0.4209447 -1.081719,0.4829317 -1.573554,0.1476024 -0.01228,-0.00836 -0.02432,-0.017049 -0.03625,-0.025906 C 75.68911,-6.5640148 74.868134,-7.252639 74.11156,-8.0090376 L 86.326243,-20.223713 74.111739,-8.008853"
       class="ico-secondary"
       fill="currentColor"
       style="stroke-width:0.276777" /></g><circle
     style="fill:#3f51b5;stroke-width:3.07702;stroke-linecap:round;stroke-linejoin:round;paint-order:stroke markers fill"
     id="path2171"
     cx="32"
     cy="32"
     r="24.748812" /><path
     id="circle2173"
     style="fill:none;stroke-width:3.25;stroke-linecap:round;stroke-linejoin:round;paint-order:stroke markers fill;font-variation-settings:normal;opacity:1;vector-effect:none;fill-opacity:1;stroke:#000000;stroke-miterlimit:4;stroke-dasharray:none;stroke-dashoffset:0;stroke-opacity:1;marker-end:url(#marker3263);stop-color:#000000;stop-opacity:1"
     d="M -50.244919,56.748812 C -63.91331,56.748812 -74.993731,45.668391 -74.993731,32"
     sodipodi:nodetypes="cc" /><path
     id="path2176"
     style="fill:none;stroke-width:3.25;stroke-linecap:round;stroke-linejoin:round;paint-order:stroke markers fill;font-variation-settings:normal;opacity:1;vector-effect:none;fill-opacity:1;stroke:#000000;stroke-miterlimit:4;stroke-dasharray:none;stroke-dashoffset:0;stroke-opacity:1;marker-end:url(#marker3175);stop-color:#000000;stop-opacity:1"
     d="m -25.496107,32 c 0,13.668391 -11.080421,24.748812 -24.748812,24.748812"
     sodipodi:nodetypes="cc" /><path
     id="path2178"
     style="fill:none;stroke-width:3.25;stroke-linecap:round;stroke-linejoin:round;paint-order:stroke markers fill;font-variation-settings:normal;opacity:1;vector-effect:none;fill-opacity:1;stroke:#000000;stroke-miterlimit:4;stroke-dasharray:none;stroke-dashoffset:0;stroke-opacity:1;marker-end:url(#marker2994);stop-color:#000000;stop-opacity:1"
     d="m -50.244919,7.2511883 c 13.668391,0 24.748812,11.0804207 24.748812,24.7488117"
     sodipodi:nodetypes="cc" /><path
     id="path2180"
     style="fill:none;stroke-width:3.25;stroke-linecap:round;stroke-linejoin:round;paint-order:stroke markers fill;stroke:#000000;stroke-opacity:1;stroke-miterlimit:4;stroke-dasharray:none;marker-end:url(#TriangleOutS)"
     d="m -74.993731,32 c 0,-13.668391 11.080421,-24.7488117 24.748812,-24.7488117"
     sodipodi:nodetypes="cc" /></svg>
