<?xml version="1.0" encoding="UTF-8" standalone="no"?>
<svg
   xmlns:dc="http://purl.org/dc/elements/1.1/"
   xmlns:cc="http://creativecommons.org/ns#"
   xmlns:rdf="http://www.w3.org/1999/02/22-rdf-syntax-ns#"
   xmlns:svg="http://www.w3.org/2000/svg"
   xmlns="http://www.w3.org/2000/svg"
   xmlns:sodipodi="http://sodipodi.sourceforge.net/DTD/sodipodi-0.dtd"
   xmlns:inkscape="http://www.inkscape.org/namespaces/inkscape"
   version="1.1"
   width="512"
   height="512"
   x="0"
   y="0"
   viewBox="0 0 231.233 231.233"
   style="enable-background:new 0 0 512 512"
   xml:space="preserve"
   id="svg7838"
   sodipodi:docname="settings_01_v2.1.svg"
   inkscape:version="1.0.2 (e86c8708, 2021-01-15)"><metadata
     id="metadata7844"><rdf:RDF><cc:Work
         rdf:about=""><dc:format>image/svg+xml</dc:format><dc:type
           rdf:resource="http://purl.org/dc/dcmitype/StillImage" /><dc:title></dc:title></cc:Work></rdf:RDF></metadata><defs
     id="defs7842">































</defs><sodipodi:namedview
     pagecolor="#ffffff"
     bordercolor="#666666"
     borderopacity="1"
     objecttolerance="10"
     gridtolerance="10"
     guidetolerance="10"
     inkscape:pageopacity="0"
     inkscape:pageshadow="2"
     inkscape:window-width="2052"
     inkscape:window-height="1665"
     id="namedview7840"
     showgrid="false"
     inkscape:zoom="1"
     inkscape:cx="358.02938"
     inkscape:cy="205.1836"
     inkscape:window-x="3660"
     inkscape:window-y="260"
     inkscape:window-maximized="0"
     inkscape:current-layer="svg7838" /><path
     id="path8524"
     style="fill:#000000;fill-opacity:1;stroke-width:0.786504"
     d="M 104.88859,3.7500003e-7 C 96.874094,3.7500003e-7 89.708753,5.0882604 87.06609,12.662321 l -4.47481,12.84402 c -10.397623,3.8067 -19.946172,9.32776 -28.471905,16.45351 l -13.394442,-2.54834 c -7.872942,-1.49436 -15.863044,2.16355 -19.874232,9.1084 l -10.720847,18.57668 c -4.011179,6.94486 -3.18472,15.69094 2.045549,21.76278 l 8.894937,10.31156 c -1.820761,10.525819 -1.932439,21.718029 0,32.891139 l -8.894937,10.31156 c -5.230269,6.07183 -6.056728,14.81792 -2.045549,21.76278 l 10.720847,18.57668 c 4.011188,6.94486 11.993432,10.60276 19.874232,9.1084 l 13.394442,-2.54834 c 8.525733,7.12575 18.074282,12.64682 28.471905,16.45351 l 4.47481,12.84314 c 2.642663,7.57406 9.808004,12.6632 17.8225,12.6632 h 21.45581 c 8.0145,0 15.17984,-5.08914 17.82251,-12.6632 l 4.47481,-12.84314 c 10.39761,-3.80669 19.94617,-9.32776 28.4719,-16.45351 l 13.39444,2.54834 c 7.87294,1.49436 15.86305,-2.16354 19.87424,-9.1084 l 10.72084,-18.57668 c 4.01119,-6.94486 3.18472,-15.69095 -2.04555,-21.76278 l -8.89493,-10.31156 c 1.82391,-10.54705 1.92852,-21.74083 0,-32.891139 l 8.89493,-10.31156 c 5.23027,-6.07184 6.05674,-14.81792 2.04555,-21.76278 L 210.3823,48.519911 c -4.01119,-6.94485 -12.0013,-10.60276 -19.87424,-9.1084 l -13.39444,2.54834 c -8.52573,-7.12575 -18.07429,-12.64681 -28.4719,-16.45351 l -4.47481,-12.84402 C 141.52424,5.0882604 134.3589,3.7500003e-7 126.3444,3.7500003e-7 Z M 115.6165,48.963591 c 36.812,0 66.65378,29.84091 66.65378,66.652909 0,12.495 -3.44472,24.18146 -9.42771,34.17546 l -29.18639,-29.1864 c 2.113,-4.982 3.22943,-10.38289 3.22842,-15.95689 0,-10.914999 -4.25087,-21.176539 -11.96987,-28.893539 -7.717,-7.717 -17.9779,-11.96723 -28.89089,-11.96723 -3.642,0 -7.267656,0.48456 -10.774656,1.43956 -1.536,0.419 -2.79208,1.68501 -3.201084,3.22401 -0.417999,1.574 0.05343,3.18648 1.283434,4.41748 0,0 14.409306,14.52057 19.230306,19.34057 0.505,0.505 0.5041,1.70947 0.4331,2.14347 l -0.0459,0.31754 c -0.486,5.30001 -1.4225,11.662169 -2.1955,14.107169 -0.104,0.103 -0.20185,0.1895 -0.30785,0.2955 -0.111,0.111 -0.2132,0.21813 -0.32019,0.32814 -2.47701,0.795 -8.93664,1.74261 -14.320636,2.22461 l 8.9e-4,-0.0282 -0.24258,0.0609 c -0.043,0.005 -0.12246,0.0106 -0.22846,0.0106 -0.582,0 -1.43779,-0.1633 -2.21579,-0.9403 -5.018002,-5.018 -18.862486,-18.762799 -18.862486,-18.762799 -1.242001,-1.238 -2.516149,-1.49778 -3.365149,-1.49778 -1.979002,0 -3.750979,1.4297 -4.308982,3.4807 -3.811,14.102999 0.229196,29.273449 10.546199,39.591459 7.719,7.71799 17.981188,11.96811 28.896184,11.96811 5.57399,0 10.97501,-1.11543 15.95601,-3.22843 l 29.50306,29.50306 c -10.358,6.628 -22.65829,10.48621 -35.86729,10.48621 -36.812998,0 -66.653788,-29.8409 -66.653788,-66.6529 0,-36.811999 29.841789,-66.652909 66.653788,-66.652909 z" /></svg>
