<?xml version="1.0" encoding="UTF-8" standalone="no"?>
<svg
   xmlns:dc="http://purl.org/dc/elements/1.1/"
   xmlns:cc="http://creativecommons.org/ns#"
   xmlns:rdf="http://www.w3.org/1999/02/22-rdf-syntax-ns#"
   xmlns:svg="http://www.w3.org/2000/svg"
   xmlns="http://www.w3.org/2000/svg"
   xmlns:sodipodi="http://sodipodi.sourceforge.net/DTD/sodipodi-0.dtd"
   xmlns:inkscape="http://www.inkscape.org/namespaces/inkscape"
   version="1.1"
   width="512"
   height="512"
   x="0"
   y="0"
   viewBox="0 0 231.233 231.233"
   style="enable-background:new 0 0 512 512"
   xml:space="preserve"
   id="svg7838"
   sodipodi:docname="settings_01_v2.svg"
   inkscape:version="1.0.2 (e86c8708, 2021-01-15)"><metadata
     id="metadata7844"><rdf:RDF><cc:Work
         rdf:about=""><dc:format>image/svg+xml</dc:format><dc:type
           rdf:resource="http://purl.org/dc/dcmitype/StillImage" /><dc:title></dc:title></cc:Work></rdf:RDF></metadata><defs
     id="defs7842">































</defs><sodipodi:namedview
     pagecolor="#ffffff"
     bordercolor="#666666"
     borderopacity="1"
     objecttolerance="10"
     gridtolerance="10"
     guidetolerance="10"
     inkscape:pageopacity="0"
     inkscape:pageshadow="2"
     inkscape:window-width="2052"
     inkscape:window-height="1665"
     id="namedview7840"
     showgrid="false"
     inkscape:zoom="1"
     inkscape:cx="257.02938"
     inkscape:cy="64.183599"
     inkscape:window-x="3660"
     inkscape:window-y="260"
     inkscape:window-maximized="0"
     inkscape:current-layer="svg7838" /><path
     id="path8524"
     style="fill:#000000;fill-opacity:1;stroke-width:0.786504"
     d="m 112.4905,-235.75015 c -8.0145,0 -15.179841,5.08826 -17.822504,12.66232 l -4.47481,12.84402 c -10.397623,3.8067 -19.946172,9.32776 -28.471905,16.45351 l -13.394442,-2.54834 c -7.872942,-1.49436 -15.863044,2.16355 -19.874232,9.1084 l -10.720847,18.57668 c -4.011179,6.94486 -3.18472,15.69094 2.045549,21.76278 l 8.894937,10.31156 c -1.820761,10.52582 -1.932439,21.71803 0,32.89114 l -8.894937,10.311562 c -5.230269,6.07183 -6.056728,14.81792 -2.045549,21.762773 l 10.720847,18.576686 c 4.011188,6.944857 11.993432,10.602763 19.874232,9.108399 l 13.394442,-2.548342 c 8.525733,7.125754 18.074282,12.646819 28.471905,16.453513 l 4.47481,12.843141 c 2.642663,7.5740617 9.808004,12.6631965 17.822504,12.6631965 h 21.45581 c 8.0145,0 15.17984,-5.0891348 17.82251,-12.6631965 l 4.47481,-12.843141 c 10.39761,-3.806694 19.94617,-9.327759 28.4719,-16.453513 l 13.39444,2.548342 c 7.87294,1.494364 15.86305,-2.163542 19.87424,-9.108399 l 10.72084,-18.576686 c 4.01119,-6.944853 3.18472,-15.690943 -2.04555,-21.762773 l -8.89493,-10.311562 c 1.82391,-10.54705 1.92852,-21.74083 0,-32.89114 l 8.89493,-10.31156 c 5.23027,-6.07184 6.05674,-14.81792 2.04555,-21.76278 l -10.72084,-18.57668 c -4.01119,-6.94485 -12.0013,-10.60276 -19.87424,-9.1084 l -13.39444,2.54834 c -8.52573,-7.12575 -18.07429,-12.64681 -28.4719,-16.45351 l -4.47481,-12.84402 c -2.64267,-7.57406 -9.80801,-12.66232 -17.82251,-12.66232 z m 10.72791,48.96359 c 36.812,0 66.65378,29.84091 66.65378,66.65291 0,12.495 -3.44472,24.181458 -9.42771,34.175456 l -29.18639,-29.186396 c 2.113,-4.982 3.22943,-10.38289 3.22842,-15.95689 0,-10.915 -4.25087,-21.17654 -11.96987,-28.89354 -7.717,-7.717 -17.9779,-11.96723 -28.89089,-11.96723 -3.642,0 -7.26766,0.48456 -10.77466,1.43956 -1.536,0.419 -2.79208,1.68501 -3.201084,3.22401 -0.417999,1.574 0.05343,3.18648 1.283434,4.41748 0,0 14.40931,14.52057 19.23031,19.34057 0.505,0.505 0.5041,1.70947 0.4331,2.14347 l -0.0459,0.31754 c -0.486,5.30001 -1.4225,11.66217 -2.1955,14.10717 -0.104,0.103 -0.20185,0.1895 -0.30785,0.2955 -0.111,0.111 -0.2132,0.21813 -0.32019,0.32814 -2.47701,0.795 -8.93664,1.74261 -14.32064,2.22461 l 8.9e-4,-0.0282 -0.24258,0.0609 c -0.043,0.005 -0.12246,0.0106 -0.22846,0.0106 -0.582,0 -1.43779,-0.1633 -2.21579,-0.9403 -5.018002,-5.018 -18.862486,-18.7628 -18.862486,-18.7628 -1.242001,-1.238 -2.516149,-1.49778 -3.365149,-1.49778 -1.979002,0 -3.750979,1.4297 -4.308982,3.4807 -3.811,14.103 0.229196,29.27345 10.546199,39.59146 7.719,7.717993 17.981188,11.968109 28.896188,11.968109 5.57399,0 10.97501,-1.115428 15.95601,-3.228428 l 29.50306,29.503059 c -10.358,6.628 -22.65829,10.486213 -35.86729,10.486213 -36.813002,0 -66.653792,-29.840903 -66.653792,-66.652903 0,-36.812 29.841789,-66.65291 66.653792,-66.65291 z" /><circle
     style="fill:#01579b;stroke:none;stroke-width:3.3872;stroke-linecap:round;stroke-linejoin:round;paint-order:stroke markers fill"
     id="path8520"
     cx="-162.99542"
     cy="-358.35623"
     r="66.654045" /><g
     id="g7836">
<path
   d="M230.505,102.78c-0.365-3.25-4.156-5.695-7.434-5.695c-10.594,0-19.996-6.218-23.939-15.842  c-4.025-9.855-1.428-21.346,6.465-28.587c2.486-2.273,2.789-6.079,0.705-8.721c-5.424-6.886-11.586-13.107-18.316-18.498  c-2.633-2.112-6.502-1.818-8.787,0.711c-6.891,7.632-19.27,10.468-28.836,6.477c-9.951-4.187-16.232-14.274-15.615-25.101  c0.203-3.403-2.285-6.36-5.676-6.755c-8.637-1-17.35-1.029-26.012-0.068c-3.348,0.37-5.834,3.257-5.723,6.617  c0.375,10.721-5.977,20.63-15.832,24.667c-9.451,3.861-21.744,1.046-28.621-6.519c-2.273-2.492-6.074-2.798-8.725-0.731  c-6.928,5.437-13.229,11.662-18.703,18.492c-2.133,2.655-1.818,6.503,0.689,8.784c8.049,7.289,10.644,18.879,6.465,28.849  c-3.99,9.505-13.859,15.628-25.156,15.628c-3.666-0.118-6.275,2.345-6.68,5.679c-1.016,8.683-1.027,17.535-0.049,26.289  c0.365,3.264,4.268,5.688,7.582,5.688c10.07-0.256,19.732,5.974,23.791,15.841c4.039,9.855,1.439,21.341-6.467,28.592  c-2.473,2.273-2.789,6.07-0.701,8.709c5.369,6.843,11.537,13.068,18.287,18.505c2.65,2.134,6.504,1.835,8.801-0.697  c6.918-7.65,19.295-10.481,28.822-6.482c9.98,4.176,16.258,14.262,15.645,25.092c-0.201,3.403,2.293,6.369,5.672,6.755  c4.42,0.517,8.863,0.773,13.32,0.773c4.23,0,8.461-0.231,12.692-0.702c3.352-0.37,5.834-3.26,5.721-6.621  c-0.387-10.716,5.979-20.626,15.822-24.655c9.514-3.886,21.752-1.042,28.633,6.512c2.285,2.487,6.063,2.789,8.725,0.73  c6.916-5.423,13.205-11.645,18.703-18.493c2.135-2.65,1.832-6.503-0.689-8.788c-8.047-7.284-10.656-18.879-6.477-28.839  c3.928-9.377,13.43-15.673,23.65-15.673l1.43,0.038c3.318,0.269,6.367-2.286,6.768-5.671  C231.476,120.379,231.487,111.537,230.505,102.78z M115.616,182.27c-36.813,0-66.654-29.841-66.654-66.653  s29.842-66.653,66.654-66.653s66.654,29.841,66.654,66.653c0,12.495-3.445,24.182-9.428,34.176l-29.186-29.187  c2.113-4.982,3.229-10.383,3.228-15.957c0-10.915-4.251-21.176-11.97-28.893c-7.717-7.717-17.978-11.967-28.891-11.967  c-3.642,0-7.267,0.484-10.774,1.439c-1.536,0.419-2.792,1.685-3.201,3.224c-0.418,1.574,0.053,3.187,1.283,4.418  c0,0,14.409,14.52,19.23,19.34c0.505,0.505,0.504,1.71,0.433,2.144l-0.045,0.317c-0.486,5.3-1.423,11.662-2.196,14.107  c-0.104,0.103-0.202,0.19-0.308,0.296c-0.111,0.111-0.213,0.218-0.32,0.328c-2.477,0.795-8.937,1.743-14.321,2.225l0.001-0.029  l-0.242,0.061c-0.043,0.005-0.123,0.011-0.229,0.011c-0.582,0-1.438-0.163-2.216-0.94c-5.018-5.018-18.862-18.763-18.862-18.763  c-1.242-1.238-2.516-1.498-3.365-1.498c-1.979,0-3.751,1.43-4.309,3.481c-3.811,14.103,0.229,29.273,10.546,39.591  c7.719,7.718,17.981,11.968,28.896,11.968c5.574,0,10.975-1.115,15.956-3.228l29.503,29.503  C141.125,178.412,128.825,182.27,115.616,182.27z"
   fill="#000000"
   data-original="#000000"
   style=""
   id="path7804" />
<g
   id="g7806">
</g>
<g
   id="g7808">
</g>
<g
   id="g7810">
</g>
<g
   id="g7812">
</g>
<g
   id="g7814">
</g>
<g
   id="g7816">
</g>
<g
   id="g7818">
</g>
<g
   id="g7820">
</g>
<g
   id="g7822">
</g>
<g
   id="g7824">
</g>
<g
   id="g7826">
</g>
<g
   id="g7828">
</g>
<g
   id="g7830">
</g>
<g
   id="g7832">
</g>
<g
   id="g7834">
</g>
</g><g
     id="g8433"
     style="fill:#01579b"
     transform="matrix(1.632653,0,0,1.632653,-216.88227,119.46468)"><circle
       cx="33.005962"
       cy="-2.3580546"
       r="26.977184"
       fill="#000000"
       data-original="#000000"
       id="circle4136"
       style="fill:#01579b;stroke-width:0.481735" /><path
       d="m 90.915379,7.7155185 c 1.117145,-6.4600721 1.181216,-13.3166125 0,-20.1461755 l 5.448428,-6.315552 c 3.203541,-3.718997 3.709363,-9.075895 1.252512,-13.329619 l -6.566054,-11.378591 c -2.456851,-4.253724 -7.351283,-6.493793 -12.173454,-5.578496 l -8.203955,1.560823 c -5.222012,-4.364523 -11.07028,-7.746306 -17.438822,-10.077906 l -2.741075,-7.866739 c -1.618631,-4.639112 -6.007241,-7.755941 -10.916125,-7.755941 H 26.435092 c -4.908884,0 -9.297494,3.116829 -10.916125,7.755941 l -2.741075,7.866739 c -6.3685419,2.3316 -12.21681001,5.713383 -17.4388221,10.077906 l -8.2039539,-1.560823 c -4.822172,-0.915297 -9.716604,1.324772 -12.173455,5.578496 l -6.566054,11.378591 c -2.45685,4.253724 -1.951028,9.610622 1.252512,13.329619 l 5.448428,6.315552 c -1.115217,6.4470651 -1.183624,13.30264196 0,20.1461755 l -5.448428,6.3155515 c -3.20354,3.718997 -3.709362,9.075895 -1.252512,13.329619 l 6.566054,11.378591 c 2.456851,4.253724 7.346466,6.493794 12.173455,5.578496 l 8.2039539,-1.560822 c 5.22201209,4.364523 11.0702802,7.746305 17.4388221,10.077905 l 2.741075,7.866739 c 1.618631,4.639113 6.007241,7.755941 10.916125,7.755941 h 13.141742 c 4.908884,0 9.297494,-3.116828 10.916125,-7.755941 l 2.741075,-7.866739 c 6.368542,-2.3316 12.21681,-5.713382 17.438822,-10.077905 l 8.203955,1.560822 c 4.822171,0.915298 9.716603,-1.324772 12.173454,-5.578496 L 97.616319,27.360689 C 100.07317,23.106965 99.567348,17.750067 96.363807,14.03107 Z M 33.005963,32.3269 c -19.125378,0 -34.6849508,-15.559573 -34.6849508,-34.6849511 0,-19.1253779 15.5595728,-34.6849509 34.6849508,-34.6849509 19.125379,0 34.684951,15.559573 34.684951,34.6849509 0,19.1253781 -15.559572,34.6849511 -34.684951,34.6849511 z"
       fill="#000000"
       data-original="#000000"
       id="path4138"
       style="fill:#01579b;stroke-width:0.481735" /></g><path
     d="m -48.106425,382.78874 c -0.365,-3.25 -4.156,-5.695 -7.434,-5.695 -10.594,0 -19.996,-6.218 -23.939,-15.842 -4.025,-9.855 -1.428,-21.34601 6.465,-28.58701 2.486,-2.273 2.789,-6.079 0.705,-8.721 -5.424,-6.886 -11.586,-13.107 -18.316,-18.498 -2.633,-2.112 -6.502,-1.818 -8.787,0.711 -6.890995,7.632 -19.269995,10.468 -28.835995,6.477 -9.951,-4.187 -16.232,-14.274 -15.615,-25.101 0.203,-3.403 -2.285,-6.36 -5.676,-6.755 -8.637,-1 -17.35,-1.029 -26.012,-0.068 -3.348,0.37 -5.834,3.257 -5.723,6.617 0.375,10.721 -5.977,20.63 -15.832,24.667 -9.451,3.861 -21.744,1.046 -28.621,-6.519 -2.273,-2.492 -6.074,-2.798 -8.725,-0.731 -6.928,5.437 -13.229,11.662 -18.703,18.492 -2.133,2.655 -1.818,6.503 0.689,8.784 8.049,7.289 10.644,18.87901 6.465,28.84901 -3.99,9.505 -13.859,15.628 -25.156,15.628 -3.666,-0.118 -6.275,2.345 -6.68,5.679 -1.016,8.683 -1.027,17.535 -0.049,26.289 0.365,3.264 4.268,5.688 7.582,5.688 10.07,-0.256 19.732,5.974 23.791,15.841 4.039,9.855 1.439,21.341 -6.467,28.592 -2.473,2.273 -2.789,6.07 -0.701,8.709 5.369,6.843 11.537,13.068 18.287,18.505 2.65,2.134 6.504,1.835 8.801,-0.697 6.918,-7.65 19.295,-10.481 28.822,-6.482 9.98,4.176 16.258,14.262 15.645,25.092 -0.201,3.403 2.293,6.369 5.672,6.755 4.42,0.517 8.863,0.773 13.32,0.773 4.23,0 8.461,-0.231 12.692,-0.702 3.352,-0.37 5.834,-3.26 5.721,-6.621 -0.387,-10.716 5.979,-20.626 15.822,-24.655 9.514,-3.886 21.752,-1.042 28.633,6.512 2.284995,2.487 6.062995,2.789 8.724995,0.73 6.916,-5.423 13.205,-11.645 18.703,-18.493 2.135,-2.65 1.832,-6.503 -0.689,-8.788 -8.047,-7.284 -10.656,-18.879 -6.477,-28.839 3.928,-9.377 13.43,-15.673 23.65,-15.673 l 1.43,0.038 c 3.318,0.269 6.367,-2.286 6.768,-5.671 1.021,-8.691 1.032,-17.533 0.05,-26.29 z m -114.888995,79.49 c -36.813,0 -66.654,-29.841 -66.654,-66.653 0,-36.812 29.842,-66.65301 66.654,-66.65301 36.812,0 66.653995,29.84101 66.653995,66.65301 0,12.495 -3.445,24.182 -9.427995,34.176 l -29.186,-29.187 c 2.113,-4.982 3.229,-10.383 3.228,-15.957 0,-10.915 -4.251,-21.176 -11.97,-28.893 -7.717,-7.717 -17.978,-11.96701 -28.891,-11.96701 -3.642,0 -7.267,0.48401 -10.774,1.43901 -1.536,0.419 -2.792,1.685 -3.201,3.224 -0.418,1.574 0.053,3.187 1.283,4.418 0,0 14.409,14.52 19.23,19.34 0.505,0.505 0.504,1.71 0.433,2.144 l -0.045,0.317 c -0.486,5.3 -1.423,11.662 -2.196,14.107 -0.104,0.103 -0.202,0.19 -0.308,0.296 -0.111,0.111 -0.213,0.218 -0.32,0.328 -2.477,0.795 -8.937,1.743 -14.321,2.225 l 0.001,-0.029 -0.242,0.061 c -0.043,0.005 -0.123,0.011 -0.229,0.011 -0.582,0 -1.438,-0.163 -2.216,-0.94 -5.018,-5.018 -18.862,-18.763 -18.862,-18.763 -1.242,-1.238 -2.516,-1.498 -3.365,-1.498 -1.979,0 -3.751,1.43 -4.309,3.481 -3.811,14.103 0.229,29.273 10.546,39.591 7.719,7.718 17.981,11.968 28.896,11.968 5.574,0 10.975,-1.115 15.956,-3.228 l 29.503,29.503 c -10.358,6.628 -22.658,10.486 -35.867,10.486 z"
     fill="#000000"
     data-original="#000000"
     id="path8462" /><path
     d="m -162.99542,-291.7034 c -36.813,0 -66.654,-29.841 -66.654,-66.653 0,-36.812 29.842,-66.653 66.654,-66.653 36.812,0 66.653995,29.841 66.653995,66.653 0,12.495 -3.445,24.182 -9.427995,34.176 l -29.186,-29.187 c 2.113,-4.982 3.229,-10.383 3.228,-15.957 0,-10.915 -4.251,-21.176 -11.97,-28.893 -7.717,-7.717 -17.978,-11.967 -28.891,-11.967 -3.642,0 -7.267,0.484 -10.774,1.439 -1.536,0.419 -2.792,1.685 -3.201,3.224 -0.418,1.574 0.053,3.187 1.283,4.418 0,0 14.409,14.52 19.23,19.34 0.505,0.505 0.504,1.71 0.433,2.144 l -0.045,0.317 c -0.486,5.3 -1.423,11.662 -2.196,14.107 -0.104,0.103 -0.202,0.19 -0.308,0.296 -0.111,0.111 -0.213,0.218 -0.32,0.328 -2.477,0.795 -8.937,1.743 -14.321,2.225 l 0.001,-0.029 -0.242,0.061 c -0.043,0.005 -0.123,0.011 -0.229,0.011 -0.582,0 -1.438,-0.163 -2.216,-0.94 -5.018,-5.018 -18.862,-18.763 -18.862,-18.763 -1.242,-1.238 -2.516,-1.498 -3.365,-1.498 -1.979,0 -3.751,1.43 -4.309,3.481 -3.811,14.103 0.229,29.273 10.546,39.591 7.719,7.718 17.981,11.968 28.896,11.968 5.574,0 10.975,-1.115 15.956,-3.228 l 29.503,29.503 c -10.358,6.628 -22.658,10.486 -35.867,10.486 z"
     fill="#000000"
     data-original="#000000"
     id="path8518"
     sodipodi:nodetypes="ssssccccscccccccsccccsccsccsccs" /></svg>
