<?xml version="1.0" encoding="UTF-8" standalone="no"?>
<svg
   xmlns:dc="http://purl.org/dc/elements/1.1/"
   xmlns:cc="http://creativecommons.org/ns#"
   xmlns:rdf="http://www.w3.org/1999/02/22-rdf-syntax-ns#"
   xmlns:svg="http://www.w3.org/2000/svg"
   xmlns="http://www.w3.org/2000/svg"
   xmlns:sodipodi="http://sodipodi.sourceforge.net/DTD/sodipodi-0.dtd"
   xmlns:inkscape="http://www.inkscape.org/namespaces/inkscape"
   version="1.1"
   width="512"
   height="512"
   x="0"
   y="0"
   viewBox="0 0 231.233 231.233"
   style="enable-background:new 0 0 512 512"
   xml:space="preserve"
   id="svg7838"
   sodipodi:docname="settings_01_v2.2.svg"
   inkscape:version="1.0.2 (e86c8708, 2021-01-15)"><metadata
     id="metadata7844"><rdf:RDF><cc:Work
         rdf:about=""><dc:format>image/svg+xml</dc:format><dc:type
           rdf:resource="http://purl.org/dc/dcmitype/StillImage" /><dc:title /></cc:Work></rdf:RDF></metadata><defs
     id="defs7842">































</defs><sodipodi:namedview
     pagecolor="#ffffff"
     bordercolor="#666666"
     borderopacity="1"
     objecttolerance="10"
     gridtolerance="10"
     guidetolerance="10"
     inkscape:pageopacity="0"
     inkscape:pageshadow="2"
     inkscape:window-width="2052"
     inkscape:window-height="1155"
     id="namedview7840"
     showgrid="false"
     inkscape:zoom="0.62363656"
     inkscape:cx="794.88564"
     inkscape:cy="39.158662"
     inkscape:window-x="2308"
     inkscape:window-y="351"
     inkscape:window-maximized="0"
     inkscape:current-layer="svg7838"
     inkscape:snap-global="true"
     inkscape:object-paths="true"
     inkscape:snap-intersection-paths="true"
     inkscape:snap-smooth-nodes="true"
     inkscape:snap-midpoints="true"
     inkscape:document-rotation="0" /><circle
     style="fill:#d500f9;stroke:none;stroke-width:3.38722;stroke-linecap:round;stroke-linejoin:round;paint-order:stroke markers fill"
     id="circle9256"
     cx="329.29166"
     cy="-129.20897"
     r="66.653816" /><circle
     style="fill:#d500f9;stroke:none;stroke-width:2.77987;stroke-linecap:round;stroke-linejoin:round;paint-order:stroke markers fill"
     id="circle9240"
     cx="37.331676"
     cy="-128.97823"
     r="54.702396" /><path
     id="path8524"
     style="fill:#000000;fill-opacity:1;stroke-width:0.786504"
     d="M 104.88859,3.7500003e-7 C 96.874094,3.7500003e-7 89.708753,5.0882604 87.06609,12.662321 l -4.47481,12.84402 c -10.397623,3.8067 -19.946172,9.32776 -28.471905,16.45351 l -13.394442,-2.54834 c -7.872942,-1.49436 -15.863044,2.16355 -19.874232,9.1084 l -10.720847,18.57668 c -4.011179,6.94486 -3.18472,15.69094 2.045549,21.76278 l 8.894937,10.31156 c -1.820761,10.525819 -1.932439,21.718029 0,32.891139 l -8.894937,10.31156 c -5.230269,6.07183 -6.056728,14.81792 -2.045549,21.76278 l 10.720847,18.57668 c 4.011188,6.94486 11.993432,10.60276 19.874232,9.1084 l 13.394442,-2.54834 c 8.525733,7.12575 18.074282,12.64682 28.471905,16.45351 l 4.47481,12.84314 c 2.642663,7.57406 9.808004,12.6632 17.8225,12.6632 h 21.45581 c 8.0145,0 15.17984,-5.08914 17.82251,-12.6632 l 4.47481,-12.84314 c 10.39761,-3.80669 19.94617,-9.32776 28.4719,-16.45351 l 13.39444,2.54834 c 7.87294,1.49436 15.86305,-2.16354 19.87424,-9.1084 l 10.72084,-18.57668 c 4.01119,-6.94486 3.18472,-15.69095 -2.04555,-21.76278 l -8.89493,-10.31156 c 1.82391,-10.54705 1.92852,-21.74083 0,-32.891139 l 8.89493,-10.31156 c 5.23027,-6.07184 6.05674,-14.81792 2.04555,-21.76278 L 210.3823,48.519911 c -4.01119,-6.94485 -12.0013,-10.60276 -19.87424,-9.1084 l -13.39444,2.54834 c -8.52573,-7.12575 -18.07429,-12.64681 -28.4719,-16.45351 l -4.47481,-12.84402 C 141.52424,5.0882604 134.3589,3.7500003e-7 126.3444,3.7500003e-7 Z M 115.6165,48.963591 c 36.812,0 66.65378,29.84091 66.65378,66.652909 0,12.495 -3.44472,24.18146 -9.42771,34.17546 l -29.18639,-29.1864 c 2.113,-4.982 3.22943,-10.38289 3.22842,-15.95689 0,-10.914999 -4.25087,-21.176539 -11.96987,-28.893539 -7.717,-7.717 -17.9779,-11.96723 -28.89089,-11.96723 -3.642,0 -7.267656,0.48456 -10.774656,1.43956 -1.536,0.419 -2.79208,1.68501 -3.201084,3.22401 -0.417999,1.574 0.05343,3.18648 1.283434,4.41748 0,0 14.409306,14.52057 19.230306,19.34057 0.505,0.505 0.5041,1.70947 0.4331,2.14347 l -0.0459,0.31754 c -0.486,5.30001 -1.4225,11.662169 -2.1955,14.107169 -0.104,0.103 -0.20185,0.1895 -0.30785,0.2955 -0.111,0.111 -0.2132,0.21813 -0.32019,0.32814 -2.47701,0.795 -8.93664,1.74261 -14.320636,2.22461 l 8.9e-4,-0.0282 -0.24258,0.0609 c -0.043,0.005 -0.12246,0.0106 -0.22846,0.0106 -0.582,0 -1.43779,-0.1633 -2.21579,-0.9403 -5.018002,-5.018 -18.862486,-18.762799 -18.862486,-18.762799 -1.242001,-1.238 -2.516149,-1.49778 -3.365149,-1.49778 -1.979002,0 -3.750979,1.4297 -4.308982,3.4807 -3.811,14.102999 0.229196,29.273449 10.546199,39.591459 7.719,7.71799 17.981188,11.96811 28.896184,11.96811 5.57399,0 10.97501,-1.11543 15.95601,-3.22843 l 29.50306,29.50306 c -10.358,6.628 -22.65829,10.48621 -35.86729,10.48621 -36.812998,0 -66.653788,-29.8409 -66.653788,-66.6529 0,-36.811999 29.841789,-66.652909 66.653788,-66.652909 z" /><g
     id="g9244"><path
       d="m 9.291676,-133.96705 c -2.113,4.982 -3.229,10.383 -3.228,15.957 0,10.915 4.251,21.175999 11.97,28.892999 7.717,7.717 17.978,11.967 28.891,11.967 3.642,0 7.267,-0.484 10.774,-1.439 1.536,-0.419 2.792,-1.685 3.201,-3.224 0.418,-1.574 -0.053,-3.187 -1.283,-4.418 0,0 -14.409,-14.519999 -19.23,-19.339999 -0.505,-0.505 -0.504,-1.71 -0.433,-2.144 l 0.045,-0.317 c 0.486,-5.3 1.423,-11.662 2.196,-14.107 0.104,-0.103 0.202,-0.19 0.308,-0.296 0.111,-0.111 0.213,-0.218 0.32,-0.328 2.477,-0.795 8.937,-1.743 14.321,-2.225 l -10e-4,0.029 0.242,-0.061 c 0.043,-0.005 0.123,-0.011 0.229,-0.011 0.582,0 1.438,0.163 2.216,0.94 5.017999,5.018 18.861999,18.763 18.861999,18.763 1.242,1.238 2.516,1.498 3.365,1.498 1.979,0 3.751001,-1.43 4.309001,-3.481 3.811,-14.103 -0.229,-29.273 -10.546001,-39.591 -7.719,-7.718 -17.980999,-11.968 -28.895999,-11.968 -5.574,0 -10.975,1.115 -15.956,3.228"
       fill="#000000"
       data-original="#000000"
       id="path9212"
       sodipodi:nodetypes="cccscccccccsccccsccsccsc"
       style="fill:#ea80fc" /><path
       d="m 65.371677,-123.9894 c 2.113,-4.982 3.229,-10.383 3.228,-15.957 0,-10.915 -4.251,-21.176 -11.97,-28.893 -7.717,-7.717 -17.978,-11.967 -28.891,-11.967 -3.642,0 -7.267,0.484 -10.774,1.439 -1.536,0.419 -2.792,1.685 -3.201,3.224 -0.418,1.574 0.053,3.187 1.283,4.418 0,0 14.409,14.52 19.23,19.34 0.505,0.505 0.504,1.71 0.433,2.144 l -0.045,0.317 c -0.486,5.3 -1.423,11.662 -2.196,14.107 -0.104,0.103 -0.202,0.19 -0.308,0.296 -0.111,0.111 -0.213,0.218 -0.32,0.328 -2.477,0.795 -8.937,1.743 -14.321,2.225 l 10e-4,-0.029 -0.242,0.061 c -0.043,0.005 -0.123,0.011 -0.229,0.011 -0.582,0 -1.438,-0.163 -2.216,-0.94 -5.018,-5.018 -18.862,-18.763 -18.862,-18.763 -1.242,-1.238 -2.516,-1.498 -3.365,-1.498 -1.979,0 -3.751,1.43 -4.309,3.481 -3.811,14.103 0.229,29.273 10.546,39.591 7.719,7.718 17.981,11.967997 28.896,11.967997 5.574,0 10.975,-1.114997 15.956,-3.227997"
       fill="#000000"
       data-original="#000000"
       id="path8518"
       sodipodi:nodetypes="cccscccccccsccccsccsccsc" /></g><path
     d="m 135.2783,-82.078345 c -26.03073,-26.030715 -26.03073,-68.232275 -7.1e-4,-94.262275 26.03001,-26.03003 68.23227,-26.02931 94.26229,7e-4 26.03002,26.03002 26.03072,68.23227 7e-4,94.262273 -8.8353,8.8353 -19.53524,14.663274 -30.83268,17.499487 l 7.1e-4,-41.27595 c 5.01692,-2.02868 9.62515,-5.05863 13.56584,-9.00076 7.71807,-7.71806 11.96779,-17.97959 11.96637,-28.89449 0,-10.9135 -4.25042,-21.17432 -11.96707,-28.89097 -2.57529,-2.57529 -5.48079,-4.79632 -8.6359,-6.60085 -1.38238,-0.78983 -3.16572,-0.78276 -4.54315,0.0163 -1.40857,0.8174 -2.21607,2.29102 -2.21679,4.03121 0,0 -0.0785,20.45589 -0.0778,27.2731 -1e-5,0.71419 -0.85278,1.56555 -1.20987,1.82222 l -0.25597,0.19233 c -4.09132,3.40401 -9.2525,7.24007 -11.52797,8.42236 -0.14637,-7.1e-4 -0.27717,-0.008 -0.42709,-0.008 -0.15698,0 -0.30476,0.004 -0.4582,0.006 -2.31366,-1.18935 -7.55191,-5.08693 -11.6998,-8.55317 l 0.0212,-0.0198 -0.21426,-0.12799 c -0.0339,-0.0269 -0.0948,-0.0792 -0.1697,-0.15414 -0.41154,-0.41153 -0.90157,-1.13208 -0.90226,-2.23163 0,-7.09653 -0.07,-26.60489 -0.07,-26.60489 -0.003,-1.75362 -0.71984,-2.83834 -1.32017,-3.43866 -1.39937,-1.39936 -3.66352,-1.64119 -5.50836,-0.58549 -12.66712,7.27754 -20.53722,20.86107 -20.53792,35.45222 7.1e-4,10.91561 4.25183,21.17714 11.9699,28.89521 3.94142,3.94141 8.54892,6.97207 13.56514,9.00004 l 0,41.723555 c -12.0109,-2.638371 -23.43633,-8.607767 -32.7765,-17.947942 z"
     fill="#000000"
     data-original="#000000"
     id="path9214"
     sodipodi:nodetypes="ssssccccscccccccsccccsccsccsccs" /><g
     id="g9250"
     transform="translate(-108.39047)"><path
       d="m 9.291676,-133.96705 c -2.113,4.982 -3.229,10.383 -3.228,15.957 0,10.915 4.251,21.175999 11.97,28.892999 7.717,7.717 17.978,11.967 28.891,11.967 3.642,0 7.267,-0.484 10.774,-1.439 1.536,-0.419 2.792,-1.685 3.201,-3.224 0.418,-1.574 -0.053,-3.187 -1.283,-4.418 0,0 -14.409,-14.519999 -19.23,-19.339999 -0.505,-0.505 -0.504,-1.71 -0.433,-2.144 l 0.045,-0.317 c 0.486,-5.3 1.423,-11.662 2.196,-14.107 0.104,-0.103 0.202,-0.19 0.308,-0.296 0.111,-0.111 0.213,-0.218 0.32,-0.328 2.477,-0.795 8.937,-1.743 14.321,-2.225 l -10e-4,0.029 0.242,-0.061 c 0.043,-0.005 0.123,-0.011 0.229,-0.011 0.582,0 1.438,0.163 2.216,0.94 5.017999,5.018 18.861999,18.763 18.861999,18.763 1.242,1.238 2.516,1.498 3.365,1.498 1.979,0 3.751001,-1.43 4.309001,-3.481 3.811,-14.103 -0.229,-29.273 -10.546001,-39.591 -7.719,-7.718 -17.980999,-11.968 -28.895999,-11.968 -5.574,0 -10.975,1.115 -15.956,3.228"
       fill="#000000"
       data-original="#000000"
       id="path9246"
       sodipodi:nodetypes="cccscccccccsccccsccsccsc"
       style="fill:#ea80fc" /><path
       d="m 65.371677,-123.9894 c 2.113,-4.982 3.229,-10.383 3.228,-15.957 0,-10.915 -4.251,-21.176 -11.97,-28.893 -7.717,-7.717 -17.978,-11.967 -28.891,-11.967 -3.642,0 -7.267,0.484 -10.774,1.439 -1.536,0.419 -2.792,1.685 -3.201,3.224 -0.418,1.574 0.053,3.187 1.283,4.418 0,0 14.409,14.52 19.23,19.34 0.505,0.505 0.504,1.71 0.433,2.144 l -0.045,0.317 c -0.486,5.3 -1.423,11.662 -2.196,14.107 -0.104,0.103 -0.202,0.19 -0.308,0.296 -0.111,0.111 -0.213,0.218 -0.32,0.328 -2.477,0.795 -8.937,1.743 -14.321,2.225 l 10e-4,-0.029 -0.242,0.061 c -0.043,0.005 -0.123,0.011 -0.229,0.011 -0.582,0 -1.438,-0.163 -2.216,-0.94 -5.018,-5.018 -18.862,-18.763 -18.862,-18.763 -1.242,-1.238 -2.516,-1.498 -3.365,-1.498 -1.979,0 -3.751,1.43 -4.309,3.481 -3.811,14.103 0.229,29.273 10.546,39.591 7.719,7.718 17.981,11.967997 28.896,11.967997 5.574,0 10.975,-1.114997 15.956,-3.227997"
       fill="#000000"
       data-original="#000000"
       id="path9248"
       sodipodi:nodetypes="cccscccccccsccccsccsccsc" /></g><circle
     style="opacity:0.481855;fill:#d500f9;stroke:none;stroke-width:2.77987;stroke-linecap:round;stroke-linejoin:round;paint-order:stroke markers fill"
     id="circle9252"
     cx="37.061134"
     cy="-220.90408"
     r="54.702396"
     transform="rotate(45)" /><path
     d="m 344.61928,-48.610736 7.1e-4,-57.243374 c 5.01692,-2.02868 9.62515,-5.05863 13.56584,-9.00076 7.71807,-7.71806 11.96779,-17.97959 11.96637,-28.89449 0,-10.9135 -4.25042,-21.17432 -11.96707,-28.89097 -2.57529,-2.57529 -5.48079,-4.79632 -8.6359,-6.60085 -1.38238,-0.78983 -3.16572,-0.78276 -4.54315,0.0163 -1.40857,0.8174 -2.21607,2.29102 -2.21679,4.03121 0,0 -0.0785,20.45589 -0.0778,27.2731 -1e-5,0.71419 -0.85278,1.56555 -1.20987,1.82222 l -0.25597,0.19233 c -4.09132,3.40401 -9.2525,7.24007 -11.52797,8.42236 -0.14637,-7.1e-4 -0.27717,-0.008 -0.42709,-0.008 -0.15698,0 -0.30476,0.004 -0.4582,0.006 -2.31366,-1.18935 -7.55191,-5.08693 -11.6998,-8.55317 l 0.0212,-0.0198 -0.21426,-0.12799 c -0.0339,-0.0269 -0.0948,-0.0792 -0.1697,-0.15414 -0.41154,-0.41153 -0.90157,-1.13208 -0.90226,-2.23163 0,-7.09653 -0.07,-26.60489 -0.07,-26.60489 -0.003,-1.75362 -0.71984,-2.83834 -1.32017,-3.43866 -1.39937,-1.39936 -3.66352,-1.64119 -5.50836,-0.58549 -12.66712,7.27754 -20.53722,20.86107 -20.53792,35.45222 7.1e-4,10.91561 4.25183,21.17714 11.9699,28.89521 3.94142,3.94141 8.54892,6.97207 13.56514,9.00004 l 0,57.690979"
     fill="#000000"
     data-original="#000000"
     id="path9254"
     sodipodi:nodetypes="ccccscccccccsccccsccsccscc" /><circle
     style="fill:#d500f9;stroke:none;stroke-width:3.38722;stroke-linecap:round;stroke-linejoin:round;paint-order:stroke markers fill"
     id="circle9258"
     cx="491.87723"
     cy="-129.20897"
     r="66.653816" /><circle
     style="fill:#673ab7;stroke:none;stroke-width:2.75073;stroke-linecap:round;stroke-linejoin:round;paint-order:stroke markers fill"
     id="circle9280"
     cx="491.87723"
     cy="-129.20897"
     r="54.129097" /><g
     id="g9278"
     transform="translate(-1.5239467e-4)"><path
       d="m 507.20571,-105.85411 c 5.01692,-2.02868 9.62515,-5.05863 13.56584,-9.00076 7.71807,-7.71806 11.96779,-17.97959 11.96637,-28.89449 0,-10.9135 -4.25042,-21.17432 -11.96707,-28.89097 -2.57529,-2.57529 -5.48079,-4.79632 -8.6359,-6.60085 -1.38238,-0.78983 -3.16572,-0.78276 -4.54315,0.0163 -1.40857,0.8174 -2.21607,2.29102 -2.21679,4.03121 0,0 -0.0785,20.45589 -0.0778,27.2731 -1e-5,0.71419 -0.85278,1.56555 -1.20987,1.82222 l -0.25597,0.19233 c -4.09132,3.40401 -9.2525,7.24007 -11.52797,8.42236 -0.14637,-7.1e-4 -0.27717,-0.008 -0.42709,-0.008 -0.15698,0 -0.30476,0.004 -0.4582,0.006 -2.31366,-1.18935 -7.55191,-5.08693 -11.6998,-8.55317 l 0.0212,-0.0198 -0.21426,-0.12799 c -0.0339,-0.0269 -0.0948,-0.0792 -0.1697,-0.15414 -0.41154,-0.41153 -0.90157,-1.13208 -0.90226,-2.23163 0,-7.09653 -0.07,-26.60489 -0.07,-26.60489 -0.003,-1.75362 -0.71984,-2.83834 -1.32017,-3.43866 -1.39937,-1.39936 -3.66352,-1.64119 -5.50836,-0.58549 -12.66712,7.27754 -20.53722,20.86107 -20.53792,35.45222 7.1e-4,10.91561 4.25183,21.17714 11.9699,28.89521 3.94142,3.94141 8.54892,6.97207 13.56514,9.00004"
       fill="#000000"
       data-original="#000000"
       id="path9260"
       sodipodi:nodetypes="cccscccccccsccccsccsccsc" /><path
       d="m 507.20571,-152.56383 c 5.01692,2.02868 9.62515,5.05863 13.56584,9.00076 7.71807,7.71806 11.96779,17.97959 11.96637,28.89449 0,10.9135 -4.25042,21.17432 -11.96707,28.89097 -2.57529,2.57529 -5.48079,4.79632 -8.6359,6.60085 -1.38238,0.78983 -3.16572,0.78276 -4.54315,-0.0163 -1.40857,-0.8174 -2.21607,-2.29102 -2.21679,-4.03121 0,0 -0.0785,-20.45589 -0.0778,-27.2731 -1e-5,-0.71419 -0.85278,-1.56555 -1.20987,-1.82222 l -0.25597,-0.19233 c -4.09132,-3.40401 -9.2525,-7.24007 -11.52797,-8.42236 -0.14637,7.1e-4 -0.27717,0.008 -0.42709,0.008 -0.15698,0 -0.30476,-0.004 -0.4582,-0.006 -2.31366,1.18935 -7.55191,5.08693 -11.6998,8.55317 l 0.0212,0.0198 -0.21426,0.12799 c -0.0339,0.0269 -0.0948,0.0792 -0.1697,0.15414 -0.41154,0.41153 -0.90157,1.13208 -0.90226,2.23163 0,7.09653 -0.07,26.60489 -0.07,26.60489 -0.003,1.75362 -0.71984,2.83834 -1.32017,3.43866 -1.39937,1.39936 -3.66352,1.64119 -5.50836,0.58549 -12.66712,-7.27754 -20.53722,-20.86107 -20.53792,-35.45222 7.1e-4,-10.91561 4.25183,-21.17714 11.9699,-28.89521 3.94142,-3.94141 8.54892,-6.97207 13.56514,-9.00004"
       fill="#000000"
       data-original="#000000"
       id="path9268"
       sodipodi:nodetypes="cccscccccccsccccsccsccsc" /></g><circle
     style="fill:#d500f9;stroke:none;stroke-width:3.38722;stroke-linecap:round;stroke-linejoin:round;paint-order:stroke markers fill"
     id="circle9282"
     cx="654.10626"
     cy="-129.20897"
     r="66.653816" /><circle
     style="fill:#673ab7;stroke:none;stroke-width:2.75073;stroke-linecap:round;stroke-linejoin:round;paint-order:stroke markers fill"
     id="circle9290"
     cx="654.10626"
     cy="-129.20897"
     r="54.129097" /><path
     id="path9284"
     style="stroke-width:2.21422"
     d="m 1482.2734,-234.38477 c 11.1086,-4.49193 21.3116,-11.20095 30.0371,-19.92968 17.0895,-17.08946 26.4993,-39.81056 26.4961,-63.97852 0,-24.16485 -9.4117,-46.88437 -26.498,-63.9707 -5.7023,-5.70225 -12.135,-10.61962 -19.1211,-14.61524 -3.0609,-1.74885 -7.0087,-1.73218 -10.0586,0.0371 -3.1189,1.8099 -4.9066,5.07263 -4.9082,8.92578 0,0 -0.1754,45.2939 -0.1738,60.38868 0,1.58137 -1.9259,3.41446 -2.6778,4.0332 -9.0996,7.48824 -21.0534,16.44075 -26.0918,19.05859 h -0.9472 -0.9453 c -5.0384,-2.61784 -16.9922,-11.57035 -26.0918,-19.05859 -0.7519,-0.61874 -2.6797,-2.45183 -2.6797,-4.0332 0,-15.09478 -0.1719,-60.38868 -0.1719,-60.38868 -0,-3.85315 -1.7893,-7.11588 -4.9082,-8.92578 -1.525,-0.88464 -3.2744,-1.33142 -5.0254,-1.33789 -1.751,-0.006 -3.5027,0.42636 -5.0332,1.30078 -6.9861,3.99562 -13.4208,8.91299 -19.123,14.61524 -17.0864,17.08633 -26.4981,39.80585 -26.4981,63.9707 -0,24.16796 9.4066,46.88906 26.4961,63.97852 8.7256,8.72873 18.9305,15.43775 30.0391,19.92968 l 0,82.73149 h 67.8847 z"
     transform="scale(0.45162695)"
     sodipodi:nodetypes="cccscccsscccsccsscscccccc" /><path
     id="circle9297"
     style="fill:#673ab7;stroke:none;stroke-width:6.09071;stroke-linecap:round;stroke-linejoin:round;paint-order:stroke markers fill"
     d="M 1728.5078 -398.17969 C 1726.7568 -398.18633 1725.0051 -397.75332 1723.4746 -396.87891 C 1716.4885 -392.88329 1710.0538 -387.96592 1704.3516 -382.26367 C 1687.2652 -365.17734 1677.8535 -342.45782 1677.8535 -318.29297 C 1677.8535 -294.12501 1687.2601 -271.40391 1704.3496 -254.31445 C 1713.0752 -245.58572 1723.2801 -238.8767 1734.3887 -234.38477 L 1734.3887 -171.12695 C 1745.1519 -167.95407 1756.541 -166.24219 1768.332 -166.24219 C 1780.1218 -166.24219 1791.5112 -167.95276 1802.2734 -171.125 L 1802.2734 -234.38477 C 1813.3821 -238.8767 1823.585 -245.58572 1832.3105 -254.31445 C 1849.4 -271.40391 1858.8099 -294.12501 1858.8066 -318.29297 C 1858.8066 -342.45782 1849.3949 -365.17734 1832.3086 -382.26367 C 1826.6063 -387.96592 1820.1736 -392.88329 1813.1875 -396.87891 C 1810.1266 -398.62776 1806.1788 -398.61118 1803.1289 -396.8418 C 1800.01 -395.0319 1798.2223 -391.76917 1798.2207 -387.91602 C 1798.2207 -387.91602 1798.0453 -342.62212 1798.0469 -327.52734 C 1798.0469 -325.94597 1796.121 -324.11288 1795.3691 -323.49414 C 1786.2695 -316.0059 1774.3157 -307.05339 1769.2773 -304.43555 L 1768.3301 -304.43555 L 1767.3848 -304.43555 C 1762.3464 -307.05339 1750.3926 -316.0059 1741.293 -323.49414 C 1740.5411 -324.11288 1738.6133 -325.94597 1738.6133 -327.52734 C 1738.6133 -342.62212 1738.4414 -387.91602 1738.4414 -387.91602 C 1738.4414 -391.76917 1736.6521 -395.0319 1733.5332 -396.8418 C 1732.0082 -397.72642 1730.2588 -398.17322 1728.5078 -398.17969 z "
     transform="scale(0.45162695)" /><path
     id="primary"
     style="stroke-width:1"
     d="m 416.54002,-27.266181 c -8.01449,0 -15.17984,5.088253 -17.8225,12.662314 l -4.47481,12.8440234 C 383.84508,2.0468568 374.29654,7.5679177 365.7708,14.693667 l -13.39444,-2.54834 c -7.87294,-1.49436 -15.86305,2.163548 -19.87423,9.108397 l -10.72085,18.57669 c -4.01118,6.944857 -3.18472,15.690933 2.04555,21.762773 l 8.89494,10.31156 c -1.82077,10.525817 -1.93244,21.718031 0,32.891143 l -8.89494,10.31156 c -5.23027,6.07183 -6.05673,14.81792 -2.04555,21.76277 l 10.72085,18.57669 c 4.01118,6.94486 11.99343,10.60276 19.87423,9.1084 l 13.39444,-2.54834 c 8.52574,7.12575 18.07428,12.64682 28.47191,16.45351 l 4.47481,12.84314 c 2.64266,7.57406 9.80801,12.6632 17.8225,12.6632 h 21.45582 c 8.01449,0 15.17983,-5.08914 17.8225,-12.6632 l 4.47481,-12.84314 c 10.39761,-3.80669 19.94617,-9.32776 28.4719,-16.45351 l 13.39445,2.54834 c 7.87294,1.49436 15.86304,-2.16354 19.87423,-9.1084 l 10.72085,-18.57669 c 4.01119,-6.94485 3.18472,-15.69094 -2.04555,-21.76277 l -8.89494,-10.31156 c 1.82391,-10.547048 1.92852,-21.740835 0,-32.891143 l 8.89494,-10.31156 c 5.23027,-6.07184 6.05674,-14.817916 2.04555,-21.762773 L 522.03373,21.253724 C 518.02254,14.308875 510.03244,10.650967 502.1595,12.145327 l -13.39445,2.54834 C 480.23932,7.5679177 470.69076,2.0468568 460.29315,-1.7598436 l -4.47481,-12.8440234 c -2.64267,-7.574061 -9.80801,-12.662314 -17.8225,-12.662314 z M 427.26793,21.69653 A 66.653815,66.653815 0 0 1 493.92172,88.350318 66.653815,66.653815 0 0 1 427.26793,155.00411 66.653815,66.653815 0 0 1 360.61414,88.350318 66.653815,66.653815 0 0 1 427.26793,21.69653 Z" /><path
     id="secondary"
     d="m 388.99164,126.62474 c -2.73224,-2.73289 -5.22025,-5.69909 -7.43857,-8.86317 -0.032,-0.0431 -0.0632,-0.0868 -0.0936,-0.13099 -1.21154,-1.777 -0.98759,-4.16456 0.53329,-5.68527 l 17.92094,-17.920941 c -2.11302,-4.982 -3.2282,-10.38221 -3.22717,-15.95619 -2e-5,-10.915004 4.25099,-21.175885 11.96995,-28.892935 7.71701,-7.717008 17.97746,-11.96745 28.89044,-11.967459 3.64203,1.6e-5 7.26664,0.483934 10.77364,1.438939 0.768,0.209502 1.46587,0.630592 2.02275,1.191943 0.55688,0.561351 0.97313,1.262592 1.1776,2.032104 0.41803,1.574004 -0.0531,3.186714 -1.28301,4.41786 0,0 -14.40839,14.520692 -19.22952,19.340542 -0.50501,0.505012 -0.47476,1.70604 -0.43224,2.143755 0.51459,5.297301 1.47304,11.973701 2.24604,14.418711 l 0.30189,0.30188 m 0,0 0.30188,0.30189 c 2.44501,0.773 9.12141,1.73145 14.41871,2.24604 0.43771,0.0425 1.63874,0.0728 2.14375,-0.43224 4.81986,-4.82114 19.34054,-19.229526 19.34054,-19.229526 1.23115,-1.229868 2.84386,-1.701034 4.41786,-1.283007 0.76951,0.204472 1.47085,0.620625 2.03211,1.177598 0.56135,0.55688 0.98244,1.25476 1.19194,2.022748 0.955,3.507009 1.43892,7.131617 1.43894,10.773647 -10e-6,10.91298 -4.25045,21.17344 -11.96746,28.890441 -7.71702,7.71899 -17.97792,11.96996 -28.89293,11.96995 -5.57398,0.001 -10.97419,-1.11415 -15.95619,-3.22717 l -17.92094,17.92094 c -1.52071,1.52088 -3.90827,1.74484 -5.68528,0.53329 -0.0444,-0.0302 -0.0879,-0.0616 -0.13098,-0.0936 -3.16409,-2.21831 -6.13028,-4.70632 -8.8638,-7.4392 L 433.1241,82.493489 388.9929,126.62597"
     class="ico-secondary"
     fill="currentColor" /></svg>
