<?xml version="1.0" encoding="UTF-8" standalone="no"?>
<!-- Created with Inkscape (http://www.inkscape.org/) -->

<svg
   xmlns:dc="http://purl.org/dc/elements/1.1/"
   xmlns:cc="http://creativecommons.org/ns#"
   xmlns:rdf="http://www.w3.org/1999/02/22-rdf-syntax-ns#"
   xmlns:svg="http://www.w3.org/2000/svg"
   xmlns="http://www.w3.org/2000/svg"
   xmlns:sodipodi="http://sodipodi.sourceforge.net/DTD/sodipodi-0.dtd"
   xmlns:inkscape="http://www.inkscape.org/namespaces/inkscape"
   width="1024"
   height="1024"
   viewBox="0 0 1024 1024"
   version="1.1"
   id="svg1448"
   inkscape:version="0.92.2 5c3e80d, 2017-08-06"
   sodipodi:docname="20201219 - Aigilist Web Favicon.svg"
   inkscape:export-filename="/Users/tl/OneDrive/Design/Aigilist/20201219 - Aigilist Web Favicon.png"
   inkscape:export-xdpi="96"
   inkscape:export-ydpi="96">
  <defs
     id="defs1442" />
  <sodipodi:namedview
     id="base"
     pagecolor="#ffffff"
     bordercolor="#666666"
     borderopacity="1.0"
     inkscape:pageopacity="0.0"
     inkscape:pageshadow="2"
     inkscape:zoom="1.890625"
     inkscape:cx="512"
     inkscape:cy="512"
     inkscape:document-units="px"
     inkscape:current-layer="layer3"
     showgrid="false"
     units="px"
     inkscape:showpageshadow="false"
     inkscape:window-width="3840"
     inkscape:window-height="2115"
     inkscape:window-x="1920"
     inkscape:window-y="0"
     inkscape:window-maximized="0"
     inkscape:snap-global="true"
     inkscape:snap-intersection-paths="true"
     inkscape:object-paths="false" />
  <metadata
     id="metadata1445">
    <rdf:RDF>
      <cc:Work
         rdf:about="">
        <dc:format>image/svg+xml</dc:format>
        <dc:type
           rdf:resource="http://purl.org/dc/dcmitype/StillImage" />
        <dc:title />
      </cc:Work>
    </rdf:RDF>
  </metadata>
  <g
     inkscape:groupmode="layer"
     id="layer3"
     inkscape:label="Layer 1"
     transform="translate(0,-176)">
    <path
       style="color:#000000;clip-rule:nonzero;display:inline;overflow:visible;visibility:visible;opacity:1;isolation:auto;mix-blend-mode:normal;color-interpolation:sRGB;color-interpolation-filters:linearRGB;solid-color:#000000;solid-opacity:1;vector-effect:none;fill:#016fa9;fill-opacity:1;fill-rule:nonzero;stroke:none;stroke-width:153.82617188;stroke-linecap:round;stroke-linejoin:round;stroke-miterlimit:4;stroke-dasharray:none;stroke-dashoffset:0;stroke-opacity:1;paint-order:markers fill stroke;color-rendering:auto;image-rendering:auto;shape-rendering:auto;text-rendering:auto;enable-background:accumulate"
       d="M 457.61381,198.52689 C 427.57734,228.56278 427.57878,277.26209 457.61519,307.2985 487.65109,337.3344 536.34905,337.33211 566.38542,307.2985 596.4239,277.26248 596.42394,228.56156 566.38542,198.5255 536.34916,168.49186 487.64973,168.49069 457.61381,198.52689 Z M 131.3004,524.84308 C 41.191217,614.95066 41.189427,761.04546 131.30178,851.15788 L 457.61658,1177.4727 C 487.65301,1207.5091 536.35085,1207.509 566.38681,1177.4727 596.42303,1147.4367 596.42187,1098.7373 566.38819,1068.701 L 240.07338,742.38628 C 210.03694,712.34981 210.03554,663.65056 240.072,633.61468 270.10793,603.57847 318.80864,603.58102 348.84497,633.61468 L 566.38818,851.15788 C 656.50058,941.2702 802.59401,941.26705 892.70161,851.15789 982.8101,761.05025 982.807,614.9551 892.70299,524.84307 L 783.93138,416.07147 C 753.89509,386.03777 705.19431,386.03524 675.1584,416.07147 645.12196,446.10739 645.12335,494.80665 675.15978,524.84308 L 783.93138,633.61468 C 813.96503,663.65101 813.96622,712.35036 783.93,742.38628 753.89409,772.42269 705.19622,772.42269 675.15978,742.38628 L 457.61657,524.84308 C 367.50453,434.73905 221.40796,434.7345 131.3004,524.84308 Z"
       id="path897"
       inkscape:connector-curvature="0" />
  </g>
</svg>
