<?xml version="1.0" encoding="UTF-8" standalone="no"?>
<!-- Created with Inkscape (http://www.inkscape.org/) -->

<svg
   xmlns:dc="http://purl.org/dc/elements/1.1/"
   xmlns:cc="http://creativecommons.org/ns#"
   xmlns:rdf="http://www.w3.org/1999/02/22-rdf-syntax-ns#"
   xmlns:svg="http://www.w3.org/2000/svg"
   xmlns="http://www.w3.org/2000/svg"
   xmlns:sodipodi="http://sodipodi.sourceforge.net/DTD/sodipodi-0.dtd"
   xmlns:inkscape="http://www.inkscape.org/namespaces/inkscape"
   width="1024"
   height="1024"
   viewBox="0 0 1024 1024"
   version="1.1"
   id="svg1448"
   inkscape:version="0.92.2 5c3e80d, 2017-08-06"
   sodipodi:docname="20201219 - Aigilist Map Marker.svg"
   inkscape:export-filename="/Users/tl/OneDrive/Design/Aigilist/20201219 - Aigilist Web Favicon.png"
   inkscape:export-xdpi="96"
   inkscape:export-ydpi="96">
  <defs
     id="defs1442" />
  <sodipodi:namedview
     id="base"
     pagecolor="#ffffff"
     bordercolor="#666666"
     borderopacity="1.0"
     inkscape:pageopacity="0.0"
     inkscape:pageshadow="2"
     inkscape:zoom="1"
     inkscape:cx="512"
     inkscape:cy="512"
     inkscape:document-units="px"
     inkscape:current-layer="layer3"
     showgrid="false"
     units="px"
     inkscape:showpageshadow="false"
     inkscape:window-width="3840"
     inkscape:window-height="2115"
     inkscape:window-x="1920"
     inkscape:window-y="0"
     inkscape:window-maximized="0"
     inkscape:snap-global="true"
     inkscape:snap-intersection-paths="true"
     inkscape:object-paths="true"
     inkscape:snap-midpoints="true"
     inkscape:snap-smooth-nodes="true" />
  <metadata
     id="metadata1445">
    <rdf:RDF>
      <cc:Work
         rdf:about="">
        <dc:format>image/svg+xml</dc:format>
        <dc:type
           rdf:resource="http://purl.org/dc/dcmitype/StillImage" />
        <dc:title />
      </cc:Work>
    </rdf:RDF>
  </metadata>
  <g
     inkscape:groupmode="layer"
     id="layer3"
     inkscape:label="Layer 1"
     transform="translate(0,-176)">
    <path
       style="fill:#016fa9;fill-opacity:1;fill-rule:evenodd;stroke:none;stroke-width:1px;stroke-linecap:butt;stroke-linejoin:miter;stroke-opacity:1"
       d="M 512,1024 C 528.7411,1024.0021 799.13672,737.75195 799.13672,737.75195 886.83311,657.38762 936.8373,543.9498 937,425 937,312.28299 892.22334,204.18258 812.52038,124.47962 732.81742,44.776657 624.71701,0 512,0 399.28299,0 291.18258,44.776657 211.47962,124.47962 131.77666,204.18258 87,312.28299 87,425 87.198773,543.74222 137.0642,656.98653 224.51953,737.30664 224.51953,737.30664 495.2589,1023.9979 512,1024 Z"
       id="path885"
       inkscape:connector-curvature="0"
       sodipodi:nodetypes="zccsssccz"
       transform="translate(0,176)" />
    <circle
       r="350"
       cy="601"
       cx="512"
       id="circle823"
       style="color:#000000;clip-rule:nonzero;display:inline;overflow:visible;visibility:visible;opacity:1;isolation:auto;mix-blend-mode:normal;color-interpolation:sRGB;color-interpolation-filters:linearRGB;solid-color:#000000;solid-opacity:1;vector-effect:none;fill:#ffffff;fill-opacity:1;fill-rule:evenodd;stroke:none;stroke-width:15.909091;stroke-linecap:round;stroke-linejoin:round;stroke-miterlimit:4;stroke-dasharray:none;stroke-dashoffset:0;stroke-opacity:1;paint-order:markers fill stroke;color-rendering:auto;image-rendering:auto;shape-rendering:auto;text-rendering:auto;enable-background:accumulate" />
    <path
       inkscape:connector-curvature="0"
       id="path821"
       d="M 482.78871,338.0994 C 466.65578,354.23196 466.65662,380.38881 482.78943,396.52166 498.92198,412.65422 525.07816,412.653 541.21088,396.52166 557.3449,380.38902 557.3449,354.2313 541.21088,338.09865 525.07816,321.96731 498.92126,321.96668 482.78871,338.0994 Z M 307.5227,513.36691 C 259.12412,561.76453 259.12321,640.23342 307.52344,688.63365 L 482.79016,863.90038 C 498.923,880.03321 525.07908,880.03321 541.21163,863.90038 557.34435,847.76783 557.34381,821.61083 541.21245,805.47811 L 365.94569,630.2114 C 349.81279,614.07852 349.81206,587.9217 365.94488,571.78914 382.07752,555.65641 408.23506,555.65779 424.36789,571.78914 L 541.21245,688.63365 C 589.61265,737.03385 668.0808,737.03211 716.47845,688.63365 764.87656,640.23598 764.87484,561.76691 716.47919,513.3669 L 658.05692,454.94464 C 641.92418,438.81326 615.76646,438.81189 599.6339,454.94464 583.50108,471.0772 583.5018,497.23404 599.63463,513.36691 L 658.05692,571.78914 C 674.18827,587.92195 674.18892,614.07883 658.05618,630.2114 641.92363,646.34422 615.76745,646.34422 599.63463,630.2114 L 482.79016,513.36691 C 434.39014,464.97116 355.92034,464.96873 307.5227,513.36691 Z"
       style="color:#000000;clip-rule:nonzero;display:inline;overflow:visible;visibility:visible;opacity:1;isolation:auto;mix-blend-mode:normal;color-interpolation:sRGB;color-interpolation-filters:linearRGB;solid-color:#000000;solid-opacity:1;vector-effect:none;fill:#016fa9;fill-opacity:1;fill-rule:nonzero;stroke:none;stroke-width:82.62148285;stroke-linecap:round;stroke-linejoin:round;stroke-miterlimit:4;stroke-dasharray:none;stroke-dashoffset:0;stroke-opacity:1;paint-order:markers fill stroke;color-rendering:auto;image-rendering:auto;shape-rendering:auto;text-rendering:auto;enable-background:accumulate" />
  </g>
</svg>
