<?xml version="1.0" encoding="UTF-8" standalone="no"?>
<svg
   xmlns:dc="http://purl.org/dc/elements/1.1/"
   xmlns:cc="http://creativecommons.org/ns#"
   xmlns:rdf="http://www.w3.org/1999/02/22-rdf-syntax-ns#"
   xmlns:svg="http://www.w3.org/2000/svg"
   xmlns="http://www.w3.org/2000/svg"
   xmlns:sodipodi="http://sodipodi.sourceforge.net/DTD/sodipodi-0.dtd"
   xmlns:inkscape="http://www.inkscape.org/namespaces/inkscape"
   width="689.15094"
   height="95"
   viewBox="0 0 689.15095 95"
   version="1.1"
   id="svg1448"
   inkscape:version="1.0.2 (e86c8708, 2021-01-15)"
   sodipodi:docname="20210902 - Aigilist Banner Logo.svg">
  <defs
     id="defs1442" />
  <sodipodi:namedview
     id="base"
     pagecolor="#ffffff"
     bordercolor="#666666"
     borderopacity="1.0"
     inkscape:pageopacity="0.0"
     inkscape:pageshadow="2"
     inkscape:zoom="0.97493934"
     inkscape:cx="306.42905"
     inkscape:cy="47.5"
     inkscape:document-units="px"
     inkscape:current-layer="layer3"
     showgrid="false"
     units="px"
     inkscape:showpageshadow="false"
     inkscape:window-width="1920"
     inkscape:window-height="1155"
     inkscape:window-x="0"
     inkscape:window-y="23"
     inkscape:window-maximized="0"
     inkscape:snap-global="true"
     inkscape:snap-intersection-paths="true"
     inkscape:object-paths="true"
     fit-margin-top="0"
     fit-margin-left="0"
     fit-margin-right="0"
     fit-margin-bottom="0"
     inkscape:snap-midpoints="true"
     inkscape:snap-smooth-nodes="true"
     inkscape:snap-object-midpoints="true"
     inkscape:document-rotation="0" />
  <metadata
     id="metadata1445">
    <rdf:RDF>
      <cc:Work
         rdf:about="">
        <dc:format>image/svg+xml</dc:format>
        <dc:type
           rdf:resource="http://purl.org/dc/dcmitype/StillImage" />
        <dc:title></dc:title>
      </cc:Work>
    </rdf:RDF>
  </metadata>
  <g
     inkscape:groupmode="layer"
     id="layer3"
     inkscape:label="Layer 1">
    <rect
       style="color:#000000;clip-rule:nonzero;display:inline;overflow:visible;visibility:visible;opacity:1;isolation:auto;mix-blend-mode:normal;color-interpolation:sRGB;color-interpolation-filters:linearRGB;solid-color:#000000;solid-opacity:1;fill:#2196f3;fill-opacity:0;fill-rule:nonzero;stroke:none;stroke-width:132.418;stroke-linecap:round;stroke-linejoin:round;stroke-miterlimit:4;stroke-dasharray:none;stroke-dashoffset:0;stroke-opacity:1;paint-order:markers stroke fill;color-rendering:auto;image-rendering:auto;shape-rendering:auto;text-rendering:auto;enable-background:accumulate"
       id="trans_background"
       width="689.15094"
       height="95"
       x="0"
       y="0" />
    <path
       sodipodi:nodetypes="ccccc"
       id="logo-dot"
       d="m 71.501555,2.0885632 c -2.78447,2.7844168 -2.784477,7.2988884 10e-7,10.0833658 2.784423,2.784423 7.298902,2.784424 10.083366,2.02e-4 2.784659,-2.7844298 2.784665,-7.2993723 0,-10.0838096 -2.784457,-2.78421531 -7.298937,-2.78421531 -10.083367,2.418e-4 z"
       style="color:#000000;clip-rule:nonzero;display:inline;overflow:visible;visibility:visible;opacity:1;isolation:auto;mix-blend-mode:normal;color-interpolation:sRGB;color-interpolation-filters:linearRGB;solid-color:#000000;solid-opacity:1;fill:#ffffff;fill-opacity:1;fill-rule:nonzero;stroke:none;stroke-width:1.19501;stroke-linecap:round;stroke-linejoin:round;stroke-miterlimit:4;stroke-dasharray:none;stroke-dashoffset:0;stroke-opacity:1;paint-order:stroke fill markers;color-rendering:auto;image-rendering:auto;shape-rendering:auto;text-rendering:auto;enable-background:accumulate"
       inkscape:connector-curvature="0" />
    <path
       inkscape:connector-curvature="0"
       id="logo-body"
       d="M 101.7516,22.256227 A 7.1308056,7.1308056 0 1 0 91.668423,32.339404 L 101.7516,42.422581 c 0,0 1.4,1.537302 2.05917,3.514818 0.65917,1.977516 1.30338,3.207187 -2.05779,6.568359 -3.361167,3.361168 -4.592221,2.718341 -6.569737,2.059169 -1.977515,-0.659171 -3.51482,-2.059169 -3.51482,-2.059169 L 71.502069,32.339404 c 0,0 -3.505093,-3.643248 -9.090192,-5.504935 -5.585091,-1.861692 -14.438401,-1.217384 -21.160723,5.504938 -6.722323,6.722323 -7.366627,15.575623 -5.504931,21.160717 1.861696,5.585094 5.504934,9.090192 5.504934,9.090192 L 71.500688,92.839847 A 7.1308603,7.1308603 0 1 0 81.585247,82.755288 L 51.335716,52.505757 c 0,0 -1.4,-1.537306 -2.059177,-3.514813 -0.65917,-1.977514 -1.303376,-3.207191 2.057792,-6.568359 3.361175,-3.361176 4.592232,-2.718347 6.569745,-2.059178 1.977513,0.659169 3.514813,2.059177 3.514813,2.059177 l 20.166354,20.166354 c 0,0 3.503718,3.641858 9.088811,5.503553 5.585092,1.861694 14.439786,1.218766 21.162106,-5.503557 6.72232,-6.722322 7.36387,-15.575626 5.50217,-21.160721 -1.86169,-5.585095 -5.50355,-9.088809 -5.50355,-9.088809 z"
       style="color:#000000;font-style:normal;font-variant:normal;font-weight:normal;font-stretch:normal;font-size:medium;line-height:normal;font-family:sans-serif;font-variant-ligatures:normal;font-variant-position:normal;font-variant-caps:normal;font-variant-numeric:normal;font-variant-alternates:normal;font-feature-settings:normal;text-indent:0;text-align:start;text-decoration:none;text-decoration-line:none;text-decoration-style:solid;text-decoration-color:#000000;letter-spacing:normal;word-spacing:normal;text-transform:none;writing-mode:lr-tb;direction:ltr;text-orientation:mixed;dominant-baseline:auto;baseline-shift:baseline;text-anchor:start;white-space:normal;shape-padding:0;clip-rule:nonzero;display:inline;overflow:visible;visibility:visible;opacity:1;isolation:auto;mix-blend-mode:normal;color-interpolation:sRGB;color-interpolation-filters:linearRGB;solid-color:#000000;solid-opacity:1;vector-effect:none;fill:#ffffff;fill-opacity:1;fill-rule:evenodd;stroke:none;stroke-width:14.2601;stroke-linecap:round;stroke-linejoin:round;stroke-miterlimit:4;stroke-dasharray:none;stroke-dashoffset:0;stroke-opacity:1;color-rendering:auto;image-rendering:auto;shape-rendering:auto;text-rendering:auto;enable-background:accumulate" />
    <g
       transform="matrix(0.79729253,0,0,0.79729253,-707.3558,2344.3966)"
       id="logo-name-group"
       style="fill:#ffffff">
      <path
         style="color:#000000;clip-rule:nonzero;display:inline;overflow:visible;visibility:visible;opacity:1;isolation:auto;mix-blend-mode:normal;color-interpolation:sRGB;color-interpolation-filters:linearRGB;solid-color:#000000;solid-opacity:1;fill:#ffffff;fill-opacity:1;fill-rule:nonzero;stroke:none;stroke-width:6.63157;stroke-linecap:round;stroke-linejoin:round;stroke-miterlimit:4;stroke-dasharray:none;stroke-dashoffset:0;stroke-opacity:1;paint-order:stroke fill markers;color-rendering:auto;image-rendering:auto;shape-rendering:auto;text-rendering:auto;enable-background:accumulate"
         d="m 1121.8434,-2910.6401 c -7.6522,0.01 -14.6048,4.4547 -17.8451,11.3962 l -24.7928,48.1428 h 13.9249 l 6.3721,-12.3816 h 44.6818 l 6.3722,12.3816 h 13.9249 l -24.7929,-48.1428 c -3.2403,-6.9415 -10.1928,-11.3865 -17.8451,-11.3962 z m 0,12.3817 c 2.6993,0 5.177,1.4939 6.4412,3.8788 l 9.5296,18.5172 h -31.9415 l 9.5927,-18.6394 c 1.2858,-2.3178 3.7274,-3.7559 6.378,-3.7566 z"
         id="logo-name-a"
         inkscape:connector-curvature="0" />
      <path
         inkscape:connector-curvature="0"
         id="logo-name-i1"
         style="font-style:normal;font-variant:normal;font-weight:900;font-stretch:normal;font-size:medium;line-height:1000%;font-family:Venera;-inkscape-font-specification:'Venera Heavy';text-align:start;letter-spacing:16.83780000000000143px;word-spacing:8.12334000000000067px;text-anchor:start;fill:#ffffff;fill-opacity:1;stroke:none;stroke-width:2.02537000000000011px;stroke-linecap:butt;stroke-linejoin:miter;stroke-opacity:1"
         d="m 1191.4713,-2910.6401 v 59.539 h 12.2681 v -59.539 z" />
      <path
         sodipodi:nodetypes="ssssccccssssccs"
         inkscape:connector-curvature="0"
         id="logo-name-g"
         d="m 1253.536,-2910.6385 c -12.5962,4e-4 -22.8066,10.2105 -22.8066,22.8067 v 13.9241 c 0,12.5962 10.2104,22.8066 22.8066,22.8066 h 51.916 v -32 h -12.2675 v 19.9903 h -39.041 c -6.2981,0 -11.4043,-5.1062 -11.4043,-11.4043 v -12.7093 c 0,-6.2981 5.1062,-11.4041 11.4043,-11.4043 h 51.3085 v -12.0098 z"
         style="color:#000000;clip-rule:nonzero;display:inline;overflow:visible;visibility:visible;opacity:1;isolation:auto;mix-blend-mode:normal;color-interpolation:sRGB;color-interpolation-filters:linearRGB;solid-color:#000000;solid-opacity:1;fill:#ffffff;fill-opacity:1;fill-rule:nonzero;stroke:none;stroke-width:7.68617;stroke-linecap:round;stroke-linejoin:round;stroke-miterlimit:4;stroke-dasharray:none;stroke-dashoffset:0;stroke-opacity:1;paint-order:stroke fill markers;color-rendering:auto;image-rendering:auto;shape-rendering:auto;text-rendering:auto;enable-background:accumulate" />
      <path
         sodipodi:nodetypes="cccccccsssccscc"
         inkscape:connector-curvature="0"
         id="logo-name-e"
         d="m 1407.1647,-2874.8671 v -12.01 h -62.7129 c 0,-6.472 5.1062,-11.751 11.4043,-11.752 l 51.3086,-10e-4 v -12.01 h -51.916 c -12.5962,0 -22.8067,10.21 -22.8067,22.806 v 13.924 c 0,12.596 10.2105,22.807 22.8067,22.807 h 51.916 v -12.01 h -51.3086 c -6.2981,0 -11.4043,-5.283 -11.4043,-11.756 z"
         style="color:#000000;clip-rule:nonzero;display:inline;overflow:visible;visibility:visible;opacity:1;isolation:auto;mix-blend-mode:normal;color-interpolation:sRGB;color-interpolation-filters:linearRGB;solid-color:#000000;solid-opacity:1;fill:#ffffff;fill-opacity:1;fill-rule:nonzero;stroke:none;stroke-width:7.68617;stroke-linecap:round;stroke-linejoin:round;stroke-miterlimit:4;stroke-dasharray:none;stroke-dashoffset:0;stroke-opacity:1;paint-order:stroke fill markers;color-rendering:auto;image-rendering:auto;shape-rendering:auto;text-rendering:auto;enable-background:accumulate" />
      <path
         sodipodi:nodetypes="ccssccccc"
         inkscape:connector-curvature="0"
         id="logo-name-l"
         d="m 1446.4242,-2910.6401 h -12.2695 v 39.5644 c 0,11.032 8.9445,19.9746 19.9765,19.9746 h 54.7462 v -12.2681 h -52.4669 c -5.5159,0 -9.9863,-4.214 -9.9863,-9.7299 z"
         style="color:#000000;clip-rule:nonzero;display:inline;overflow:visible;visibility:visible;opacity:1;isolation:auto;mix-blend-mode:normal;color-interpolation:sRGB;color-interpolation-filters:linearRGB;solid-color:#000000;solid-opacity:1;fill:#ffffff;fill-opacity:1;fill-rule:nonzero;stroke:none;stroke-width:6.7317;stroke-linecap:round;stroke-linejoin:round;stroke-miterlimit:4;stroke-dasharray:none;stroke-dashoffset:0;stroke-opacity:1;paint-order:stroke fill markers;color-rendering:auto;image-rendering:auto;shape-rendering:auto;text-rendering:auto;enable-background:accumulate" />
      <path
         d="m 1535.8673,-2910.6401 v 59.539 h 12.2681 v -59.539 z"
         style="font-style:normal;font-variant:normal;font-weight:900;font-stretch:normal;font-size:medium;line-height:1000%;font-family:Venera;-inkscape-font-specification:'Venera Heavy';text-align:start;letter-spacing:16.83780000000000143px;word-spacing:8.12334000000000067px;text-anchor:start;fill:#ffffff;fill-opacity:1;stroke:none;stroke-width:2.02537000000000011px;stroke-linecap:butt;stroke-linejoin:miter;stroke-opacity:1"
         id="logo-name-i2"
         inkscape:connector-curvature="0" />
      <path
         sodipodi:nodetypes="ssssssccssccscccs"
         inkscape:connector-curvature="0"
         id="logo-name-s"
         d="m 1593.0761,-2910.6401 c -9.9143,0 -17.9507,8.037 -17.9507,17.952 0,9.914 8.0364,17.953 17.9507,17.953 h 38.8211 c 3.1389,0 5.6836,2.544 5.6836,5.683 0,3.139 -2.5447,5.684 -5.6836,5.684 h -56.7718 v 12.267 h 56.7718 c 9.9143,0 17.9512,-8.036 17.9512,-17.951 0,-9.914 -8.0369,-17.951 -17.9512,-17.951 h -38.8211 c -3.1389,0 -5.6836,-2.545 -5.6836,-5.683 0,-3.139 2.5447,-5.684 5.6836,-5.684 h 52.1016 v -12.27 z"
         style="color:#000000;clip-rule:nonzero;display:inline;overflow:visible;visibility:visible;opacity:1;isolation:auto;mix-blend-mode:normal;color-interpolation:sRGB;color-interpolation-filters:linearRGB;solid-color:#000000;solid-opacity:1;vector-effect:none;fill:#ffffff;fill-opacity:1;fill-rule:evenodd;stroke:none;stroke-width:20.3575;stroke-linecap:round;stroke-linejoin:round;stroke-miterlimit:4;stroke-dasharray:none;stroke-dashoffset:0;stroke-opacity:1;paint-order:markers fill stroke;color-rendering:auto;image-rendering:auto;shape-rendering:auto;text-rendering:auto;enable-background:accumulate" />
      <path
         sodipodi:nodetypes="ccccccccc"
         inkscape:connector-curvature="0"
         id="logo-name-t"
         style="font-style:normal;font-variant:normal;font-weight:900;font-stretch:normal;font-size:medium;line-height:1000%;font-family:Venera;-inkscape-font-specification:'Venera Heavy';text-align:start;letter-spacing:16.83780000000000143px;word-spacing:8.12334000000000067px;text-anchor:start;fill:#ffffff;fill-opacity:1;stroke:none;stroke-width:2.01073000000000013px;stroke-linecap:butt;stroke-linejoin:miter;stroke-opacity:1"
         d="m 1720.3339,-2851.1011 v -47.2709 h 31.2274 v -12.2681 h -74.723 v 12.2681 h 31.2274 v 47.2709 z" />
    </g>
  </g>
</svg>
