<?xml version="1.0" encoding="UTF-8" standalone="no"?>
<svg
   xmlns:dc="http://purl.org/dc/elements/1.1/"
   xmlns:cc="http://creativecommons.org/ns#"
   xmlns:rdf="http://www.w3.org/1999/02/22-rdf-syntax-ns#"
   xmlns:svg="http://www.w3.org/2000/svg"
   xmlns="http://www.w3.org/2000/svg"
   xmlns:sodipodi="http://sodipodi.sourceforge.net/DTD/sodipodi-0.dtd"
   xmlns:inkscape="http://www.inkscape.org/namespaces/inkscape"
   aria-hidden="true"
   focusable="false"
   data-prefix="fad"
   data-icon="users-cog"
   role="img"
   viewBox="0 0 640 512"
   class="svg-inline--fa fa-users-cog fa-w-20 fa-9x"
   version="1.1"
   id="automation"
   sodipodi:docname="automation_v2.svg"
   inkscape:version="1.0.2 (e86c8708, 2021-01-15)">
  <metadata
     id="metadata4749">
    <rdf:RDF>
      <cc:Work
         rdf:about="">
        <dc:format>image/svg+xml</dc:format>
        <dc:type
           rdf:resource="http://purl.org/dc/dcmitype/StillImage" />
        <dc:title></dc:title>
      </cc:Work>
    </rdf:RDF>
  </metadata>
  <defs
     id="defs4747" />
  <sodipodi:namedview
     pagecolor="#ffffff"
     bordercolor="#666666"
     borderopacity="1"
     objecttolerance="10"
     gridtolerance="10"
     guidetolerance="10"
     inkscape:pageopacity="0"
     inkscape:pageshadow="2"
     inkscape:window-width="2332"
     inkscape:window-height="1155"
     id="namedview4745"
     showgrid="false"
     inkscape:zoom="0.88391225"
     inkscape:cx="1252.4165"
     inkscape:cy="320.76338"
     inkscape:window-x="2725"
     inkscape:window-y="624"
     inkscape:window-maximized="0"
     inkscape:current-layer="svg4743"
     inkscape:snap-intersection-paths="true"
     inkscape:object-paths="true"
     inkscape:document-rotation="0"
     showguides="true"
     inkscape:guide-bbox="true"
     inkscape:snap-smooth-nodes="true"
     inkscape:snap-midpoints="false" />
  <g
     id="g1477"
     transform="translate(202.32124,1.13205)">
    <circle
       style="fill:#304ffe;stroke-width:25.0958;stroke-linecap:round;stroke-linejoin:round;paint-order:stroke markers fill"
       id="path1452"
       cx="942.90387"
       cy="159.4686"
       r="64.3545" />
    <path
       id="path1448"
       style="fill:#311b92"
       d="m 910.72656,256 c -35.52799,0.0332 -64.32025,28.82553 -64.35351,64.35352 v 32.17773 c 0,17.77091 14.40487,32.17773 32.17578,32.17773 h 128.70897 c 17.7709,0 32.1777,-14.40682 32.1777,-32.17773 V 320.35352 C 1039.4022,284.82553 1010.6081,256.0332 975.08008,256 Z"
       sodipodi:nodetypes="ccsccsccc" />
  </g>
  <g
     id="g1481"
     transform="translate(20.929679,1.131334)">
    <circle
       style="fill:#304ffe;stroke-width:43.9175;stroke-linecap:round;stroke-linejoin:round;paint-order:stroke markers fill"
       id="circle1457"
       cx="1349.4341"
       cy="143.3799"
       r="112.62" />
    <path
       id="path1450"
       style="fill:#304ffe"
       d="m 1494.5332,481.23828 c 26.6563,-10e-6 48.2656,-21.60932 48.2656,-48.26562 v -28.95899 c -0.028,-64.00291 -51.9346,-115.86374 -115.9375,-115.83594 h -8.3476 c -21.0156,10.05532 -44.1428,16.08789 -68.8789,16.08789 -24.7361,0 -47.8633,-6.03257 -68.8789,-16.08789 h -8.3457 c -64.0029,-0.0278 -115.9097,51.83303 -115.9375,115.83594 v 28.95899 c 0,26.6563 21.6093,48.26561 48.2656,48.26562 z"
       sodipodi:nodetypes="cscccscccscc" />
  </g>
  <path
     id="secondary"
     d="M 484.60352 169.04688 C 474.11491 169.04688 464.73777 175.70498 461.2793 185.61719 L 455.42188 202.42578 C 441.81446 207.4076 429.31977 214.63347 418.16211 223.95898 L 400.63281 220.625 C 390.32947 218.66932 379.8725 223.45615 374.62305 232.54492 L 360.5918 256.85547 C 355.34235 265.94424 356.42465 277.39164 363.26953 285.33789 L 374.91016 298.83203 C 372.52732 312.60723 372.38116 327.25463 374.91016 341.87695 L 363.26953 355.37109 C 356.42465 363.31733 355.34235 374.76279 360.5918 383.85156 L 374.62305 408.16406 C 379.8725 417.25283 390.31917 422.03966 400.63281 420.08398 L 418.16211 416.74805 C 429.31977 426.07356 441.81445 433.29941 455.42188 438.28125 L 461.2793 455.08984 C 464.73777 465.00205 474.11491 471.66211 484.60352 471.66211 L 512.68359 471.66211 C 523.17222 471.66211 532.54934 465.00205 536.00781 455.08984 L 541.86328 438.28125 C 555.47068 433.29941 567.96734 426.07356 579.125 416.74805 L 596.6543 420.08398 C 606.95764 422.03966 617.4146 417.25283 622.66406 408.16406 L 636.69336 383.85156 C 641.94282 374.76279 640.86246 363.31733 634.01758 355.37109 L 622.375 341.87695 C 624.76196 328.07396 624.89886 313.4245 622.375 298.83203 L 634.01758 285.33789 C 640.86246 277.39164 641.94282 265.94424 636.69336 256.85547 L 622.66406 232.54492 C 617.4146 223.45615 606.95764 218.66932 596.6543 220.625 L 579.125 223.95898 C 567.96734 214.63347 555.47068 207.4076 541.86328 202.42578 L 536.00781 185.61719 C 532.54934 175.70498 523.17222 169.04687 512.68359 169.04688 L 484.60352 169.04688 z M 498.64258 246.24219 C 539.50702 246.24219 572.75391 279.48907 572.75391 320.35352 C 572.75391 361.21798 539.50702 394.46289 498.64258 394.46289 C 457.77812 394.46289 424.5332 361.21798 424.5332 320.35352 C 424.5332 279.48907 457.77812 246.24219 498.64258 246.24219 z M 498.44141 278.14062 A 42.21423 42.21423 0 0 0 456.42969 320.35352 A 42.21423 42.21423 0 0 0 498.64258 362.56836 A 42.21423 42.21423 0 0 0 540.85742 320.35352 A 42.21423 42.21423 0 0 0 498.64258 278.14062 A 42.21423 42.21423 0 0 0 498.44141 278.14062 z "
     fill="currentColor"
     class="ico-secondary" />
  <path
     fill="currentColor"
     d="m 321.77013,255.99998 c 1.91051,0 3.72047,-0.50277 5.63098,-0.60332 a 185.36977,185.36977 0 0 1 36.5008,-59.52748 39.628004,39.628004 0 0 1 29.05987,-12.6697 38.652639,38.652639 0 0 1 19.70842,5.32932 l 7.9437,4.62545 c 0.80442,-0.50277 1.60885,-0.90498 2.41327,-1.40775 a 111.3023,111.3023 0 0 0 11.26196,-48.26552 112.61955,112.61955 0 1 0 -112.519,112.519 z m -147.7126,18.70289 A 64.162978,64.162978 0 0 0 128.70805,255.99998 H 64.354017 A 64.414361,64.414361 0 0 0 -1.1404043e-5,320.35401 v 32.17701 A 32.177014,32.177014 0 0 0 32.177003,384.70804 H 98.441542 A 147.45117,147.45117 0 0 1 174.05753,274.70287 Z M 96.531032,223.82296 A 64.354029,64.354029 0 1 0 32.177003,159.46893 64.414361,64.414361 0 0 0 96.531032,223.82296 Z M 427.55207,451.57589 c -2.31273,-1.20663 -4.62545,-2.61438 -6.83762,-3.92157 -8.24536,4.82655 -15.38463,9.85421 -27.65212,9.85421 a 39.969885,39.969885 0 0 1 -29.05987,-12.6697 183.34865,183.34865 0 0 1 -40.42237,-69.98501 c -10.75919,-34.69084 25.03774,-49.97492 25.94272,-50.57824 q -0.15083,-3.92157 0,-7.84315 l -7.9437,-4.62544 a 40.955306,40.955306 0 0 1 -9.85421,-8.14481 c -3.31826,0.20111 -6.53596,0.60332 -9.85421,0.60332 -24.73608,0 -47.86331,-6.03319 -68.87893,-16.08851 h -8.34591 a 115.88753,115.88753 0 0 0 -115.9378,115.83725 v 28.95932 a 48.265522,48.265522 0 0 0 48.26552,48.26552 h 256.81279 a 38.71297,38.71297 0 0 1 -6.23429,-20.4123 z"
     class="ico-primary"
     id="primary" />
  <path
     fill="currentColor"
     d="m 1370.4639,257.13205 c 1.9105,0 3.7205,-0.50277 5.631,-0.60332 a 185.36977,185.36977 0 0 1 36.5008,-59.52748 39.628004,39.628004 0 0 1 29.0599,-12.6697 38.652639,38.652639 0 0 1 19.7084,5.32932 l 7.9437,4.62545 c 0.8044,-0.50277 1.6089,-0.90498 2.4133,-1.40775 a 111.3023,111.3023 0 0 0 11.2619,-48.26552 112.61955,112.61955 0 1 0 -112.519,112.519 z m -147.7125,18.70289 a 64.162978,64.162978 0 0 0 -45.3495,-18.70289 h -64.3541 a 64.414361,64.414361 0 0 0 -64.354,64.35403 v 32.17701 a 32.177014,32.177014 0 0 0 32.177,32.17702 h 66.2646 a 147.45117,147.45117 0 0 1 75.616,-110.00517 z m -77.5265,-50.87991 a 64.354029,64.354029 0 1 0 -64.3541,-64.35403 64.414361,64.414361 0 0 0 64.3541,64.35403 z m 331.021,227.75293 c -2.3128,-1.20663 -4.6255,-2.61438 -6.8376,-3.92157 -8.2454,4.82655 -15.3847,9.85421 -27.6522,9.85421 a 39.969885,39.969885 0 0 1 -29.0598,-12.6697 183.34865,183.34865 0 0 1 -40.4224,-69.98501 c -10.7592,-34.69084 25.0377,-49.97492 25.9427,-50.57824 q -0.1508,-3.92157 0,-7.84315 l -7.9437,-4.62544 a 40.955306,40.955306 0 0 1 -9.8542,-8.14481 c -3.3183,0.20111 -6.536,0.60332 -9.8542,0.60332 -24.7361,0 -47.8633,-6.03319 -68.8789,-16.08851 h -8.3459 a 115.88753,115.88753 0 0 0 -115.9378,115.83725 v 28.95932 a 48.265522,48.265522 0 0 0 48.2655,48.26552 h 256.8128 a 38.71297,38.71297 0 0 1 -6.2343,-20.4123 z"
     class="ico-primary"
     id="path1473" />
</svg>
