<?xml version="1.0" encoding="UTF-8" standalone="no"?>
<svg
   version="1.1"
   viewBox="0 0 512 512"
   xml:space="preserve"
   id="customization"
   sodipodi:docname="customization.svg"
   inkscape:version="1.1 (c4e8f9e, 2021-05-24)"
   xmlns:inkscape="http://www.inkscape.org/namespaces/inkscape"
   xmlns:sodipodi="http://sodipodi.sourceforge.net/DTD/sodipodi-0.dtd"
   xmlns="http://www.w3.org/2000/svg"
   xmlns:svg="http://www.w3.org/2000/svg"
   xmlns:rdf="http://www.w3.org/1999/02/22-rdf-syntax-ns#"
   xmlns:cc="http://creativecommons.org/ns#"
   xmlns:dc="http://purl.org/dc/elements/1.1/"><metadata
     id="metadata7844"><rdf:RDF><cc:Work
         rdf:about=""><dc:format>image/svg+xml</dc:format><dc:type
           rdf:resource="http://purl.org/dc/dcmitype/StillImage" /></cc:Work></rdf:RDF></metadata><defs
     id="defs7842">































</defs><sodipodi:namedview
     pagecolor="#ffffff"
     bordercolor="#666666"
     borderopacity="1"
     objecttolerance="10"
     gridtolerance="10"
     guidetolerance="10"
     inkscape:pageopacity="0"
     inkscape:pageshadow="2"
     inkscape:window-width="2052"
     inkscape:window-height="1155"
     id="namedview7840"
     showgrid="false"
     inkscape:zoom="0.55524344"
     inkscape:cx="208.01687"
     inkscape:cy="388.11805"
     inkscape:window-x="2418"
     inkscape:window-y="292"
     inkscape:window-maximized="0"
     inkscape:current-layer="customization"
     inkscape:snap-global="true"
     inkscape:object-paths="true"
     inkscape:snap-intersection-paths="true"
     inkscape:snap-smooth-nodes="true"
     inkscape:snap-midpoints="true"
     inkscape:pagecheckerboard="0" /><path
     id="primary"
     d="m 232.24608,0 c -17.74583,0 -33.61147,11.266496 -39.46289,28.037109 l -9.9082,28.439454 c -23.02262,8.428859 -44.16515,20.653685 -63.04298,36.431641 L 90.173816,87.265624 C 72.74142,83.956787 55.049579,92.056191 46.167957,107.43359 l -23.738282,41.13282 c -8.881623,15.37742 -7.051657,34.74313 4.529296,48.1875 l 19.695314,22.83203 c -4.031581,23.30645 -4.278841,48.08843 0,72.82812 l -19.695314,22.83203 c -11.580953,13.44435 -13.410919,32.81009 -4.529296,48.18749 l 23.738282,41.13284 c 8.881622,15.3774 26.556059,23.47679 44.005859,20.16795 l 29.658194,-5.64258 c 18.87783,15.77796 40.02036,28.00281 63.04298,36.43164 l 9.9082,28.4375 C 198.63461,500.73154 214.50025,512 232.24608,512 h 47.50783 c 17.74584,0 33.61144,-11.26846 39.46288,-28.03907 l 9.9082,-28.4375 c 23.02257,-8.42883 44.16515,-20.65368 63.04299,-36.43164 l 29.65819,5.64258 c 17.4324,3.30884 35.12421,-4.79055 44.00585,-20.16795 l 23.73829,-41.13284 c 8.88165,-15.3774 7.05166,-34.74314 -4.52929,-48.18749 l -19.69533,-22.83203 c 4.03854,-23.35346 4.27017,-48.13891 0,-72.82812 l 19.69533,-22.83203 c 11.58095,-13.44437 13.41094,-32.81008 4.52929,-48.1875 L 465.83202,107.43359 C 456.95038,92.056191 439.25857,83.956787 421.82617,87.265624 l -29.65819,5.64258 C 373.29014,77.130248 352.14756,64.905422 329.12499,56.476563 l -9.9082,-28.439454 C 313.36535,11.266496 297.49975,0 279.75391,0 Z M 256,108.41406 A 147.586,147.586 0 0 1 403.58594,256 147.586,147.586 0 0 1 256,403.58594 147.586,147.586 0 0 1 108.41405,256 147.586,147.586 0 0 1 256,108.41406 Z"
     fill="currentColor"
     class="ico-secondary" /><path
     id="secondary"
     d="m 171.248,340.74786 c -6.04979,-6.05121 -11.55878,-12.61902 -16.47061,-19.62498 -0.0708,-0.0954 -0.13983,-0.19219 -0.20717,-0.29004 -2.68261,-3.93466 -2.18673,-9.22123 1.18082,-12.58842 l 39.68084,-39.68084 c -4.67869,-11.03123 -7.14794,-22.98847 -7.14565,-35.33047 -3e-5,-24.16818 9.41261,-46.888 26.50408,-63.97522 17.08712,-17.08713 39.80598,-26.49853 63.96969,-26.49855 8.06424,4e-5 16.08991,1.07154 23.85517,3.18612 1.70052,0.46389 3.24576,1.39627 4.47881,2.63922 1.23305,1.24296 2.15472,2.79566 2.60746,4.49952 0.92561,3.48519 -0.11757,7.05608 -2.84086,9.7821 0,0 -31.9033,32.15196 -42.57833,42.82416 -1.1182,1.1182 -1.05122,3.77754 -0.95707,4.74673 1.13941,11.72938 3.26163,26.51237 4.97322,31.92616 l 0.66845,0.66842 m 0,0 0.66843,0.66845 c 5.41378,1.71159 20.19677,3.83381 31.92615,4.97322 0.96918,0.0941 3.62852,0.1612 4.74672,-0.95707 10.67222,-10.67505 42.82415,-42.57834 42.82415,-42.57834 2.72604,-2.72319 6.29692,-3.76646 9.7821,-2.84085 1.70386,0.45274 3.25678,1.37419 4.49953,2.60745 1.24295,1.23306 2.17534,2.77831 2.63922,4.47881 2.11457,7.76527 3.18608,15.79094 3.18612,23.85519 -2e-5,24.1637 -9.41141,46.88258 -26.49855,63.96969 -17.08715,17.09152 -39.80701,26.50409 -63.97521,26.50407 -12.342,0.002 -24.29924,-2.46697 -35.33046,-7.14565 l -39.68086,39.68084 c -3.36718,3.36756 -8.65375,3.86346 -12.58843,1.18082 -0.0982,-0.0669 -0.19455,-0.13639 -0.29003,-0.20725 -7.00596,-4.91182 -13.57377,-10.42081 -19.62637,-16.472 l 97.71747,-97.71744 -97.71604,97.71888"
     class="ico-secondary"
     fill="currentColor" /></svg>
